<svg width="144" height="49" fill="none" xmlns="http://www.w3.org/2000/svg"><path d="M137.635.17H6.365C2.85.17 0 3.084 0 6.678v35.146c0 3.594 2.85 6.508 6.365 6.508h131.27c3.515 0 6.365-2.914 6.365-6.508V6.678c0-3.594-2.85-6.508-6.365-6.508z" fill="#1F2024"/><path d="M37.553 32.002a24.014 24.014 0 01-2.11 4.027c-1.38 2.13-3.311 4.797-5.69 4.797-2.126.02-2.672-1.41-5.557-1.41-2.884 0-3.486 1.41-5.611 1.41-2.393-.005-4.231-2.404-5.59-4.535-3.83-5.96-4.23-12.956-1.868-16.675 1.678-2.642 4.33-4.188 6.815-4.188 2.536 0 4.14 1.41 6.224 1.41 2.034 0 3.273-1.41 6.205-1.41 2.208 0 4.56 1.233 6.235 3.366-5.482 3.068-4.587 11.069.947 13.208z" fill="#fff"/><path d="M28.154 13.044c1.066-1.397 1.875-3.37 1.582-5.388-1.75.133-3.79 1.262-4.971 2.73-1.08 1.354-1.968 3.33-1.623 5.254 1.899.05 3.864-1.098 5.012-2.596zm21.066 6.481l-5.488 16.512h2.512l1.64-5.08h5.31l1.684 5.08h2.583l-5.52-16.512H49.22zm1.291 2.715c.185.74.387 1.504.643 2.331l1.485 4.383h-4.206l1.457-4.405c.224-.72.434-1.493.621-2.309zm14.047 1.569c-1.656 0-2.995.657-3.884 1.904l-.096-1.642h-2.236v.212c.066 1.021.094 2.147.094 3.764v12.725h2.442v-5.926c.418.48.934.86 1.51 1.113a4.203 4.203 0 001.83.354 4.945 4.945 0 002.015-.41 5.04 5.04 0 001.686-1.198c1.072-1.157 1.637-2.822 1.637-4.798 0-1.755-.491-3.27-1.421-4.385a4.657 4.657 0 00-1.602-1.265 4.557 4.557 0 00-1.975-.448zm-.608 2.068c2.178 0 3.153 2.063 3.153 4.106 0 2.636-1.245 4.276-3.246 4.276-.665 0-1.31-.23-1.832-.65a3.034 3.034 0 01-1.044-1.67 3.168 3.168 0 01-.089-.807v-2.01c.01-.206.036-.412.077-.615.014-.07.025-.138.036-.203a3.17 3.17 0 011.067-1.728 3.05 3.05 0 011.878-.699zm13.188-2.068c-1.657 0-2.995.657-3.884 1.905l-.097-1.643h-2.221l.013.212c.067 1.024.094 2.147.094 3.764v12.725h2.443v-5.926c.417.48.933.86 1.51 1.114a4.205 4.205 0 001.83.353 4.956 4.956 0 002.015-.41 5.05 5.05 0 001.689-1.198c1.068-1.157 1.634-2.822 1.634-4.798 0-1.755-.492-3.27-1.422-4.385a4.653 4.653 0 00-1.614-1.271 4.558 4.558 0 00-1.99-.442zm-.608 2.068c2.178 0 3.153 2.063 3.153 4.106 0 2.636-1.245 4.276-3.247 4.276-.664 0-1.31-.23-1.83-.65a3.033 3.033 0 01-1.045-1.67 3.173 3.173 0 01-.089-.807v-2.01c.01-.207.037-.414.08-.617l.033-.2a3.17 3.17 0 011.067-1.729 3.05 3.05 0 011.878-.699zm16.37.645c-2.28-.903-3.01-1.611-3.01-2.924 0-1.103.858-2.218 2.776-2.218a5.444 5.444 0 012.868.737l.207.13.69-2.086-.138-.082c-.409-.242-1.574-.815-3.558-.815-3.114 0-5.291 1.882-5.291 4.574 0 2.17 1.363 3.686 4.289 4.775 2.073.793 2.846 1.603 2.846 2.994 0 1.575-1.193 2.54-3.106 2.54a6.579 6.579 0 01-3.522-1.021l-.212-.139-.657 2.131.122.082c.921.632 2.658 1.086 4.14 1.086 4.198 0 5.688-2.618 5.688-4.86-.01-2.296-1.206-3.721-4.132-4.904zm8.519-5.297l-2.396.77v2.074h-1.755v1.998h1.755v6.116c0 1.476.276 2.514.845 3.169.307.318.677.567 1.084.73.408.164.844.238 1.281.218a5.59 5.59 0 001.888-.299l.138-.048-.119-2-.234.073c-.369.104-.752.15-1.135.135-.946 0-1.352-.612-1.352-2.052v-6.042h2.948V24.07h-2.948v-2.844zm9 2.585c-3.417 0-5.796 2.607-5.796 6.34 0 3.624 2.31 6.152 5.62 6.152h.022c2.796 0 5.796-1.992 5.796-6.366 0-1.778-.538-3.305-1.557-4.417a5.429 5.429 0 00-1.865-1.298 5.327 5.327 0 00-2.22-.412zm-.069 1.975c2.208 0 3.199 2.19 3.199 4.233 0 2.503-1.366 4.32-3.246 4.32h-.024c-1.852-.02-3.186-1.795-3.186-4.253 0-2.144 1-4.303 3.257-4.303v.003zm13.195-1.861l-.146-.036a2.224 2.224 0 00-.607-.08 3.437 3.437 0 00-1.809.566 3.541 3.541 0 00-1.255 1.447l-.072-1.75h-2.191l.014.212c.066.987.091 2.097.091 3.595l-.022 8.162h2.442v-6.367a6.669 6.669 0 01.069-.968c.276-1.53 1.284-2.517 2.57-2.517.22.001.439.015.657.042l.259.025v-2.33zm5.491-.139c-3.252 0-5.52 2.656-5.52 6.46 0 3.669 2.26 6.034 5.757 6.034a9.212 9.212 0 003.865-.76l.149-.067-.47-1.863-.204.085a7.426 7.426 0 01-3.061.564c-1.063 0-3.511-.358-3.66-3.62l7.886.022.033-.158c.056-.345.08-.695.072-1.044 0-2.61-1.27-5.653-4.847-5.653zm-.163 1.9a2.395 2.395 0 011.794.699c.704.731.828 1.81.828 2.326h-5.559c.229-1.448 1.11-3.026 2.937-3.026zM43.732 8.25a17.34 17.34 0 012.344-.16c1.576 0 2.697.324 3.439.962.742.638 1.212 1.552 1.212 2.822a4.032 4.032 0 01-.288 1.655c-.212.524-.53.995-.935 1.382-.806.73-2.117 1.129-3.768 1.129a17.202 17.202 0 01-2.004-.093V8.25zm1.105 6.923c.366.041.735.056 1.103.045 2.344 0 3.616-1.205 3.616-3.316 0-1.865-1.123-3.014-3.442-3.014-.43-.005-.86.03-1.283.105l.005 6.18zm9.814.913c-1.636 0-2.923-1.112-2.923-2.887 0-1.877 1.35-2.98 3.037-2.98 1.75 0 2.934 1.17 2.934 2.875 0 2.089-1.574 2.992-3.023 2.992h-.025zm.04-.765c1.056 0 1.851-.917 1.851-2.193 0-.948-.516-2.142-1.827-2.142s-1.866 1.112-1.866 2.179c0 1.228.756 2.156 1.827 2.156h.014zm4.754-4.973l.828 2.84c.163.626.326 1.216.439 1.797h.038c.139-.564.34-1.171.553-1.786l.996-2.85h.908l.95 2.802c.226.66.403 1.264.552 1.831h.038c.12-.615.276-1.223.467-1.82l.87-2.822h1.103l-1.984 5.633h-1.008l-.933-2.678c-.216-.608-.4-1.227-.552-1.854h-.025a16.3 16.3 0 01-.552 1.865l-.974 2.667h-1.007l-1.842-5.61 1.135-.015zm8.833 1.519c0-.593-.014-1.055-.05-1.518h.983l.064.914h.024c.22-.336.521-.608.874-.791.353-.183.746-.27 1.141-.253.845 0 2.156.466 2.156 2.39v3.364h-1.104v-3.248c0-.906-.364-1.67-1.41-1.67a1.562 1.562 0 00-.904.284c-.265.187-.47.451-.584.76a1.421 1.421 0 00-.075.473v3.401H68.29l-.01-4.106zm6.992-4.14h1.104v8.246h-1.105V7.727zm5.43 8.359c-1.636 0-2.923-1.112-2.923-2.887 0-1.877 1.347-2.98 3.037-2.98 1.75 0 2.934 1.17 2.934 2.875 0 2.089-1.577 2.992-3.023 2.992H80.7zm.039-.765c1.057 0 1.852-.917 1.852-2.193 0-.948-.519-2.142-1.827-2.142-1.308 0-1.866 1.112-1.866 2.179 0 1.228.756 2.156 1.827 2.156h.014zm8.691-.707c-.006.45.023.9.088 1.346h-.997l-.102-.709h-.036a2.354 2.354 0 01-.838.642 2.304 2.304 0 01-1.028.205c-1.233 0-1.863-.799-1.863-1.611 0-1.358 1.309-2.1 3.666-2.086v-.116c0-.465-.138-1.312-1.38-1.298a3.144 3.144 0 00-1.601.415l-.251-.683a4.2 4.2 0 012.015-.488c1.877 0 2.332 1.17 2.332 2.297l-.006 2.085zm-1.085-1.519c-1.21-.022-2.584.175-2.584 1.264 0 .672.48.974 1.035.974.314.019.626-.061.894-.23a1.56 1.56 0 00.605-.71.946.946 0 00.05-.324v-.974zm8.131-5.368V14.5c0 .5.013 1.066.052 1.45h-.996l-.05-.973h-.025c-.342.626-1.07 1.1-2.067 1.1-1.474 0-2.622-1.146-2.622-2.853 0-1.877 1.261-3.014 2.735-3.014.947 0 1.576.406 1.84.847h.026v-3.33h1.107zM95.37 12.63a1.727 1.727 0 00-.052-.44 1.637 1.637 0 00-.602-.866c-.29-.212-.64-.32-.996-.305-1.148 0-1.827.928-1.827 2.156 0 1.149.618 2.085 1.802 2.085.364.008.72-.107 1.013-.327.293-.22.508-.532.61-.889.038-.143.055-.291.052-.44v-.974zm8.1 3.456c-1.637 0-2.923-1.112-2.923-2.887 0-1.877 1.35-2.98 3.036-2.98 1.753 0 2.937 1.17 2.937 2.875 0 2.089-1.576 2.992-3.023 2.992h-.027zm.039-.765c1.057 0 1.852-.917 1.852-2.193 0-.948-.517-2.142-1.828-2.142s-1.866 1.112-1.866 2.179c0 1.228.757 2.156 1.828 2.156h.014zm4.396-3.454c0-.593-.014-1.055-.05-1.518h.983l.064.914h.024a2.33 2.33 0 01.874-.791c.353-.183.746-.27 1.141-.253.845 0 2.156.466 2.156 2.39v3.364h-1.104v-3.248c0-.906-.364-1.67-1.41-1.67a1.564 1.564 0 00-.904.284 1.622 1.622 0 00-.584.76 1.418 1.418 0 00-.069.488v3.386h-1.104l-.017-4.106zm11-2.865v1.346h1.587v.776h-1.587v3.025c0 .695.216 1.09.828 1.09a2.29 2.29 0 00.641-.068l.052.776c-.319.095-.65.142-.982.138-.439.024-.87-.13-1.198-.429-.304-.313-.428-.812-.428-1.473v-3.059h-.947v-.776h.947V9.315l1.087-.313zm2.833-1.275h1.104v3.502h.025c.192-.313.468-.563.795-.72.349-.19.739-.286 1.135-.282.828 0 2.128.466 2.128 2.402v3.344h-1.104v-3.237c0-.917-.365-1.67-1.411-1.67a1.573 1.573 0 00-.897.277 1.631 1.631 0 00-.591.744 1.18 1.18 0 00-.074.485v3.4h-1.104l-.006-8.245zm7.626 5.599c.025 1.38.971 1.95 2.078 1.95a4.55 4.55 0 001.69-.282l.201.72a5.363 5.363 0 01-2.04.358c-1.866 0-3-1.148-3-2.822 0-1.673 1.104-3.04 2.873-3.04 1.99 0 2.507 1.612 2.507 2.645a2.49 2.49 0 01-.036.488l-4.273-.017zm3.24-.739c0-.638-.292-1.66-1.526-1.66-1.134 0-1.612.952-1.7 1.66h3.226z" fill="#fff"/></svg>