<svg width="175" height="47" fill="none" xmlns="http://www.w3.org/2000/svg"><g clip-path="url(#clip0_529_9443)"><path fill-rule="evenodd" clip-rule="evenodd" d="M123.854 30.103h-4.401L132.367 4.46h5.072l12.914 25.644h-4.451l-3.397-6.745h-15.253l-3.398 6.744zm17.052-9.923l-6.027-11.97-6.028 11.97h12.055zM103.705 3.789L106.716.28h6.693l-9.704 3.508zM95.11 30.156h22.705v-2.913H99.027v-8.855h13.947v-3.01H99.027V7.34h18.669V4.487H95.11v25.669zM64.26 4.46h16.726c4.462 0 8.112 3.347 8.112 7.439 0 3.566-2.774 6.566-6.44 7.278l7.855 10.926h-4.607l-7.739-10.766H67.792v10.766h-3.533V4.46zm16.915 3.05l.234.033.228.045.224.056.218.07.214.079.208.089.202.1.195.109.19.119.182.125.175.136.168.143.159.15.15.156.142.161.134.167.124.173.116.174.106.179.097.183.088.188.078.188.068.189.062.188.051.192.042.195.032.196.023.2.015.201.005.207-.005.206-.014.202-.024.2-.032.196-.042.194-.05.193-.063.188-.068.188-.078.188-.088.188-.097.183-.106.178-.115.176-.124.172-.134.167-.142.162-.15.156-.16.15-.167.143-.175.135-.182.125-.19.119-.196.11-.201.099-.209.089-.214.079-.22.068-.224.057-.228.045-.234.032-.24.02-.274.007h-12.68V7.483h12.675l.282.008.239.02zM42.539 2.957c-7.17 0-12.986 5.871-12.986 13.11 0 7.24 5.814 13.113 12.983 13.113 7.17 0 12.984-5.872 12.984-13.112S49.708 2.956 42.539 2.956zm0-2.956c-9.545 0-17.286 7.195-17.286 16.067 0 8.871 7.74 16.067 17.286 16.067 9.545 0 17.286-7.195 17.286-16.067S52.084 0 42.539 0zM0 30.156V4.487h3.242v22.856h19.203v2.81L0 30.157zm152.228 0H175v-2.92h-19.204V4.487h-3.568v25.669zM70.478 46.83h-1.935l5.675-9.979h2.228l5.676 9.979h-1.955l-1.49-2.625H71.97l-1.49 2.625h-.003zm7.493-3.862l-2.648-4.657-2.649 4.657h5.297zm7.823-6.117h7.03c1.875 0 3.409 1.303 3.409 2.895 0 1.387-1.166 2.555-2.706 2.832l3.3 4.252h-1.935l-3.253-4.19h-3.987v4.19h-1.855v-9.979h-.003zm7.109 1.187l.098.013.096.017.095.022.092.027.09.03.087.036.085.038.082.042.08.047.077.05.073.052.07.056.068.058.062.063.062.063.056.062.053.067.048.069.044.07.041.07.037.072.034.07.028.073.026.075.021.075.017.076.014.076.01.077.006.08v.16l-.006.078-.01.078-.014.076-.017.076-.021.075-.026.074-.028.073-.033.073-.037.072-.04.07-.045.07-.048.069-.053.067-.056.062-.062.063-.062.063-.067.058-.07.055-.074.053-.076.05-.08.046-.082.043-.086.038-.087.035-.09.03-.092.027-.094.022-.097.017-.098.013-.1.008h-5.07v-3.43h5.071l.1.007-.002.003zm-35.546-1.187h7.03c1.874 0 3.408 1.303 3.408 2.895 0 .997-.602 1.882-1.513 2.402-.625.358-1.246.456-1.959.483-.363.014-.739.014-1.121.01h-3.987v4.189h-1.858v-9.979zm7.108 1.187l.099.013.096.017.094.022.092.027.09.03.088.036.085.038.082.042.08.047.076.05.074.052.07.056.067.058.062.063.062.063.056.062.053.067.048.069.045.07.04.07.037.072.033.073.029.073.025.075.022.074.017.076.013.077.01.077.007.079v.16l-.007.079-.01.078-.013.075-.017.076-.022.076-.025.074-.029.072-.033.073-.036.072-.041.071-.045.07-.048.068-.052.067-.057.063-.062.063-.062.062-.067.059-.07.055-.074.052-.077.05-.08.046-.081.043-.085.038-.088.035-.09.031-.092.026-.094.022-.096.018-.099.012-.1.008h-5.073v-3.43h5.072l.1.007.001.003zm42.99 5.586l1.707-.11c.08.5.267.91.563 1.23.296.319.755.578 1.375.775a6.913 6.913 0 002.098.295 6.765 6.765 0 001.828-.223c.528-.15.923-.355 1.179-.615.257-.26.389-.546.389-.856 0-.309-.124-.585-.373-.82-.248-.234-.658-.429-1.228-.587-.37-.105-1.18-.267-2.436-.488-1.256-.22-2.136-.428-2.639-.623-.652-.25-1.14-.56-1.461-.929a1.86 1.86 0 01-.478-1.243c0-.502.195-.973.586-1.41.392-.436.965-.771 1.716-.999a8.719 8.719 0 012.509-.34c1.015 0 1.906.12 2.683.358.777.24 1.369.589 1.786 1.05.416.463.64.988.672 1.574l-1.737.097c-.096-.627-.411-1.108-.949-1.43-.537-.32-1.33-.482-2.381-.482-1.095 0-1.891.146-2.394.439-.503.293-.751.646-.751 1.057 0 .36.178.655.531.885.354.23 1.258.47 2.729.71 1.47.242 2.479.456 3.027.637.796.27 1.384.61 1.764 1.018.365.38.569.89.566 1.42 0 .532-.207 1.03-.621 1.5-.414.469-1.018.83-1.8 1.095-.783.264-1.659.39-2.633.39-1.238 0-2.275-.132-3.11-.395-.836-.262-1.492-.658-1.968-1.187-.475-.527-.726-1.13-.746-1.793h-.003zm-6.107 3.206v-7.053h1.823v7.053h-1.823zm0-8.112v-1.867h1.823v1.867h-1.823zM15.832 13.48h2.992l4.49-8.807h-3.808l-3.674 8.808z" fill="#000"/></g><defs><clipPath id="clip0_529_9443"><path fill="#fff" d="M0 0h175v47H0z"/></clipPath></defs></svg>