<svg width="111" height="97" fill="none" xmlns="http://www.w3.org/2000/svg"><path d="M0 70.615v-1.447l65.07-36.37 45.1 24.745v1.447L45.197 97 .001 70.615z" fill="#F4F4F6"/><path d="M65.068 32.799l3.184 1.785-23.056 60.92V97L-.001 70.615v-1.447l65.07-36.37z" fill="#E0C18F"/><path d="M0 69.168l65.07-37.816 45.1 26.191-64.973 37.961L.001 69.168z" fill="#FFC6E1"/><path d="M.002 69.168l65.07-37.816 38.684 22.477L38.831 91.79.002 69.168z" fill="#F2F2F2"/><path d="M14.278 37.913v-2.026l24.02 14.036v29.858L14.182 65.744l.097-27.831z" fill="#908169"/><path d="M14.181 65.744L38.3 79.781v-4.438L14.278 61.45l-.097 4.293z" fill="#756D5F"/><path d="M38.3 79.781l55.325-31.883-.048-30.1-55.278 32.077v29.906z" fill="#E0C18F"/><path d="M38.3 79.78l55.325-31.883-.048-4.39-55.278 31.836v4.438z" fill="#F9E4C2"/><path d="M66.518 51.127v12.445l6.222-3.618v-12.3l-6.222 3.473z" fill="#1F2024"/><path d="M71.63 59.713V49.584l-4.003 2.219v10.13l4.004-2.22z" fill="#F2F2F2"/><path d="M61.407 53.925v12.54l6.222-3.569V50.5l-6.222 3.425z" fill="#1F2024"/><path d="M66.52 62.56V52.43l-3.956 2.17v10.13l3.955-2.17z" fill="#F2F2F2"/><path d="M14.278 35.887L69.65 3.955 93.576 17.8 38.3 49.923 14.278 35.887z" fill="#A0C844"/><path d="M29.377 56.291l-9.454-5.402v8.682l9.454 5.45v-8.73z" fill="#1F2024"/><path d="M28.268 56.918l-7.236-4.1v6.126l7.236 4.148v-6.174z" fill="#F2F2F2"/><path d="M21.757 47.22l-3.955 3.86 8.971 5.209 3.329-4.293-8.345-4.775z" fill="#F9E4C2"/><path d="M17.8 51.08v1.447c0 .675.387 1.35.965 1.688l.434.241c.386.194.82-.048.82-.482v-1.64l-2.218-1.254zm2.22 1.3v1.496c0 .675.385 1.35.964 1.688l.434.242c.386.193.82-.049.82-.483v-1.64l-2.218-1.302zm2.267 1.305v1.496c0 .675.386 1.35.965 1.688l.434.241c.386.193.82-.048.82-.482v-1.64l-2.219-1.303z" fill="#1F2024"/><path d="M24.506 54.986v1.496c0 .675.386 1.35.965 1.688l.434.241c.386.193.82-.048.82-.482v-1.64l-2.22-1.303z" fill="#1F2024"/><path d="M26.436 58.46l3.666-2.171v-4.293l-3.329 4.293-.337 2.17z" fill="#1F2024"/><path d="M12.06 33.716L70.523 0l25.275 14.567-58.365 33.958-25.371-14.809z" fill="url(#paint0_linear_673_11803)"/><path d="M93.578 17.798l2.219-3.232-58.365 33.958.869 1.35 55.277-32.076z" fill="#908169"/><path d="M12.06 33.717l2.22 2.17L38.3 49.876l-.867-1.351L12.06 33.717z" fill="#908169"/><path d="M43.122 60.053v12.01l15.773-9.068V50.84l-15.773 9.213z" fill="#1F2024"/><path d="M58.123 62.56V52.239l-14.181 8.248v10.178l14.181-8.103z" fill="#F2F2F2"/><path d="M54.41 54.07l.772-.482v10.901l-.772.482v-10.9zm-3.715 2.028l.772-.483v10.853l-.772.53v-10.9zm-3.712 2.41l.772-.434.048 10.853-.82.482v-10.9z" fill="#1F2024"/><path d="M59.039 46.98l4.727 5.548-9.454 5.45-4.631-5.692 9.358-5.306z" fill="#F8E1BD"/><path d="M63.766 52.527v1.544c0 .723-.386 1.399-1.013 1.785l-.483.289a.569.569 0 01-.868-.482v-1.689l2.364-1.447z" fill="#E0C18F"/><path d="M61.402 53.879v1.543c0 .724-.386 1.4-1.013 1.785l-.482.29a.569.569 0 01-.868-.483v-1.736l2.363-1.4z" fill="#161616"/><path d="M59.04 55.228v1.544c0 .724-.387 1.399-1.014 1.785l-.482.29a.569.569 0 01-.868-.483v-1.737l2.363-1.399z" fill="#E0C18F"/><path d="M61.402 53.878l-4.63-5.644-2.364 1.351 4.63 5.643 2.364-1.35z" fill="#1F2024"/><path d="M56.723 56.627v1.543c0 .724-.386 1.4-1.013 1.785l-.483.29a.569.569 0 01-.868-.483v-1.736l2.364-1.399z" fill="#161616"/><path d="M56.723 56.628l-4.68-5.644-2.363 1.351 4.68 5.643 2.363-1.35z" fill="#1F2024"/><path d="M49.68 52.334l4.68 5.595-9.407 5.45-4.63-5.643 9.358-5.402z" fill="#F8E1BD"/><path d="M54.36 57.93v1.543c0 .724-.386 1.399-1.014 1.785l-.482.29a.569.569 0 01-.868-.483v-1.688l2.363-1.447z" fill="#E0C18F"/><path d="M51.996 59.281v1.544c0 .723-.386 1.399-1.013 1.784l-.482.29a.569.569 0 01-.868-.483V60.68l2.363-1.399z" fill="#161616"/><path d="M49.68 60.63v1.544c0 .724-.386 1.4-1.013 1.785l-.483.29a.569.569 0 01-.868-.483V62.03l2.364-1.4z" fill="#E0C18F"/><path d="M51.996 59.282l-4.63-5.643-2.364 1.35 4.679 5.644 2.315-1.35z" fill="#1F2024"/><path d="M47.316 62.03v1.543c0 .723-.386 1.399-1.013 1.785l-.482.289a.569.569 0 01-.868-.482v-1.737l2.363-1.399z" fill="#161616"/><path d="M47.316 62.03l-4.63-5.643-2.364 1.35 4.63 5.644 2.364-1.35z" fill="#1F2024"/><path d="M45.34 65.647l-5.017-3.087v-4.824l4.631 5.644.386 2.267zM75.2 41.772v12.059l15.773-9.068V32.607L75.2 41.772z" fill="#1F2024"/><path d="M90.201 44.28V34.006L76.02 42.254v10.178l14.181-8.152z" fill="#F2F2F2"/><path d="M86.487 35.84l.771-.483.049 10.853-.82.53v-10.9zm-3.715 1.977l.772-.434.048 10.853-.82.53v-10.95zm-3.713 2.46l.772-.482.048 10.901-.82.482v-10.9z" fill="#1F2024"/><path d="M91.117 28.7l4.727 5.595-9.454 5.45-4.63-5.692 9.357-5.354z" fill="#F9E4C2"/><path d="M95.844 34.295v1.543c0 .724-.386 1.4-1.013 1.785l-.483.29a.569.569 0 01-.868-.483v-1.688l2.364-1.447z" fill="#E0C18F"/><path d="M93.478 35.647v1.543c0 .724-.385 1.399-1.012 1.785l-.483.29a.569.569 0 01-.868-.483v-1.737l2.364-1.398z" fill="#161616"/><path d="M91.117 36.994v1.544c0 .723-.386 1.399-1.013 1.784l-.482.29a.569.569 0 01-.868-.483v-1.736l2.363-1.399z" fill="#E0C18F"/><path d="M93.478 35.645l-4.63-5.643-2.364 1.35 4.631 5.644 2.364-1.35z" fill="#1F2024"/><path d="M88.8 38.395v1.543c0 .724-.385 1.399-1.012 1.785l-.483.29a.569.569 0 01-.868-.483v-1.737l2.364-1.398z" fill="#161616"/><path d="M88.8 38.395l-4.63-5.643-2.412 1.35 4.68 5.644 2.363-1.35z" fill="#1F2024"/><path d="M81.759 34.102l4.678 5.595-9.357 5.45-4.679-5.691 9.358-5.354z" fill="#F9E4C2"/><path d="M86.438 39.697v1.544c0 .723-.386 1.399-1.013 1.785l-.483.289a.569.569 0 01-.868-.482v-1.689l2.364-1.447z" fill="#E0C18F"/><path d="M84.123 41.047v1.543c0 .724-.386 1.4-1.013 1.785l-.482.29a.569.569 0 01-.868-.483v-1.736l2.363-1.4z" fill="#161616"/><path d="M81.758 42.398v1.544c0 .724-.386 1.399-1.013 1.785l-.483.29a.569.569 0 01-.868-.483v-1.737l2.364-1.399z" fill="#E0C18F"/><path d="M84.123 41.048l-4.679-5.644-2.363 1.35 4.678 5.644 2.364-1.35z" fill="#1F2024"/><path d="M79.394 43.797v1.543c0 .724-.385 1.4-1.012 1.785l-.483.29a.569.569 0 01-.868-.483v-1.736l2.363-1.4z" fill="#161616"/><path d="M79.394 43.798l-4.63-5.644-2.364 1.303 4.631 5.691 2.363-1.35z" fill="#1F2024"/><path d="M77.418 47.366l-5.017-3.087v-4.824l4.631 5.692.386 2.219z" fill="#1F2024"/><path d="M38.686 40.806l14.52-8.392v-2.268l-14.52 8.393v2.267z" fill="#F9E4C2"/><path d="M38.688 38.54v2.268L24.12 32.415v-2.46l14.567 8.586z" fill="#908169"/><path d="M66.66 24.601l14.52-8.392V13.94l-14.52 8.393V24.6z" fill="#F9E4C2"/><path d="M66.662 22.14v2.46l-14.567-8.393V13.7l14.567 8.441z" fill="#908169"/><path d="M54.2 43.33c-3.13-3.086-1.62-9.694 3.374-14.759 4.994-5.065 11.58-6.669 14.71-3.583 3.13 3.086 1.619 9.694-3.375 14.76-4.994 5.064-11.58 6.668-14.71 3.582z" fill="#C07D9D"/><path d="M71.726 24.502l1.206.916-.338.145-1.688-1.254.82.192zM54.408 43.603l1.4 1.013.674-1.4-2.074.387z" fill="#3879F0"/><path d="M55.195 44.13c-3.13-3.087-1.619-9.695 3.375-14.76 4.994-5.065 11.58-6.669 14.71-3.583 3.13 3.086 1.619 9.694-3.375 14.759-4.994 5.065-11.58 6.67-14.71 3.583z" fill="#FFC6E1"/><path d="M77.178 61.889l.049.723-11.577 6.56v-.675l11.528-6.608z" fill="#E0C18F"/><path d="M65.65 68.496l-3.762-2.219v.772l3.762 2.122v-.675z" fill="#908169"/><path d="M61.89 66.278l11.43-6.608 3.86 2.219-11.529 6.608-3.762-2.219z" fill="#F9E4C2"/><path d="M75.055 59.861v.82l-11.529 6.56v-.723l11.529-6.657z" fill="#E0C18F"/><path d="M63.525 66.518l-2.122-1.399v1.592l2.122 1.254v-1.447z" fill="#908169"/><path d="M61.404 65.12l11.432-6.608 2.219 1.35-11.529 6.657-2.122-1.4z" fill="#F9E4C2"/><path d="M38.299 79.78l-6.174 3.424L8.007 69.168v-.579l6.174-2.605L38.3 79.153v.627z" fill="#908169"/><path d="M14.181 65.984l10.709 5.74 7.235 10.853v.627L8.007 69.168v-.579l6.175-2.605z" fill="#908169"/><path d="M38.299 79.153l-6.174 3.424L8.007 68.59l6.174-3.232L38.3 79.153z" fill="#F9E4C2"/><path d="M21.416 65.889v3.52l-3.039 1.544v-3.328l3.039-1.736z" fill="#E0C18F"/><path d="M18.377 67.626L14.904 65.6l3.04-1.737 3.472 2.026-3.039 1.737z" fill="#F9E4C2"/><path d="M18.377 67.626v3.328l-3.473-1.978V65.6l3.473 2.026z" fill="#908169"/><path d="M25.805 68.541v3.521l-3.04 1.544v-3.328l3.04-1.737z" fill="#E0C18F"/><path d="M22.766 70.278l-3.473-2.026 3.087-1.736 3.425 2.025-3.04 1.737z" fill="#F9E4C2"/><path d="M22.766 70.278v3.328l-3.473-1.978v-3.376l3.473 2.026z" fill="#908169"/><path d="M30.342 71.049v3.521l-3.039 1.592v-3.329l3.039-1.784z" fill="#E0C18F"/><path d="M27.303 72.835l-3.473-2.026 3.039-1.737 3.473 1.978-3.039 1.785z" fill="#F9E4C2"/><path d="M27.303 72.835v3.328l-3.473-2.026v-3.328l3.473 2.026z" fill="#908169"/><path d="M34.973 73.703v3.521l-3.04 1.592V75.44l3.04-1.737z" fill="#E0C18F"/><path d="M31.934 75.44l-3.473-1.977 3.039-1.736 3.473 1.977-3.04 1.737z" fill="#F9E4C2"/><path d="M31.934 75.44v3.377l-3.473-2.026v-3.328l3.473 1.978z" fill="#908169"/><path d="M55.662 74.671c.096-.048.144-.048.24-.048h.049l.145.096-.048.145v.048c0 .29-.145.627-.386.724h-.049c0 .048-.048.096-.048.096l-.145-.096c-.096-.048-.096-.145-.096-.29 0-.24.145-.53.338-.675z" fill="#1F2024"/><path d="M55.515 75.54c0 .29.145.434.386.29.193-.145.386-.435.386-.724 0-.29-.145-.434-.386-.29-.24.145-.386.435-.386.724z" fill="#1F2024"/><path d="M55.71 75.397c0 .144.096.193.193.144a.406.406 0 00.193-.337c0-.145-.097-.193-.193-.145-.145.048-.193.193-.193.338zm-3.664 1.108c.097-.048.145-.048.242-.048h.048l.145.097-.049.144v.048c0 .29-.145.628-.386.724h-.048c0 .048-.048.096-.048.096l-.145-.096c-.096-.048-.096-.145-.096-.29-.049-.192.096-.53.337-.675z" fill="#1F2024"/><path d="M51.855 77.374c0 .29.145.434.386.29.193-.145.386-.435.386-.724 0-.29-.145-.434-.386-.29-.241.097-.386.435-.386.724z" fill="#1F2024"/><path d="M52.05 77.23c0 .145.096.194.193.145a.406.406 0 00.192-.337c0-.145-.096-.193-.192-.145-.097.048-.193.241-.193.338z" fill="#1F2024"/><path d="M51.853 76.746l.193.483c.048.145.24.048.24-.097l.146-.675-.58.29z" fill="#0036AC"/><path d="M51.9 76.746l.193.483c.048.145.24.048.24-.097l.145-.675-.578.29z" fill="#FFB7B4"/><path d="M55.517 74.866l.193.482c.048.145.241.048.241-.097l.145-.675-.58.29z" fill="#0036AC"/><path d="M55.564 74.866l.193.482c.048.145.24.048.24-.097l.146-.675-.58.29z" fill="#FFB7B4"/><path d="M53.206 73.273c.097-.048.145-.048.242-.048h.048l.145.096-.049.145v.048c0 .29-.144.627-.386.724h-.048c0 .048-.048.096-.048.096l-.145-.096c-.096-.049-.096-.145-.096-.29 0-.193.145-.53.337-.675z" fill="#2A2183"/><path d="M53.064 74.142c0 .289.145.434.386.289.193-.145.386-.434.386-.724 0-.289-.145-.434-.386-.289-.241.097-.386.434-.386.724z" fill="#4B42AE"/><path d="M53.259 73.998c0 .145.096.193.193.145a.406.406 0 00.193-.338c0-.144-.097-.193-.193-.144a.406.406 0 00-.193.337z" fill="#2A2183"/><path d="M49.587 75.105c.097-.048.145-.048.241-.048h.049l.145.096-.049.145v.048c0 .29-.145.627-.386.724h-.048c0 .048-.048.096-.048.096l-.145-.096c-.096-.049-.096-.145-.096-.29-.048-.193.096-.53.337-.675z" fill="#1F2024"/><path d="M49.394 75.974c0 .29.145.434.386.29.193-.146.386-.435.386-.724 0-.29-.145-.435-.386-.29-.241.097-.386.434-.386.724z" fill="#1F2024"/><path d="M49.589 75.877c0 .145.096.193.193.145a.406.406 0 00.193-.338c0-.144-.097-.193-.193-.144-.145 0-.193.192-.193.337z" fill="#0036AC"/><path d="M49.398 75.346l.193.482c.048.145.24.049.24-.096l.146-.675-.58.29z" fill="#0036AC"/><path d="M49.445 75.346l.193.482c.048.145.24.049.24-.096l.145-.675-.578.29z" fill="#FFB7B4"/><path d="M53.062 73.465l.193.483c.048.144.24.048.24-.097l.146-.675-.58.29z" fill="#1D45AA"/><path d="M53.109 73.465l.193.483c.048.144.24.048.24-.097l.145-.675-.578.29z" fill="#15327D"/><path d="M53.349 73.9c0 .047 0 .047.048.047s.048-.048.048-.096 0-.048-.048-.048c0 .048-.048.096-.048.096z" fill="#0F2559"/><path d="M50.792 77.42c.193 0 .434-.049.627-.145l4.727-2.605a.104.104 0 00.096-.097l.58-1.784c.047-.097.096-.193 0-.241l-1.303-.772c-.097-.048-.193 0-.29.048-.048.097 0 .193.049.29l1.206.723-.58 1.543-4.678 2.557c-.29.145-.627.145-.916 0l-1.062-.627c-.096-.048-.144-.145-.144-.29 0-.096.048-.192.144-.289l4.342-2.556c.096-.049.144-.193.048-.29-.048-.096-.193-.145-.29-.048l-4.34 2.556c-.242.145-.339.338-.339.627 0 .242.145.483.338.628l1.061.627c.242.048.483.144.724.144z" fill="#FFB7B4"/><path d="M50.792 77.18c.193 0 .434-.049.627-.145l4.727-2.556a.104.104 0 00.097-.097l.53-1.785c.049-.096.193-.193.097-.24l-1.302-.773c-.097-.048-.193 0-.29.049-.048.096 0 .193.048.29l.965.674-.386 1.544-4.679 2.556a1.019 1.019 0 01-.916 0l-1.061-.627c-.097-.048-.145-.144-.145-.29 0-.096.048-.192.145-.288l4.34-2.557c.097-.048.146-.193.05-.29-.05-.096-.194-.144-.29-.048l-4.341 2.557c-.242.145-.338.338-.338.627 0 .241.145.482.338.627l1.06.627c.242.048.483.145.724.145zm5.835-7.284c.048 0 .145-.048.145-.096l.627-1.206c.048-.096 0-.193-.096-.241-.097-.048-.193 0-.242.096l-.627 1.206c-.048.097 0 .193.097.241h.096zm-2.652-1.494c.048 0 .145-.048.145-.096l.627-1.206c.048-.096 0-.193-.097-.241-.096-.048-.193 0-.24.096l-.628 1.206c-.048.097 0 .193.097.241h.096z" fill="#1F2024"/><path d="M54.072 66.81c0-.096.049-.24.145-.289.048 0 .048-.048.097 0l3.424 2.026-.24.434-3.426-1.977c.049-.048 0-.097 0-.193z" fill="#1F2024"/><path d="M57.545 68.835c0 .097.048.193.144.097.097-.049.145-.193.145-.29 0-.096-.048-.193-.145-.096-.096.048-.144.193-.144.29z" fill="#1F2024"/><path d="M53.445 67.92v2.894l3.28 1.93v-2.895l-3.28-1.93z" fill="#B77896"/><path d="M53.445 70.813l3.28 1.929-5.355 2.653-2.797-1.495 4.872-3.088z" fill="#1F2024"/><path d="M53.445 70.814l-4.871 3.087V70.96l4.871-3.04v2.895z" fill="#C593AB"/><path d="M53.446 67.678l3.665 2.17-5.74 2.943-3.231-1.833 5.306-3.28zm-2.026 4.871l5.354-2.749-3.28-1.93-4.872 3.04 2.798 1.64z" fill="#FFB7B4"/><path d="M57.111 69.85v3.183l-5.74 2.942v-3.183l5.74-2.942z" fill="#1D42A7"/><path d="M57.111 69.85v3.183l-5.74 2.942v-3.183l5.74-2.942z" fill="#FFC6E1"/><path d="M51.371 75.974l-3.183-1.833v-3.184l3.183 1.833v3.183z" fill="#2453CB"/><path d="M51.371 75.974l-3.183-1.833v-3.184l3.183 1.833v3.183z" fill="#C07D9D"/><path d="M86.248 57.978c.096-.048.144-.048.24-.048h.049l.145.096-.049.145v.048c0 .29-.144.627-.385.724h-.049c0 .048-.048.096-.048.096l-.145-.096c-.096-.049-.096-.145-.096-.29-.048-.193.145-.53.338-.675z" fill="#1F2024"/><path d="M86.054 58.847c0 .29.145.434.386.29.193-.146.386-.435.386-.724 0-.29-.144-.434-.386-.29-.193.097-.386.434-.386.724z" fill="#1F2024"/><path d="M86.249 58.75c0 .145.096.193.193.145a.406.406 0 00.193-.338c0-.144-.097-.193-.193-.144a.406.406 0 00-.193.337zm-3.667 1.11c.096-.047.144-.047.24-.047h.049l.145.096-.049.145v.048c0 .29-.144.627-.385.723h-.049c0 .049-.048.097-.048.097l-.145-.097c-.096-.048-.096-.144-.096-.289 0-.241.145-.579.338-.675z" fill="#1F2024"/><path d="M82.388 60.68c0 .29.145.435.386.29.193-.145.386-.434.386-.723 0-.29-.145-.434-.386-.29-.193.145-.386.434-.386.724z" fill="#1F2024"/><path d="M82.583 60.584c0 .145.096.193.193.145a.406.406 0 00.193-.338c0-.144-.097-.193-.193-.144a.406.406 0 00-.193.337z" fill="#1F2024"/><path d="M82.437 60.053l.193.482c.048.145.24.049.24-.096l.146-.675-.58.29z" fill="#0036AC"/><path d="M82.484 60.053l.193.482c.048.145.24.049.24-.096l.145-.675-.578.29z" fill="#FFB7B4"/><path d="M86.056 58.172l.193.483c.048.144.241.048.241-.097l.145-.675-.58.29z" fill="#0036AC"/><path d="M86.103 58.172l.193.483c.048.144.24.048.24-.097l.146-.675-.58.29z" fill="#FFB7B4"/><path d="M83.79 56.624c.097-.048.145-.048.242-.048h.048l.145.097-.049.144v.049c0 .289-.144.627-.386.723h-.048c0 .048-.048.097-.048.097l-.145-.097c-.096-.048-.096-.145-.096-.29-.048-.24.145-.578.337-.675z" fill="#2A2183"/><path d="M83.597 57.444c0 .29.145.434.386.29.193-.145.386-.434.386-.724s-.145-.434-.386-.29c-.193.097-.386.435-.386.724z" fill="#4B42AE"/><path d="M83.792 57.348c0 .145.096.193.193.145a.406.406 0 00.193-.338c0-.145-.097-.193-.193-.145a.406.406 0 00-.193.338z" fill="#2A2183"/><path d="M80.123 58.458c.096-.048.144-.048.24-.048h.049l.145.097-.049.144v.049c0 .289-.144.627-.385.723h-.049c0 .048-.048.097-.048.097l-.145-.097c-.096-.048-.096-.145-.096-.29 0-.24.145-.578.338-.675z" fill="#1F2024"/><path d="M79.927 59.276c0 .29.145.434.386.29.193-.145.386-.434.386-.724s-.144-.434-.386-.29c-.193.146-.386.435-.386.724z" fill="#1F2024"/><path d="M80.122 59.18c0 .145.096.193.193.145a.406.406 0 00.193-.338c0-.145-.097-.193-.193-.145a.406.406 0 00-.193.338z" fill="#1F2024"/><path d="M79.98 58.7l.193.482c.048.145.24.048.24-.097l.146-.675-.58.29z" fill="#0036AC"/><path d="M80.027 58.7l.193.482c.048.145.24.048.24-.097l.146-.675-.58.29z" fill="#FFB7B4"/><path d="M83.599 56.817l.193.482c.048.145.241.048.241-.096l.145-.676-.58.29z" fill="#1D45AA"/><path d="M83.646 56.817l.193.482c.048.145.24.048.24-.096l.146-.676-.58.29z" fill="#15327D"/><path d="M83.937 57.25c0 .049 0 .049.048.049s.048-.048.048-.096c0-.049 0-.049-.048-.049s-.048.048-.048.097z" fill="#0F2559"/><path d="M81.329 60.726c.193 0 .434-.048.627-.145l4.727-2.604a.104.104 0 00.096-.097l.58-1.785c.048-.096.096-.192 0-.24l-1.303-.772c-.096-.049-.193 0-.29.048-.048.096 0 .193.049.29l1.157.674-.578 1.544-4.68 2.556a1.019 1.019 0 01-.916 0l-1.06-.627c-.097-.048-.145-.144-.145-.29 0-.096.048-.192.144-.288l4.341-2.557c.097-.048.145-.193.049-.29-.049-.096-.193-.144-.29-.048l-4.341 2.557c-.241.145-.338.337-.338.627 0 .241.145.482.338.627l1.061.627c.338.145.579.193.772.193z" fill="#FFB7B4"/><path d="M81.33 60.486c.192 0 .433-.048.626-.144l4.727-2.557a.104.104 0 00.097-.096l.53-1.785c.049-.097.194-.193.097-.241l-1.302-.772c-.097-.048-.193 0-.29.048-.048.097 0 .193.049.29l.964.675-.386 1.543-4.678 2.557a1.02 1.02 0 01-.917 0l-1.061-.627c-.097-.048-.145-.145-.145-.29 0-.096.048-.192.145-.289l4.341-2.556c.097-.049.145-.193.048-.29-.048-.096-.193-.145-.29-.048l-4.34 2.556c-.242.145-.338.338-.338.627 0 .242.145.483.338.628l1.06.627c.29.096.531.144.724.144zm5.834-7.236c.049 0 .145-.048.145-.096l.627-1.206c.048-.097 0-.193-.096-.242-.097-.048-.193 0-.242.097l-.626 1.206c-.049.096 0 .193.096.24.048-.047.096 0 .096 0zm-2.604-1.496c.05 0 .146-.048.146-.097l.627-1.205c.048-.097 0-.193-.097-.242-.096-.048-.193 0-.241.097l-.627 1.206c-.048.096 0 .193.096.24.049-.047.097 0 .097 0z" fill="#1F2024"/><path d="M84.656 50.162c0-.096.049-.24.145-.289.048 0 .048-.048.097 0l3.424 2.026-.24.434-3.426-1.978c.049-.096 0-.144 0-.193z" fill="#1F2024"/><path d="M88.082 52.189c0 .096.048.193.144.096.097-.048.145-.193.145-.29 0-.096-.048-.192-.145-.096-.048 0-.144.145-.144.29z" fill="#1F2024"/><path d="M84.027 51.225v2.942l3.28 1.881v-2.894l-3.28-1.93z" fill="#B77896"/><path d="M84.027 54.166l3.28 1.881-5.355 2.653-2.797-1.495 4.872-3.039z" fill="#1F2024"/><path d="M84.027 54.167l-4.871 3.039v-2.943l4.871-3.038v2.942z" fill="#C593AB"/><path d="M84.028 50.982l3.665 2.171-5.74 2.942-3.231-1.833 5.306-3.28zm-2.075 4.92l5.355-2.749-3.28-1.93-4.872 3.04 2.797 1.64z" fill="#FFB7B4"/><path d="M87.693 53.154v3.184l-5.74 2.99v-3.231l5.74-2.943z" fill="#1D42A7"/><path d="M87.693 53.154v3.184l-5.74 2.99v-3.231l5.74-2.943z" fill="#FFC6E1"/><path d="M81.953 59.326l-3.232-1.88v-3.184l3.232 1.833v3.231z" fill="#2453CB"/><path d="M81.953 59.326l-3.232-1.88v-3.184l3.232 1.833v3.231z" fill="#C07D9D"/><defs><linearGradient id="paint0_linear_673_11803" x1="-24.892" y1="35.624" x2="99.235" y2="-1.212" gradientUnits="userSpaceOnUse"><stop stop-color="#FFE2B2"/><stop offset=".524" stop-color="#E0C18F"/><stop offset=".885" stop-color="#FFE2B2"/><stop offset="1" stop-color="#FFE2B2"/></linearGradient></defs></svg>