<svg width="83" height="83" fill="none" xmlns="http://www.w3.org/2000/svg"><path d="M56.52 9.565l-7.334-4.261C44.3 2.447 37.51 2.858 30.034 7.17 15.158 15.758 3.14 36.584 3.192 53.67c.017 8.5 3.018 14.464 7.853 17.267l7.597 4.42-.052-.039c4.9 2.883 11.7 2.498 19.213-1.838C52.68 64.89 64.698 44.088 64.65 26.993c-.026-8.65-3.137-14.684-8.13-17.427zm-6.283-1.653c-3.38-.109-7.178.823-11.212 2.914 4.03-2.097 7.831-3.026 11.212-2.914zm1.798.164c-.129-.019-.255-.044-.386-.062.131.016.256.043.386.062zM23.668 24.191c-7.483 9.583-12.533 21.839-12.83 32.769.295-10.934 5.344-23.189 12.83-32.769zM12.025 66.58c-.016-.051-.029-.107-.047-.16.016.053.03.109.047.16zm3.294 6.006l.09.109c-.032-.035-.06-.073-.09-.109z" fill="#7E5AF2"/><path d="M56.787 9.722C51.9 6.865 45.108 7.26 37.633 11.59c-14.876 8.587-26.895 29.393-26.84 46.498.015 8.48 3.016 14.464 7.851 17.267l-7.6-4.422c-4.834-2.8-7.835-8.764-7.852-17.264-.055-17.087 11.966-37.91 26.842-46.499 7.475-4.313 14.267-4.724 19.154-1.867l7.6 4.418z" fill="#E094B8"/><path d="M37.627 11.593C52.505 3.001 64.601 9.897 64.65 26.991c.048 17.095-11.97 37.896-26.847 46.487C22.936 82.06 10.84 75.18 10.79 58.084c-.048-17.094 11.97-37.907 26.836-46.49z" fill="#FFC6E1"/><path d="M60.447 28.892v1.038c0 7.074-2.75 15.01-6.247 21.193l-.622 1.08a55.914 55.914 0 01-4.028 5.915l-.767.954a48.666 48.666 0 01-4.588 4.857l-.871.768a34.042 34.042 0 01-5.085 3.695l-.894.519c-1.845 1.037-3.652 1.784-5.395 2.262l-.851.207c-1.406.334-2.854.46-4.297.374l-.768-.063a10.905 10.905 0 01-2.782-.663 8.58 8.58 0 01-1.41-.623c-.34-.249-1.88-.939-3.571-3.112l-.436-.623c-2.006-2.962-2.806-6.934-2.843-10.484V55.15c0-4.417 1.202-9.604 2.761-13.719l.455-1.164c1.83-4.525 4.45-9.229 7.702-13.303l.768-.976c2.96-3.605 6.56-6.962 10.523-9.32l.892-.519c3.157-1.754 6.966-3.064 10.544-2.842l.52.062.27.02c1.514.167 2.906.623 4.15 1.308l.623.351c2.653 1.673 4.495 4.586 5.355 7.598l.25.871c.418 1.762.634 3.566.642 5.376z" fill="#E094B8"/><path d="M54.7 42.965l-.438 1.142c-2.707 6.702-5.404 10.188-8.469 14.28-2.75 3.388-6.483 6.915-10.522 9.32l-.894.52C31.185 70 27.48 71.293 23.833 71.068l-.58-.041a8.58 8.58 0 01-1.412-.623c-.338-.249-1.878-.939-3.57-3.112l-.436-.623c-2.006-2.962-2.806-6.934-2.843-10.484V55.15c0-4.417 1.202-9.604 2.761-13.719l.455-1.164c1.83-4.525 4.45-9.229 7.702-13.303l.768-.976c2.96-3.605 6.56-6.962 10.523-9.32l.892-.519c3.157-1.754 6.966-3.064 10.544-2.842l.52.062c.497.144.995.373 1.452.623l.602.373c2.73 1.72 4.464 4.501 5.375 7.598l.229.87c1.553 6.375.239 13.856-2.115 20.133z" fill="#fff"/><path d="M57.439 30.388v.02c-.021.54-.064 1.059-.104 1.578v.02c-.299 3.151-1.117 6.905-2.637 10.96l-.104.248-.332.894c-.083.227-.186.434-.29.663-1.517 3.71-3.727 7.604-6.02 10.814-1.886 2.595-1.57 2.048-2.159 2.803-2.311 2.849-5.154 5.533-7.347 7.16a17.09 17.09 0 01-1.309.954c-.622.436-1.245.83-1.867 1.206l-.893.518c-2.766 1.536-4.8 2.176-6.89 2.594-.433.083-.87.145-1.309.187a14.94 14.94 0 01-2.345.064l-.58-.043a8.58 8.58 0 01-1.412-.623c-.338-.249-1.878-.939-3.57-3.112l-.436-.623c-2.006-2.962-2.806-6.934-2.843-10.484V55.15c0-4.417 1.202-9.604 2.761-13.719l.455-1.164c1.83-4.525 4.45-9.229 7.702-13.303l.768-.976c2.96-3.605 6.56-6.962 10.523-9.32l.892-.519c3.157-1.754 6.966-3.064 10.544-2.842l.52.062c.497.144.995.373 1.452.623l.602.373c2.038 1.283 3.522 3.202 4.4 5.085.187.374.374.766.519 1.181.166.438.311.874.456 1.33l.229.872c.592 2.429.764 5.05.624 7.556z" fill="#fff"/><path d="M49.633 13.43l-1.452 3.713-1.204-.083 1.453-3.755h.207l.789.083c.063 0 .145.02.207.041zM28.69 67.685l-1.204 3.133c-.433.082-.87.145-1.308.187l1.308-3.447 1.204.127zm-10.73-14.51v1.536l-2.97 1.702v-1.515l2.97-1.722zM56.13 20.63l-2.013 2.51-.687-.995 2.18-2.698c.188.374.374.768.52 1.183zm-27.814 7.326l-1.037 1.287-1.494-2.117c.041-.062.083-.103.125-.166l.767-.975c.043-.06.091-.116.146-.166l1.494 2.137zm26.278 15.256l-.332.894c-.083.227-.187.434-.29.663l-2.305-.187.582-1.577 2.345.207zM38.323 19.448l-1.33.747v-3.404c.063-.042.144-.083.208-.125l.892-.519a.975.975 0 01.207-.103l.023 3.404zm.123 43.215v2.884c-.436.353-.872.664-1.31.954v-3.07l1.31-.768zm18.992-32.257c-.02.541-.064 1.06-.103 1.579v.02l-2.554 1.453V31.94l2.657-1.535zm-36.53 9.88l-.603 1.558-2.636-.208c.041-.063.063-.145.083-.207l.456-1.164a.755.755 0 01.083-.186l2.616.207zm.04 24.037l-2.532 3.133a.532.532 0 01-.144-.166l-.437-.623a1.82 1.82 0 01-.125-.207l2.533-3.133.706.996zM41.84 41.442l8.969-4.292-8.967 6.065c.073-.327.111-.651.111-.966a2.81 2.81 0 00-.111-.807h-.002zM39.2 23.48l1.38 16.886c-.394-.027-.847.09-1.332.369-.479.276-.927.68-1.318 1.157L39.2 23.48z" fill="#4C5C75"/><path d="M36.817 45.832c.102.268.39.694.575.854L25.3 61.323l-.569-.862 12.085-14.629z" fill="#F45170"/><path d="M39.249 40.573c.507-.292.984-.415 1.398-.388.634.043 1.116.442 1.326 1.134.077.245.118.53.12.849 0 .33-.042.67-.118 1.015-.347 1.548-1.426 3.14-2.709 3.88-.897.519-1.703.503-2.227.051a1.647 1.647 0 01-.454-.678 2.847 2.847 0 01-.165-.993c-.003-1.211.581-2.602 1.44-3.652.41-.501.884-.927 1.389-1.218z" fill="#E3E7F0"/><path d="M40.787 43.461c-.195.872-.803 1.767-1.526 2.186-.881.509-1.6.102-1.6-.913-.004-.682.325-1.464.808-2.056 1.223-1.493 2.735-1.078 2.318.783z" fill="#fff"/><path d="M79.806 63.327l-.041-13.408L68.7 43.486 64.177 46.1l-1.783 1.028-.21.123-1.575.907-4.565 2.637.012 3.176-2.746-1.596-4.523 2.611-1.612.93-.383.22-1.573.91-4.565 2.634.042 13.408L51.76 79.52l12.656-7.307-.01-3.176 2.744 1.596 12.656-7.306z" fill="#AA6256"/><path d="M56.045 50.795l11.066 6.43.042 13.408-11.067-6.429-.041-13.41z" fill="#AA6256"/><path d="M79.765 49.918l-12.654 7.307-11.066-6.431L68.7 43.488l11.064 6.43z" fill="#DBA660"/><path d="M79.766 49.918l.041 13.41-12.654 7.305-.042-13.408 12.655-7.307z" fill="#BF7D5A"/><path d="M60.61 48.157l3.567-2.06L75.24 52.53l-3.566 2.06-11.066-6.433z" fill="#F3F1FC"/><path d="M71.676 54.589v4.451l1.783-2.825 1.783.738V52.53" fill="#DEDFFB"/><path d="M62.184 47.25l.421-.244 11.065 6.43-.422.243-11.064-6.429z" fill="#E9E7FC"/><path d="M70.126 67.764v.367l-2.187 1.264v-.37l2.187-1.261zm-1.69-1.226l.479.455-.33.19.004 1.241-.305.176-.003-1.242-.322.185.477-1.005zm1.183-.682l.478.454-.319.185.003 1.242-.306.175-.003-1.242-.329.192.476-1.006zm2.108-.244c0-.045-.016-.06-.06-.045-.03.03-.061.075-.061.122v.3l-.857.496c0-.527.346-1.173.798-1.49v-.074c0-.077.044-.152.103-.197.061-.03.122 0 .122.075v.076a.547.547 0 01.527-.016c.166.09.27.287.27.589l-.842.48v-.316z" fill="#4C5C75"/><path d="M71.727 65.613v.316l-.121.06v-.3c0-.045.03-.09.06-.12.045-.016.06 0 .06.044z" fill="#4C5C75"/><path d="M71.742 66.879a.66.66 0 01-.301.51c-.165.092-.3.017-.3-.164 0-.046.03-.09.06-.121.029-.016.06 0 .06.045 0 .105.074.151.18.09.09-.044.166-.18.166-.287V65.69c0-.046.03-.091.06-.121.045-.016.061 0 .061.044v.316l.014.95z" fill="#4C5C75"/><path d="M40.654 59.68l11.065 6.43.041 13.408-11.064-6.429-.042-13.41z" fill="#AA6256"/><path d="M64.375 58.804l-12.656 7.308-11.065-6.431 12.655-7.306 11.066 6.43z" fill="#DBA660"/><path d="M64.375 58.803l.041 13.409-12.656 7.306-.041-13.408 12.656-7.307z" fill="#BF7D5A"/><path d="M45.22 57.045l3.566-2.059 11.067 6.43-3.568 2.059-11.064-6.43z" fill="#F3F1FC"/><path d="M56.285 63.474v4.451l1.783-2.825 1.785.737v-4.421" fill="#DEDFFB"/><path d="M46.793 56.137l.421-.244 11.065 6.43-.422.243-11.064-6.43z" fill="#E9E7FC"/><path d="M54.736 76.65v.367l-2.187 1.265v-.37l2.187-1.262zm-1.692-1.224l.479.453-.328.19.004 1.242-.307.176-.003-1.242-.321.185.476-1.004zm1.182-.683l.48.453-.32.185.003 1.242-.305.176-.005-1.242-.328.192.475-1.006zm2.109-.244c0-.045-.016-.06-.06-.045-.031.03-.06.075-.06.121v.3l-.859.497c0-.527.347-1.173.798-1.49v-.074c0-.077.045-.152.106-.197.06-.03.12 0 .12.075v.075a.546.546 0 01.526-.016c.166.091.272.288.272.59l-.843.48v-.316z" fill="#4C5C75"/><path d="M56.337 74.498v.316l-.12.06v-.3c0-.046.03-.09.06-.12.045-.017.06 0 .06.044z" fill="#4C5C75"/><path d="M56.351 75.764a.66.66 0 01-.301.51c-.166.091-.302.016-.302-.164 0-.046.032-.09.06-.121.031-.016.061 0 .061.044 0 .106.075.152.18.091.092-.044.167-.18.167-.287v-1.262c0-.047.03-.091.06-.122.045-.016.06 0 .06.045v.316l.015.95z" fill="#4C5C75"/><path d="M70.853 40.44l-11.066-6.43-4.523 2.611-1.573.908-.421.243-1.572.91-4.565 2.633.04 13.41 11.066 6.43 12.654-7.305-.04-13.41z" fill="#F9A83D"/><path d="M47.133 41.316l11.064 6.43.042 13.409-11.066-6.43-.04-13.409z" fill="#F9A83D"/><path d="M70.853 40.44l-12.657 7.306-11.063-6.429 12.654-7.307 11.066 6.43z" fill="#FFD06C"/><path d="M70.853 40.44l.04 13.407-12.654 7.307-.042-13.407 12.656-7.307z" fill="#FEBC1F"/><path d="M51.697 38.68l3.566-2.059 11.065 6.431-3.566 2.059-11.065-6.43z" fill="#F3F1FC"/><path d="M62.76 45.11v4.45l1.784-2.825 1.783.739V43.05" fill="#DEDFFB"/><path d="M53.27 37.772l.42-.243 11.066 6.43-.422.244-11.065-6.431z" fill="#E9E7FC"/><path d="M61.212 58.284v.369l-2.185 1.262v-.368l2.185-1.263zm-1.691-1.222l.48.451-.329.192.003 1.242-.304.175-.004-1.242-.322.185.476-1.003zm1.184-.685l.479.453-.32.185.004 1.244-.307.175-.003-1.242-.329.19.476-1.005zm2.108-.243c0-.044-.016-.06-.06-.044-.03.03-.06.074-.06.12v.3l-.858.497c0-.526.346-1.174.798-1.49v-.076c0-.075.045-.15.105-.194.06-.032.12 0 .12.075v.075a.548.548 0 01.527-.016c.166.09.271.287.271.587l-.843.482v-.316z" fill="#4C5C75"/><path d="M62.813 56.135v.316l-.122.06v-.301c0-.045.032-.09.061-.12.045-.016.06 0 .06.045z" fill="#4C5C75"/><path d="M62.828 57.399a.66.66 0 01-.3.51c-.166.092-.303.017-.303-.164 0-.044.032-.09.062-.12.03-.015.059 0 .059.045 0 .106.077.15.182.091.09-.046.164-.182.164-.287V56.21c0-.045.032-.09.06-.12.046-.016.062 0 .062.045v.316l.014.948z" fill="#4C5C75"/></svg>