<svg width="110" height="77" fill="none" xmlns="http://www.w3.org/2000/svg"><path opacity=".1" d="M87.668 40.623l-2.43 1.094-5.104-2.552S69.28 43.62 63.528 46.577c-.263.121-.526.263-.79.405L35.48 33.373 0 47.346l10.774 6.238c-.223-.101 17.861 8.181 0 0 36.07-.75 36.068-1.134 0 0L32.2 65.978c-.203.1 19.096-9.458 0 0l2.247 1.296 2.653-1.317v.02l21.608 10.815.73-.365 8.768.243 17.254-8.02c1.722-.81 3.423-1.66 5.104-2.571l12.96-7.068 2.532-5.812 3.2-1.458v-.304L87.668 40.623z" fill="#000"/><path d="M63.142 47.348L31.57 63.144V31.552l31.572-15.755v31.551z" fill="#B8A381"/><path d="M31.571 63.144L.02 47.348V15.797l31.55 15.776v31.571z" fill="#E0C18F"/><path d="M63.143 15.796L31.57 31.572.02 15.776 31.57 0l31.572 15.796z" fill="#FFE2B2"/><path d="M31.571 31.651L.02 15.855v-.06l.06-.041 31.491 15.755v.142z" fill="#E0B96C"/><path d="M31.57 31.651l31.572-15.796v-.06l-.06-.041L31.57 31.509v.142z" fill="#E0CCA4"/><path d="M31.57 35.459V31.57s-1.802 12.374 0 31.572v-4.941c-.688-10.39-.344-18.328 0-22.742z" fill="#946F47"/><path d="M31.57 61.461V32.178c-.345 4.415-.69 18.914 0 29.283z" fill="#6B4D2C"/><path d="M17.071 40.725l-4.536-2.288V22.135l4.536 2.268v16.322z" fill="#1F2024"/><path d="M12.514 22.136l4.556 2.268L48.946 8.689 44.389 6.4 12.514 22.136z" fill="#38393F"/><path d="M10.713 29.162l-7.96-2.33-.93-4.96L9.78 24.2l.932 4.962z" fill="#fff"/><path d="M3.886 26.345l-.202-.06-.608-3.22.203.06.607 3.22zm.224.061l-.102-.02-.608-3.22.102.02.607 3.22zm.222.061l-.101-.02-.608-3.22.101.02.608 3.22zm.222.081l-.1-.04-.608-3.22.101.02.607 3.24zm.223.06l-.101-.04-.608-3.22.102.04.607 3.22zm.324.082l-.202-.04-.608-3.22.203.04.607 3.22zm.851.262l-.08-.04-.608-3.22.08.04.608 3.22zm.243.062l-.101-.02-.608-3.22.081.02.628 3.22zm.304.101l-.182-.061-.608-3.22.182.06.608 3.22zm-1.074-.325l-.202-.06-.608-3.22.183.06.627 3.22zm.305.102l-.183-.06-.608-3.22.183.06.607 3.22zm1.093.305l-.182-.061-.608-3.22.182.06.608 3.22zm.222.061l-.102-.02-.607-3.22.101.02.608 3.22zm.222.079l-.1-.04-.608-3.22.1.04.608 3.22zm.223.063l-.081-.041-.628-3.22.102.04.607 3.22zm.223.059l-.081-.02-.628-3.22.101.02.608 3.22zm.325.101l-.182-.06-.608-3.22.182.06.608 3.22zm.87.243l-.101-.02-.608-3.22.101.02.608 3.22zm.222.06l-.1-.02-.608-3.22.101.02.608 3.22zm.325.103l-.203-.06-.607-3.22.202.06.608 3.22zm-1.095-.324l-.202-.06-.607-3.22.202.06.608 3.22zm.325.1l-.202-.061-.608-3.22.203.06.607 3.22z" fill="#2C323D"/><path d="M29.343 37.728l-9.984-5.002v-4.76l9.984 5.003v4.759z" fill="#fff"/><path d="M4.717 44.372L1.173 42.59c-.142-.06-.243-.02-.243.121v3.544c0 .142.1.284.243.365l3.544 1.782c.141.06.243.02.243-.122v-3.544c0-.141-.122-.303-.243-.364zm.04 3.625c0 .142-.101.182-.243.121l-3.159-1.58a.423.423 0 01-.243-.364v-3.159c0-.142.101-.182.243-.121l3.16 1.58c.14.06.242.222.242.364v3.159z" fill="#2C323D"/><path d="M2.287 46.436l-.223-.121v-2.43l.223.101v2.45z" fill="#2C323D"/><path d="M2.185 43.621l-.324.446.324.162.304.162-.304-.77zm1.62 3.565l-.223-.1v-2.451l.223.121v2.43z" fill="#2C323D"/><path d="M3.703 44.371l-.324.466.324.162.304.142-.304-.77zm-2.146 2.026v-.223L4.31 47.55v.223l-2.754-1.377zm7.941.363l-3.544-1.782c-.142-.06-.243-.02-.243.122v3.544c0 .142.101.284.243.364l3.544 1.783c.142.06.243.02.243-.122v-3.564c0-.122-.122-.284-.243-.344zm.04 3.626c0 .141-.1.182-.243.121l-3.159-1.58a.423.423 0 01-.243-.364v-3.16c0-.141.101-.181.243-.12l3.16 1.579c.141.06.242.223.242.364v3.16z" fill="#2C323D"/><path d="M8.547 48.52c-.304-.14-.547-.505-.547-.81v-1.255l1.094.547v1.255c0 .304-.243.426-.547.264z" fill="#2C323D"/><path d="M8.628 49.816l-.142-.06V48.44l.142.06v1.316z" fill="#2C323D"/><path d="M8.02 49.593c0-.061.06-.102.121-.061l.83.425c.061.04.122.122.122.182l-1.073-.546zm-1.68-3.968v1.256c0 .303.243.668.547.81.303.141.546.02.546-.264v-1.255l-1.093-.547zm.972 1.742c0 .243-.203.344-.425.222-.243-.121-.426-.405-.426-.648v-1.134l.871.425v1.135h-.02z" fill="#2C323D"/><path d="M6.948 48.986l-.122-.08v-1.297l.122.061v1.316z" fill="#2C323D"/><path d="M6.34 48.763c0-.061.06-.102.121-.061l.83.425c.061.04.122.122.122.182l-1.073-.546zm7.935.388l-3.544-1.782c-.142-.06-.243-.02-.243.122v3.544c0 .141.101.283.243.364l3.544 1.782c.142.061.243.02.243-.121v-3.544c0-.142-.121-.304-.243-.365zm.04 3.625c0 .142-.1.182-.242.122l-3.16-1.58a.423.423 0 01-.242-.364v-3.16c0-.141.1-.182.243-.121l3.159 1.58c.141.06.243.222.243.364v3.16z" fill="#2C323D"/><path d="M11.766 49.838c.101-.04.243-.02.385.04.141.081.283.203.384.344.102-.04.243-.02.385.041.142.081.284.203.385.344.101-.04.243-.02.385.04.04.021.06.041.101.062-.06-.669-.587-1.418-1.235-1.742-.648-.324-1.175-.101-1.236.506.02 0 .04.02.061.02.162.081.284.203.385.345z" fill="#2C323D"/><path d="M12.29 51.803c-.181-.1-.323-.303-.323-.486v-.06c0-.04.04-.061.06-.04a.11.11 0 01.061.1v.061c0 .101.081.243.203.284.101.06.202 0 .202-.102v-2.754c0-.04.04-.06.061-.04.04.02.06.06.06.101v2.754c0 .182-.14.264-.323.182zm20.941-48.32l-8.404 4.212-.243-.142 8.384-4.192.263.122zm.831.427L25.658 8.1l-.264-.121L33.8 3.768l.263.141zm.83.403l-8.404 4.212-.263-.142 8.404-4.192.263.122zm.81.404L27.318 8.93l-.263-.141 8.384-4.192.263.121zm-1.032 17.68l-8.404 4.212-.243-.142 8.384-4.192.264.122zm.832.426l-8.405 4.192-.263-.121 8.404-4.212.264.141zm.83.404l-8.405 4.212-.263-.142 8.404-4.192.264.122zm.809.404l-8.384 4.212-.263-.141 8.384-4.192.263.121z" fill="#2C323D"/><path d="M102.147 45.728l-13.71 6.866-8.283-4.152-35.318 16.384L66.829 74.91l17.254-8.02a99.805 99.805 0 005.103-2.572l12.961-7.068 3.909-8.505v-.304l-3.909-2.714z" fill="#D690B1"/><path d="M62.638 70.375l4.192 4.536L58 71.408l4.638-1.033z" fill="#936078"/><path d="M66.829 74.91l1.093-7.918-5.285 3.382 4.192 4.536zm35.318-17.656l-1.377-6.623 5.305-1.883-3.928 8.506z" fill="#C07D9D"/><path d="M84.469 37.954l21.608 10.794 3.2-1.438v-.303l-21.609-10.51-3.2 1.133v.324z" fill="#BF8B43"/><path d="M84.469 37.631l21.608 10.814 3.2-1.438-21.609-10.814-3.2 1.438z" fill="#FFC6E1"/><path d="M62.637 70.07v.304l5.285-3.382L100.77 50.63l5.306-1.883v-.304l-3.929-2.714-33.131 12.01-6.38 12.332z" fill="#C07D9D"/><path d="M37.1 61.545L58.708 72.36l3.928-1.984v-.304l-21.608-10.51-3.928 1.68v.304z" fill="#936078"/><path d="M37.1 61.242l21.608 10.815 3.928-1.985-21.608-10.814-3.928 1.984zm7.736-8.85L66.829 63.39l10.855-6.197a132.617 132.617 0 0112.697-6.36l11.786-5.123-21.993-10.996s-10.854 4.455-16.606 7.412c-6.358 3.26-18.732 10.267-18.732 10.267z" fill="#FFC6E1"/><path d="M41.027 59.258l3.808-6.865 21.992 10.996-4.192 6.683-21.608-10.814z" fill="#E094B8"/><path d="M53.16 67.884l1.843-1.134c.283-.182.527-.425.689-.729l3.361-6.217a.95.95 0 01.365-.385l2.774-1.68 2.147.992-2.856 1.822a.936.936 0 00-.344.345l-3.483 6.176a1.865 1.865 0 01-.608.648l-1.782 1.175-2.106-1.013z" fill="#C1E4B8"/><path d="M70.394 58.953l-4.03-2.026c-.142-.06-.142-.182 0-.242l7.837-3.909a.67.67 0 01.486 0l4.03 2.025c.142.06.142.182 0 .243l-7.837 3.909a.671.671 0 01-.486 0z" fill="#2C323D"/><path d="M78.332 55.025L70.9 58.752a.67.67 0 01-.486 0l-3.646-1.823c-.141-.06-.141-.182 0-.243l7.433-3.726a.671.671 0 01.486 0l3.645 1.822c.142.061.142.183 0 .243z" fill="#fff"/><path d="M71.103 58.22l-.284.142-3.26-1.64.283-.142 3.26 1.64zm1.701-.85l-.284.143-3.26-1.64.283-.142 3.26 1.64zm.203-.099l-.1.04-3.241-1.62.081-.06 3.26 1.64zm.183-.102l-.082.04-3.26-1.62.1-.04 3.241 1.62zm.95-.466l-.08.04-3.261-1.64.101-.04 3.24 1.64zm-2.735 1.357l-.141.08-3.24-1.64.141-.06 3.24 1.62zm2.209-1.093l-.283.141-3.26-1.64.303-.142 3.24 1.64zm.323-.163l-.141.06-3.26-1.62.14-.06 3.261 1.62zm-2.207 1.093l-.141.081-3.26-1.64.14-.06 3.261 1.62zm.303-.141l-.142.06-3.26-1.62.142-.08 3.26 1.64zm.324-.161l-.162.06-3.24-1.62.142-.06 3.26 1.62zm1.641-4.092l.304-.142 3.24 1.64-.284.142-3.26-1.64zm-1.699.852l.283-.142 3.26 1.64-.283.142-3.26-1.64zm-.203.1l.101-.04 3.24 1.62-.08.06-3.261-1.64zm-.182.101l.101-.04 3.24 1.62-.08.04-3.26-1.62zm-.954.467l.102-.04 3.24 1.64-.08.04-3.261-1.64zm2.735-1.358l.142-.081 3.26 1.64-.141.061-3.26-1.62zm-2.207 1.094l.284-.142 3.26 1.64-.283.142-3.26-1.64zm-.304.161l.141-.06 3.24 1.62-.141.06-3.24-1.62zm2.206-1.093l.142-.08 3.24 1.62-.141.08-3.24-1.62zm-.322.142l.142-.06 3.26 1.62-.141.08-3.26-1.64zm-.304.162l.141-.06 3.24 1.62-.141.06-3.24-1.62z" fill="#2C323D"/><path d="M75.86 43.785l-5.61-2.814c-.14-.061-.14-.183 0-.243l7.838-3.909a.67.67 0 01.486 0l5.61 2.815c.142.06.142.182 0 .243l-7.837 3.908a.67.67 0 01-.486 0z" fill="#961010"/><path d="M83.798 39.878l-7.432 3.727a.67.67 0 01-.486 0l-5.225-2.633c-.142-.06-.142-.182 0-.243l7.432-3.726a.67.67 0 01.486 0l5.225 2.632c.142.061.142.162 0 .243z" fill="#fff"/><path d="M77.865 37.75l-6.4 3.2-.182-.08 6.4-3.2.182.08zm.425.202l-6.399 3.2-.182-.081 6.4-3.2.182.081zm.404.225l-6.4 3.2-.161-.101 6.4-3.2.161.101zm.426.202l-6.399 3.2-.182-.102 6.4-3.2.182.102zm.404.202l-6.4 3.2-.161-.081 6.4-3.2.161.081zm2.696.548l-4.03 2.005-.182-.081 4.03-2.026.182.102zm.404.202l-4.03 2.025-.182-.101 4.05-2.005.162.081zm.426.203l-4.03 2.025-.182-.08 4.03-2.026.182.081z" fill="#2C323D"/><path d="M81.005 38.582l-7.27 3.645.08.04 7.29-3.645-.1-.04z" fill="#961010"/><path d="M51.903 49.82l-.324-.06c-.06 0-.101.02-.08.04l.12.162-.323-.06c-.061 0-.102.02-.081.04l.121.162-.324-.06c-.06 0-.101.02-.08.04l.12.162-.323-.061c-.061 0-.102.02-.081.04l.121.163-.324-.061c-.06 0-.101.02-.08.04l.12.162-.323-.06c-.061 0-.102.02-.081.04l.121.162-.324-.06c-.06 0-.101.02-.08.04l.12.162-.323-.06c-.061 0-.102.02-.081.04l.121.162-.324-.061c-.06 0-.101.02-.08.04l.12.162-.323-.06c-.061 0-.102.02-.081.04l.121.162-.324-.06c-.06 0-.101.02-.08.04l.12.162-.323-.06c-.061 0-.102.02-.081.04l.121.162-.324-.061c-.06 0-.101.02-.08.04l.12.162-.323-.06c-.061 0-.102.02-.081.04l.121.162-.324-.06c-.06 0-.101.02-.081.04l.121.162-.323-.06c-.061 0-.102.02-.081.04l.121.162 8.06 4.03.324.06c.06 0 .101-.02.081-.04l-.121-.162.324.06c.06 0 .1-.02.08-.04l-.121-.162.324.06c.06 0 .101-.02.081-.04l-.121-.162.324.061c.06 0 .1-.02.08-.04l-.12-.162.323.06c.06 0 .101-.02.081-.04l-.121-.162.324.06c.06 0 .1-.02.08-.04l-.12-.162.323.06c.06 0 .101-.02.081-.04l-.121-.162.324.061c.06 0 .1-.02.08-.04l-.12-.162.323.06c.06 0 .101-.02.081-.04l-.121-.162.324.06c.06 0 .1-.02.08-.04l-.12-.162.323.06c.061 0 .102-.02.081-.04l-.121-.162.324.061c.06 0 .101-.02.08-.04l-.12-.162.323.06c.061 0 .102-.02.081-.04l-.121-.162.324.06c.06 0 .101-.02.08-.04l-.12-.162.323.06c.061 0 .102-.02.081-.04l-.121-.162.324.061c.06 0 .101-.02.08-.04l-.12-.163-8.06-4.03z" fill="#fff"/><path d="M53.503 52.94c-.931.465-.931 1.215 0 1.68.932.466 2.43.466 3.362 0 .932-.465.932-1.215 0-1.68-.931-.466-2.43-.446-3.362 0zm3.18 1.6c-.83.425-2.187.425-3.038 0-.83-.426-.83-1.094 0-1.52.83-.425 2.187-.425 3.038 0 .85.426.85 1.114 0 1.52z" fill="#259940"/><path d="M53.545 54.033l-.162-.08 2.106-1.074.182.101-2.126 1.053zm.465.242l-.182-.1 2.127-1.054.182.081-2.127 1.073zm.465.223l-.182-.101 2.126-1.053.183.08-2.127 1.074zm.467.222l-.182-.08 2.106-1.074.182.102-2.106 1.053zm-5.062-2.975l-.183-.081 2.511-1.256.162.081-2.49 1.256zm.445.222l-.182-.08 2.51-1.256.183.08-2.511 1.256zm.465.243l-.183-.1 2.512-1.257.182.102-2.511 1.255zm.467.222l-.183-.08 2.511-1.256.183.08-2.511 1.256z" fill="#259940"/></svg>