<svg width="382" height="402" fill="none" xmlns="http://www.w3.org/2000/svg"><path d="M145.411 354.912l-9.339-5.354 6.724-3.86c3.486-1.993 4.109-4.981 4.109-6.476 0-1.494-.498-4.482-4.109-6.475l-16.811-9.712c-1.867-1.121-4.109-1.619-6.599-1.619-2.491 0-4.732.498-6.6 1.619l-11.331 6.599-58.774-33.994c-1.868-1.12-4.109-1.619-6.6-1.619-2.49 0-4.731.499-6.599 1.619L5.45 309.462c-2.117 1.245-3.487 2.366-4.359 3.736-.996 1.618-1.37 3.735-.871 6.226l12.452 62.26c.747 3.113 3.113 5.852 6.973 8.094l16.81 9.712c1.868 1.121 4.11 1.619 6.6 1.619 2.49 0 4.731-.498 6.6-1.619l47.815-27.643 13.947 8.094c1.867 1.12 4.109 1.618 6.599 1.618 2.491 0 4.732-.498 6.6-1.618l20.795-12.079c3.486-1.992 4.109-4.981 4.109-6.475-.125-1.494-.623-4.358-4.109-6.475zm-92.644 2.74l-2.74-14.071 13.574 7.844-10.834 6.227zm186.283-99.491c-4.233-2.74-8.841-5.479-13.821-8.343a609.12 609.12 0 00-14.818-8.219c-6.351-3.237-13.2-5.977-20.671-7.969a96.526 96.526 0 00-23.41-3.237h-1.12c-7.721 0-15.69.996-23.659 2.988-8.468 2.117-16.935 5.479-25.278 10.335-8.592 4.981-14.569 9.962-18.429 15.192-3.985 5.479-5.977 11.082-5.728 16.561.25 5.479 2.366 10.709 6.35 15.565 3.612 4.483 8.468 8.592 14.32 12.328a530.202 530.202 0 0014.196 8.592c5.105 2.864 9.961 5.603 14.569 7.969 6.35 3.237 13.199 5.977 20.67 7.969 7.471 2.117 15.316 3.113 23.41 3.238h1.121c7.72 0 15.689-.996 23.659-2.989 8.467-2.117 16.934-5.479 25.277-10.335 8.592-4.981 14.694-9.962 18.429-15.191 3.985-5.479 5.977-11.083 5.728-16.562-.249-5.479-2.366-10.709-6.35-15.565-3.86-4.483-8.592-8.592-14.445-12.327zm-28.639 32.873c-.374.623-1.619 1.992-4.981 3.985-2.74 1.619-5.479 2.739-8.094 3.237-2.117.498-4.109.747-6.102.747h-1.618c-2.491-.124-5.106-.622-7.472-1.494-2.615-.871-5.105-1.992-7.72-3.362-9.339-4.856-18.18-9.962-26.398-15.191-2.242-1.37-3.985-2.74-5.355-4.11-.996-.996-1.618-1.992-1.743-2.739 0-.125-.124-.623.498-1.619.374-.622 1.619-1.992 4.981-3.984 2.739-1.619 5.479-2.74 8.094-3.238 1.992-.498 3.984-.623 5.852-.623.623 0 1.245 0 1.744.125 2.49.249 4.98.747 7.471 1.494a61.163 61.163 0 017.845 3.238c9.09 4.731 17.931 9.837 26.398 15.316 2.241 1.369 4.109 2.864 5.479 4.233.996.872 1.494 1.868 1.619 2.615.124-.249.249.249-.498 1.37zm167.48-70.229l-9.339-5.355 6.724-3.86c3.487-1.992 4.109-4.981 4.109-6.475 0-1.494-.498-4.483-4.109-6.475l-16.81-9.713c-1.868-1.12-4.11-1.618-6.6-1.618-2.49 0-4.732.498-6.6 1.618l-11.331 6.6-58.774-33.994c-1.867-1.121-4.109-1.619-6.599-1.619-2.491 0-4.732.498-6.6 1.619l-24.032 13.822c-2.117 1.245-3.487 2.365-4.358 3.735-.997 1.619-1.37 3.736-.872 6.226l12.452 62.261c.747 3.113 3.113 5.852 6.973 8.093l16.81 9.713c1.868 1.121 4.11 1.619 6.6 1.619 2.49 0 4.732-.498 6.6-1.619l47.815-27.644 13.947 8.094c1.868 1.121 4.109 1.619 6.599 1.619 2.491 0 4.732-.498 6.6-1.619l20.795-12.078c3.486-1.993 4.109-4.981 4.109-6.475-.124-1.619-.623-4.483-4.109-6.475zm-92.643 2.615l-2.74-14.071 13.573 7.845-10.833 6.226z" fill="#E0E0E0"/><path d="M141.176 342.96l-20.795 12.078c-1.121.623-2.615.997-4.358.997-1.744 0-3.113-.374-4.234-.997l-16.188-9.339-50.181 28.889c-1.121.623-2.615.996-4.359.996-1.743 0-3.113-.373-4.358-.996l-16.81-9.713c-2.74-1.618-4.358-3.362-4.732-5.105L2.709 297.634c-.125-.373-.125-.747-.125-1.12v17.433c0 .249 0 .622.125.996l12.452 62.135c.374 1.868 1.992 3.612 4.732 5.106l16.81 9.712c1.12.623 2.615.997 4.358.997 1.744 0 3.113-.374 4.358-.997l50.182-28.888 16.188 9.339c1.121.622 2.615.996 4.234.996 1.743 0 3.113-.374 4.358-.996l20.795-12.079c1.121-.622 1.743-1.494 1.743-2.49v-17.309c.125.997-.498 1.744-1.743 2.491z" fill="#B8A381"/><path d="M140.428 335.49v-17.308c0 .996-.622 1.867-1.743 2.49l-13.697 7.845 14.818 8.467c.373-.373.622-.871.622-1.494zm-94.884-2.368l10.335 5.977 15.067-8.592-29.387-16.935 3.985 19.55z" fill="#796A53"/><path opacity=".2" d="M141.175 342.961L120.38 355.04c-1.12.622-2.614.996-4.358.996v17.308c1.744 0 3.113-.373 4.358-.996l20.795-12.079c1.121-.622 1.744-1.494 1.744-2.49v-17.308c.124.996-.498 1.743-1.744 2.49zM45.42 374.588c-.997.623-2.367.996-3.86.996v17.309a7.732 7.732 0 003.86-.997l50.18-28.888v-17.309l-50.182 28.889z" fill="#000"/><path d="M120.381 354.914c-1.121.622-2.615.996-4.358.996-1.743 0-3.113-.374-4.234-.996l-16.187-9.339-50.182 29.013c-1.12.623-2.615.996-4.358.996-1.744 0-3.113-.373-4.234-.996l-16.81-9.713c-2.74-1.618-4.359-3.362-4.732-5.105L2.834 297.634c-.25-1.245-.125-2.117.373-2.864.374-.622 1.37-1.369 2.74-2.241l24.032-13.822c1.12-.623 2.615-.996 4.358-.996 1.744 0 3.113.373 4.234.996l61.14 35.239 13.697-7.844c1.121-.623 2.615-.997 4.358-.997 1.744 0 3.113.374 4.358.997l16.811 9.712c1.12.623 1.743 1.494 1.743 2.491 0 .996-.623 1.867-1.743 2.49l-13.698 7.845 16.188 9.339c1.121.622 1.743 1.494 1.743 2.49 0 .996-.622 1.868-1.743 2.491l-21.044 11.954zm-49.434-24.531l-29.387-16.81 6.101 30.258 23.285-13.448z" fill="#E0C18F"/><path d="M253.244 266.13c-.124 4.109-1.743 8.468-4.856 12.826-3.362 4.607-9.09 9.339-17.059 13.822-7.969 4.607-15.939 7.844-24.033 9.837a98.273 98.273 0 01-23.659 2.864c-7.72-.125-15.067-1.121-22.164-3.113-7.098-1.993-13.697-4.483-19.799-7.596-4.607-2.366-9.339-4.981-14.32-7.845s-9.588-5.728-13.946-8.467c-5.355-3.487-9.837-7.347-13.199-11.332-3.362-4.109-5.23-8.342-5.355-12.825.125 2.739-.124 14.32 0 17.308.125 4.483 1.868 8.717 5.355 12.826 3.362 4.109 7.844 7.845 13.199 11.331 4.358 2.74 8.965 5.604 13.946 8.468a621.09 621.09 0 0014.32 7.969c6.102 3.113 12.701 5.603 19.799 7.596 7.097 1.992 14.569 2.988 22.164 3.113 7.721.124 15.566-.872 23.659-2.864 8.094-1.993 16.064-5.23 24.033-9.837 7.969-4.608 13.697-9.215 17.059-13.822 3.362-4.608 4.981-9.215 4.856-13.698-.124-2.739.125-12.701 0-16.561z" fill="#B8A381"/><path opacity=".2" d="M253.244 266.131c-.124 4.109-1.743 8.467-4.856 12.826-3.362 4.607-9.09 9.339-17.059 13.821-7.97 4.608-15.939 7.845-24.033 9.837a97.26 97.26 0 01-19.425 2.74v17.308a97.257 97.257 0 0019.425-2.739c8.094-1.993 16.063-5.23 24.033-9.837 7.969-4.608 13.697-9.215 17.059-13.822 3.362-4.607 4.981-9.215 4.856-13.697-.124-2.615.125-12.577 0-16.437z" fill="#000"/><path d="M137.44 256.915c.872.872 1.868 1.868 3.114 2.74.498-.374 1.12-.747 1.618-.997 3.238-1.867 6.351-3.113 9.339-3.735 3.113-.623 6.102-.872 8.966-.623 2.864.249 5.728.747 8.592 1.744a80.865 80.865 0 018.467 3.486c9.215 4.856 18.18 9.962 26.772 15.441 1.121.747 2.117 1.369 3.113 2.117 2.241-1.495 3.86-2.864 4.856-4.359 1.121-1.743 1.619-3.486 1.246-5.23-.374-1.743-1.246-3.362-2.989-4.98-1.619-1.619-3.736-3.238-6.35-4.857-8.592-5.479-17.558-10.584-26.772-15.44-2.864-1.37-5.728-2.615-8.468-3.487-2.864-.996-5.728-1.494-8.592-1.743-2.864-.249-5.977 0-8.965.623-3.113.622-6.226 1.992-9.339 3.735-3.113 1.868-5.355 3.611-6.475 5.479-1.121 1.743-1.619 3.487-1.246 5.23a16.69 16.69 0 003.113 4.856z" fill="#796A53"/><path d="M116.77 226.532c7.969-4.608 15.939-7.845 24.032-9.838 8.094-1.992 15.939-2.864 23.659-2.739 7.721.125 15.067 1.121 22.165 3.113 7.098 1.992 13.697 4.483 19.674 7.596 4.732 2.49 9.713 5.23 14.694 8.094 4.981 2.864 9.588 5.603 13.697 8.218 5.354 3.487 9.837 7.347 13.199 11.456 3.362 4.109 5.23 8.343 5.355 12.825.124 4.483-1.495 8.966-4.857 13.698-3.362 4.607-9.09 9.339-17.059 13.822-7.969 4.607-15.939 7.844-24.033 9.837-8.093 1.992-15.938 2.864-23.658 2.739-7.721-.124-15.067-1.121-22.165-3.113-7.098-1.992-13.697-4.483-19.799-7.596-4.607-2.366-9.339-4.98-14.32-7.844a418.884 418.884 0 01-14.071-8.468c-5.354-3.486-9.837-7.347-13.199-11.456-3.362-4.109-5.23-8.343-5.354-12.825-.125-4.483 1.494-8.966 4.856-13.698 3.611-4.607 9.215-9.214 17.184-13.821zm87.662 31.005c-8.591-5.479-17.557-10.584-26.771-15.44-2.864-1.37-5.728-2.615-8.468-3.487-2.864-.996-5.728-1.494-8.592-1.743-2.864-.249-5.977 0-8.965.747-3.113.623-6.226 1.868-9.339 3.736-3.238 1.867-5.355 3.611-6.475 5.478-1.121 1.744-1.619 3.487-1.246 5.23.374 1.744 1.37 3.362 2.989 4.981 1.619 1.619 3.611 3.238 6.226 4.856a285.17 285.17 0 0026.772 15.441c2.739 1.494 5.603 2.739 8.343 3.611 2.864.996 5.728 1.494 8.716 1.743 2.989.125 5.977 0 9.09-.747 3.113-.622 6.226-1.868 9.339-3.735 3.238-1.868 5.355-3.611 6.475-5.479 1.121-1.744 1.619-3.487 1.245-5.23-.373-1.743-1.245-3.362-2.988-4.981-1.619-1.743-3.736-3.362-6.351-4.981z" fill="#E0C18F"/><path d="M373.656 208.724l-20.795 12.078c-1.121.623-2.615.996-4.358.996-1.743 0-3.113-.373-4.234-.996l-16.187-9.339-50.182 28.889c-1.121.622-2.615.996-4.358.996-1.744 0-3.113-.374-4.359-.996l-16.81-9.713c-2.739-1.619-4.358-3.362-4.732-5.105l-12.452-62.136c-.124-.374-.124-.747-.124-1.121v17.433c0 .249 0 .623.124.996l12.452 62.136c.374 1.868 1.993 3.611 4.732 5.105l16.81 9.713c1.121.623 2.615.996 4.359.996 1.743 0 3.113-.373 4.358-.996l50.182-28.889 16.187 9.339c1.121.623 2.615.997 4.234.997 1.743 0 3.113-.374 4.358-.997l20.795-12.078c1.121-.623 1.743-1.494 1.743-2.491v-17.308c0 .996-.498 1.868-1.743 2.491z" fill="#B8A381"/><path d="M372.909 201.254v-17.309c0 .996-.623 1.868-1.744 2.491l-13.697 7.845 14.818 8.467c.374-.374.623-.872.623-1.494zm-94.885-2.368l10.335 5.977 14.943-8.592-29.263-16.935 3.985 19.55z" fill="#796A53"/><path opacity=".2" d="M373.656 208.727l-20.795 12.078c-1.121.623-2.615.996-4.358.996v17.309c1.743 0 3.113-.374 4.358-.996l20.795-12.079c1.121-.622 1.743-1.494 1.743-2.49v-17.309c0 .996-.498 1.868-1.743 2.491zM277.9 240.354c-.996.622-2.366.996-3.86.996v17.308a7.726 7.726 0 003.86-.996l50.182-28.889v-17.308L277.9 240.354z" fill="#000"/><path d="M352.861 220.804c-1.12.622-2.615.996-4.358.996-1.743 0-3.113-.374-4.234-.996l-16.187-9.339-50.182 28.889c-1.121.622-2.615.996-4.358.996-1.744 0-3.113-.374-4.234-.996l-16.81-9.713c-2.74-1.619-4.358-3.362-4.732-5.105L235.314 163.4c-.249-1.245-.125-2.117.374-2.864.373-.623 1.369-1.37 2.739-2.241l24.032-13.822c1.121-.623 2.615-.996 4.359-.996 1.743 0 3.113.373 4.233.996l61.14 35.239 13.697-7.845c1.121-.622 2.615-.996 4.358-.996 1.744 0 3.113.374 4.359.996l16.81 9.713c1.121.622 1.743 1.494 1.743 2.49 0 .996-.622 1.868-1.743 2.491l-13.697 7.844 16.187 9.34c1.121.622 1.744 1.494 1.744 2.49 0 .996-.623 1.868-1.744 2.49l-21.044 12.079zm-49.559-24.531l-29.262-16.934 6.101 30.258 23.161-13.324z" fill="#E0C18F"/><path d="M243.16 353.417a2.35 2.35 0 01.996-.249c.373 0 .747.125.996.249l4.109 2.366a.686.686 0 01.374.623.684.684 0 01-.374.622l-18.429 10.585a2.355 2.355 0 01-.996.249 2.35 2.35 0 01-.996-.249l-25.153-14.569a.685.685 0 01-.374-.623c0-.249.124-.498.374-.622l18.18-10.46c.249-.125.622-.249.996-.249.373 0 .747.124.996.249l4.109 2.366a.684.684 0 01.374.622.686.686 0 01-.374.623l-11.954 6.973 4.234 2.366 11.082-6.475a2.34 2.34 0 01.996-.249c.374 0 .747.124.996.249l4.11 2.366a.683.683 0 01.373.622.684.684 0 01-.373.623l-11.083 6.475 4.359 2.491 12.452-6.974zm6.101-19.674c.249-.124.623-.249.996-.249.374 0 .747.125.997.249l3.984 2.242a.684.684 0 01.374.622.686.686 0 01-.374.623l-3.486 1.992c-2.366 1.37-2.366 2.74 0 4.109l9.588 5.479a.685.685 0 01.373.623.683.683 0 01-.373.622l-4.857 2.864a2.336 2.336 0 01-.996.249 2.34 2.34 0 01-.996-.249l-18.18-10.459a.685.685 0 01-.373-.623c0-.249.124-.498.373-.623l4.483-2.615a2.35 2.35 0 01.996-.249c.374 0 .747.125.996.249l.872.499c0-.623.249-1.37.747-1.993.498-.747 1.245-1.369 2.49-2.117l2.366-1.245zm18.802-10.834a2.36 2.36 0 01.997-.249c.373 0 .747.125.996.249l3.984 2.242a.684.684 0 01.374.622.686.686 0 01-.374.623l-3.486 1.992c-2.366 1.37-2.366 2.74 0 4.109l9.588 5.479a.686.686 0 01.374.623.684.684 0 01-.374.622l-4.856 2.864a2.34 2.34 0 01-.997.249 2.34 2.34 0 01-.996-.249l-18.18-10.459a.685.685 0 01-.373-.623c0-.249.124-.498.373-.623l4.483-2.614a2.34 2.34 0 01.996-.25c.374 0 .747.125.996.25l.872.498c0-.623.249-1.37.747-2.117.498-.747 1.245-1.37 2.491-1.993l2.365-1.245zm33.497-9.338c.373.249.872.498 1.494.872.623.373 1.121.622 1.494.871 1.246.747 2.117 1.619 2.615 2.491.623.871.872 1.867.747 2.864-.124.996-.498 1.992-1.369 2.988a12.648 12.648 0 01-3.611 2.864c-1.619.872-3.238 1.619-4.981 2.117a18.968 18.968 0 01-5.23.747c-1.743 0-3.362-.124-4.981-.374-1.619-.373-3.113-.871-4.358-1.494-.374-.249-.872-.498-1.494-.871-.623-.374-1.121-.623-1.495-.872-1.245-.747-2.116-1.619-2.739-2.49-.623-.872-.747-1.868-.747-2.864.124-.997.498-1.993 1.37-2.989.747-.996 1.992-1.992 3.611-2.864 1.618-.872 3.237-1.619 4.98-2.117a18.968 18.968 0 015.23-.747c1.744 0 3.362.125 4.981.374 1.743.249 3.238.747 4.483 1.494zm-11.332 9.713c1.121.498 2.242.747 3.363.747 1.245 0 2.365-.374 3.362-.996.996-.623 1.618-1.246 1.618-1.993.125-.747-.373-1.37-1.245-1.992a10.905 10.905 0 00-1.245-.747c-.498-.249-.996-.498-1.37-.747-1.12-.498-2.241-.748-3.362-.748-1.245 0-2.366.374-3.362.997-.996.622-1.619 1.245-1.619 1.992-.124.747.374 1.37 1.246 1.992.373.249.747.498 1.245.747.498.374.871.623 1.369.748zm21.418-25.527c.249-.125.622-.249.996-.249.373 0 .747.124.996.249l3.985 2.241a.685.685 0 01.373.623.683.683 0 01-.373.622l-3.487 1.993c-2.366 1.369-2.366 2.739 0 4.109l9.588 5.479a.684.684 0 01.374.622.685.685 0 01-.374.623l-4.856 2.864a2.34 2.34 0 01-.996.249c-.374 0-.747-.124-.996-.249l-18.18-10.46a.684.684 0 01-.374-.622c0-.249.125-.498.374-.623l4.482-2.615c.249-.124.623-.249.997-.249.373 0 .747.125.996.249l.871.498c0-.622.249-1.369.747-1.992.499-.747 1.246-1.37 2.491-2.117l2.366-1.245z" fill="#796A53"/><path d="M186.876 134.887c1.121-5.106-19.549 6.848-20.67 11.954l6.6 17.931c.249.622.622.996 1.12 1.245 1.495.871 6.849 3.984 7.347 4.234 1.494.871 3.611.373 4.234-1.619l8.592-29.512c.498-2.615-7.223-4.233-7.223-4.233z" fill="#A06C85"/><path d="M251.378.778L79.166 100.146c-1.495.871-2.74 2.988-2.74 4.856v94.636c0 1.743 1.245 3.86 2.74 4.732l1.743.996c1.494.871 3.985.871 5.603 0l172.212-99.492c1.495-.872 2.74-2.989 2.74-4.857V6.507c0-1.744-1.245-3.86-2.74-4.732l-1.743-.997c-1.619-.996-4.109-.996-5.603 0z" fill="#C07D9D"/><path d="M261.464 6.506v1.12a2.568 2.568 0 00-3.86-2.24L87.509 103.632c-1.245.623-2.117 1.619-2.74 2.74v.124l-7.47-4.358a6.514 6.514 0 011.991-2.117L251.502.654c1.495-.872 3.985-.872 5.604 0l1.743.996c1.37.872 2.615 3.113 2.615 4.856z" fill="#FFC6E1"/><path d="M258.848 6.012c-.249 0-.498.124-.747.249L88.006 104.507c-1.992 1.121-3.362 3.363-3.362 5.728v92.27c0 .498.125 1.743 1.12 1.743.374 0 .748-.124 1.246-.373l88.285-50.929 5.479 15.316c1.121 2.49 4.607 2.241 5.354-.249l7.472-25.651 63.505-36.609c2.241-1.37 3.362-2.615 3.362-4.359V7.755c0-1.12-.872-1.743-1.619-1.743z" fill="#fff"/><path d="M85.765 205.243c-1.245 0-2.117-1.121-2.117-2.74v-92.269c0-2.74 1.494-5.23 3.86-6.6L257.603 5.387a2.405 2.405 0 011.245-.373c1.246 0 2.491.996 2.491 2.49v93.64c0 2.739-2.242 4.233-3.86 5.229l-63.132 36.485L187 168.136c-.498 1.618-1.868 2.615-3.487 2.739-1.618.125-3.113-.872-3.735-2.366l-5.105-14.195-87.29 50.306c-.498.374-.996.623-1.618.623zM258.848 7.006c-.124 0-.249 0-.249.125L88.504 105.377c-1.743.996-2.864 2.864-2.864 4.857v92.269c0 .498.125.747.125.747s.249 0 .747-.249l89.281-51.551 5.977 16.437c.374.871 1.121 1.12 1.743 1.12.623 0 1.37-.373 1.744-1.369l7.596-26.025.373-.249 63.506-36.609c2.49-1.495 2.864-2.615 2.864-3.487V7.628c-.125-.497-.623-.622-.748-.622z" fill="#C07D9D"/><path d="M103.945 134.263c.125-2.989.498-5.977 1.246-8.841.747-2.989 1.743-5.853 3.113-8.468 1.369-2.615 2.988-5.105 4.856-7.347 1.868-2.241 4.109-3.984 6.599-5.478 2.491-1.37 4.608-2.117 6.6-2.117 1.868 0 3.487.622 4.856 1.743 1.37 1.121 2.366 2.739 3.113 4.856.747 2.117 1.121 4.608 1.246 7.472.124 2.241.124 4.482.124 6.973 0 2.49 0 4.731-.124 6.848-.125 2.989-.499 5.977-1.246 8.841-.747 2.989-1.743 5.853-3.113 8.468-1.369 2.739-2.988 5.105-4.856 7.346-1.868 2.242-4.109 3.985-6.6 5.355-2.49 1.494-4.731 2.117-6.599 2.117-1.868 0-3.487-.498-4.856-1.744-1.37-1.12-2.366-2.739-3.113-4.98-.748-2.117-1.121-4.608-1.246-7.472-.124-2.117-.124-4.358-.124-6.724 0-2.241 0-4.607.124-6.848zm22.165.622c0-.996.125-1.992.125-3.113v-6.973c0-1.121-.125-2.117-.125-2.989-.125-1.245-.249-2.365-.498-3.237a5.032 5.032 0 00-1.245-2.117c-.498-.498-1.121-.747-1.993-.747-.747 0-1.743.249-2.739.872-.996.622-1.992 1.369-2.74 2.241-.747.872-1.369 1.868-1.992 2.988-.498 1.121-.872 2.242-1.245 3.487-.249 1.245-.498 2.49-.498 3.86-.125.872-.125 1.993-.125 3.113v6.973c0 1.121 0 2.117.125 2.989.124 2.49.747 4.358 1.743 5.479.996 1.12 2.615 1.12 4.607-.125 2.117-1.245 3.611-2.988 4.608-5.23 1.245-2.241 1.743-4.731 1.992-7.471zm40.843-26.149v5.977a39.888 39.888 0 01-1.121 7.596c-.622 2.615-1.618 4.981-2.739 7.347-1.121 2.366-2.615 4.358-4.234 6.35-1.618 1.868-3.486 3.487-5.603 4.607-1.992 1.246-3.86 1.744-5.604 1.868-1.618 0-3.113-.373-4.233-1.369-1.121-.997-2.117-2.366-2.74-4.11-.622-1.743-.996-3.86-1.12-6.35v-5.977c0-2.491.373-4.981 1.12-7.596.623-2.615 1.619-4.981 2.74-7.347 1.245-2.366 2.615-4.482 4.233-6.35 1.619-1.868 3.487-3.487 5.604-4.608 1.992-1.12 3.86-1.743 5.603-1.743 1.619 0 3.113.498 4.234 1.37 1.245.996 2.117 2.366 2.739 4.109.748 1.743 1.121 3.86 1.121 6.226zm-18.304 16.188c.124 1.868.622 3.237 1.369 3.86.872.623 1.868.623 3.238-.249 1.37-.747 2.366-1.992 3.237-3.487.872-1.618 1.246-3.362 1.37-5.479.125-.871.125-1.743.125-2.739 0-.996 0-1.868-.125-2.615-.124-1.868-.622-3.237-1.37-3.86-.871-.623-1.867-.623-3.237.249-1.37.747-2.491 1.992-3.238 3.487-.871 1.618-1.245 3.362-1.369 5.478-.125.872-.125 1.744-.125 2.74 0 .996 0 1.868.125 2.615zm38.974-4.109a6.894 6.894 0 01-2.615.996c-.747.125-1.369.125-1.867 0-.498-.124-.996-.373-1.37-.747-.374-.374-.623-.623-.872-.996v16.561c0 .623-.124 1.121-.373 1.743-.249.623-.623.997-.996 1.121l-6.351 3.611c-.374.249-.747.249-.996-.124-.249-.249-.374-.623-.374-1.246V90.805c0-.622.125-1.12.374-1.743.249-.622.622-.996.996-1.12l6.102-3.487c.373-.25.747-.249.996.124.249.25.373.623.373 1.246v1.743c.249-.747.623-1.37.996-2.241.374-.748.748-1.495 1.37-2.242a14.842 14.842 0 011.868-2.241c.747-.747 1.743-1.37 2.739-1.992 1.495-.872 2.989-1.37 4.234-1.37 1.37-.125 2.491.373 3.487 1.245.996.872 1.868 2.241 2.49 4.11.623 1.867.996 4.357.996 7.346v6.226c-.124 3.113-.373 5.977-.996 8.467-.622 2.615-1.494 4.857-2.49 6.974-.996 2.116-2.242 3.86-3.487 5.354-1.37 1.494-2.739 2.739-4.234 3.611zm2.242-20.048a25.562 25.562 0 000-4.358c-.125-1.743-.498-3.113-1.121-4.11-.623-.995-1.743-.995-3.362-.124-.747.374-1.37.996-1.868 1.619a9.751 9.751 0 00-1.369 2.241c-.374.748-.623 1.62-.872 2.49-.249.872-.374 1.62-.374 2.491-.124.872-.124 1.744-.124 2.74 0 .996 0 1.867.124 2.615.125.747.249 1.369.374 1.992.249.623.498 1.121.872 1.494.373.374.747.623 1.369.623.498 0 1.121-.125 1.868-.623 1.619-.871 2.739-2.241 3.362-3.984.623-1.495.996-3.238 1.121-5.106zm28.64-10.709c0-.622-.125-.996-.374-1.12-.249-.125-.623-.125-1.245 0-.623.124-1.37.373-2.366.747-.996.373-2.241.747-3.736 1.245-2.615.747-4.482.374-5.852-.996s-2.117-3.86-2.117-7.347c0-1.743.249-3.611.872-5.354.622-1.868 1.369-3.611 2.366-5.355a22.987 22.987 0 013.735-4.856 22.989 22.989 0 014.856-3.736c1.744-.996 3.362-1.618 4.857-1.867 1.494-.25 2.739-.125 3.86.249 1.121.373 1.868 1.12 2.49 1.992.623.996.996 2.117.996 3.362 0 .498-.124 1.12-.373 1.743a2.604 2.604 0 01-.996 1.245l-5.977 3.487c-.374.25-.623.25-.872.125l-.747-.374a1.934 1.934 0 00-1.245-.124c-.498 0-1.121.249-1.993.747-.747.498-1.369.996-1.992 1.619a3.382 3.382 0 00-.747 2.116c0 .623.125.997.249 1.121.125.249.498.249.996.124.498-.124 1.245-.373 2.117-.622.872-.374 2.117-.747 3.611-1.245 3.113-.996 5.23-.623 6.724.871 1.37 1.62 2.117 3.985 2.117 7.098a17.32 17.32 0 01-.872 5.479c-.622 1.868-1.369 3.736-2.49 5.479-1.121 1.743-2.49 3.486-3.985 5.105-1.618 1.619-3.362 2.989-5.354 4.109-1.992 1.121-3.736 1.868-5.354 1.993-1.495.124-2.864 0-3.861-.498-.996-.498-1.867-1.246-2.365-2.242-.498-.996-.872-2.117-.997-3.237 0-.498.125-1.121.374-1.744.249-.622.623-.996.996-1.245l6.226-3.61c.374-.25.623-.25.747 0 .125.248.374.373.623.497.249.125.622.25 1.121.25.498 0 1.245-.25 2.241-.872.996-.623 1.868-1.246 2.615-2.117.747-.623 1.121-1.495 1.121-2.242zm22.787-19.798c0 .623-.125 1.12-.374 1.743s-.623.996-.996 1.121l-6.351 3.611c-.373.25-.747.25-.996-.124-.249-.25-.373-.623-.373-1.246V41.87c0-.622.124-1.12.373-1.743s.623-.996.996-1.12l6.351-3.612c.373-.249.747-.249.996.125.249.249.374.622.374 1.245V70.26zm0 16.686c0 .622-.125 1.12-.374 1.743s-.623.996-.996 1.12l-6.351 3.612c-.373.249-.747.249-.996-.125-.249-.249-.373-.622-.373-1.245v-7.845c0-.622.124-1.12.373-1.743s.623-.996.996-1.12l6.351-3.612c.373-.249.747-.249.996.125.249.249.374.622.374 1.245v7.845z" fill="#1F2024"/></svg>