<svg width="144" height="49" fill="none" xmlns="http://www.w3.org/2000/svg"><path d="M144 42.052a6.586 6.586 0 01-1.864 4.602 6.297 6.297 0 01-4.502 1.906H6.366a6.296 6.296 0 01-4.502-1.906A6.584 6.584 0 010 42.052V6.907C0 5.18.67 3.525 1.864 2.305A6.295 6.295 0 016.366.398h131.268c1.689 0 3.308.686 4.502 1.907A6.586 6.586 0 01144 6.907v35.145z" fill="#1F2024"/><mask id="a" style="mask-type:luminance" maskUnits="userSpaceOnUse" x="10" y="10" width="28" height="32"><path d="M31.206 21.603l-6.492-3.834-12.522-7.395c-.696-.409-1.391-.161-1.391.697v30.124c0 .645.495.921 1.1.576l12.813-7.565 6.492-3.832 6.24-3.696c.731-.431.661-1.024.044-1.364-.616-.34-6.284-3.71-6.284-3.71z" fill="#fff"/></mask><g mask="url(#a)"><path d="M10.805 9.674v32.614l16.084-16.307L10.805 9.674z" fill="url(#paint0_linear_637_9368)"/><path d="M31.208 21.604l-6.493-3.835-13.91-8.212v.118l16.084 16.307 4.319-4.378z" fill="url(#paint1_linear_637_9368)"/><path d="M10.805 42.29v.12l13.91-8.215 6.493-3.831-4.32-4.382L10.806 42.29z" fill="url(#paint2_linear_637_9368)"/><path d="M31.207 21.604l-4.318 4.378 4.318 4.381 7.422-4.381-7.422-4.378z" fill="url(#paint3_linear_637_9368)"/></g><path d="M112.069 32.352a3.9 3.9 0 01-1.656-.343 3.125 3.125 0 01-1.255-1.05h-.104c.067.521.102 1.047.104 1.574v3.906h-1.408V22.697h1.126l.197 1.298h.068c.316-.482.751-.87 1.261-1.125a3.758 3.758 0 011.65-.346c1.231 0 2.181.43 2.849 1.29.668.86 1.002 2.065 1.002 3.615 0 1.56-.339 2.771-1.019 3.633a3.46 3.46 0 01-1.258.985 3.379 3.379 0 01-1.557.305zm-.203-8.61c-.948 0-1.634.267-2.058.803-.422.538-.639 1.39-.65 2.562v.322c0 1.344.216 2.297.65 2.862.436.575 1.126.863 2.092.863.37.012.738-.073 1.068-.247.329-.173.61-.43.815-.746.455-.666.682-1.581.682-2.746 0-1.18-.228-2.09-.682-2.72a2.261 2.261 0 00-.842-.722 2.21 2.21 0 00-1.075-.228v-.003zm7.305 8.438h-1.407V18.716h1.407V32.18zm8.084.001l-.282-1.35h-.067a3.9 3.9 0 01-1.383 1.207 4.11 4.11 0 01-1.723.316c-.921 0-1.642-.242-2.162-.725-.524-.487-.783-1.175-.783-2.07 0-1.919 1.502-2.923 4.505-3.011l1.574-.052v-.575c0-.743-.155-1.293-.47-1.647-.316-.354-.828-.559-1.515-.559a6.014 6.014 0 00-2.624.726l-.419-1.088c.475-.26.98-.46 1.503-.596a6.396 6.396 0 011.639-.216c1.105 0 1.924.25 2.457.751.535.504.8 1.307.8 2.415v6.474h-1.05zm-3.176-1.013a2.814 2.814 0 002.061-.734 2.73 2.73 0 00.587-.95 2.78 2.78 0 00.162-1.111v-.864l-1.408.058c-1.126.043-1.923.219-2.415.535-.242.153-.439.37-.569.628a1.63 1.63 0 00-.172.838 1.501 1.501 0 00.462 1.186c.366.293.824.44 1.289.414h.003zm5.026-8.473h1.507l2.032 5.41c.335.87.612 1.764.828 2.673h.068c.076-.287.228-.797.461-1.51.234-.715 1.003-2.902 2.298-6.573h1.509l-3.987 10.806c-.396 1.068-.858 1.825-1.385 2.272a2.893 2.893 0 01-1.943.67 5.59 5.59 0 01-1.269-.146v-1.152c.342.072.692.107 1.041.104.967 0 1.655-.554 2.064-1.661l.518-1.35-3.742-9.543zm-43.065.883a3.33 3.33 0 011 1.172c.24.466.368.982.376 1.508 0 1.465-.814 2.162-1.63 2.815-.254.26-.544.536-.544.973a1.103 1.103 0 00.504.864l.701.555c.845.735 1.628 1.411 1.628 2.778 0 1.866-1.766 3.742-5.102 3.742-2.815 0-4.172-1.37-4.172-2.838 0-.714.349-1.727 1.495-2.42 1.202-.755 2.832-.864 3.705-.913-.282-.357-.583-.734-.583-1.347.007-.27.074-.535.194-.775a6.84 6.84 0 01-.622.038c-2.055 0-3.218-1.566-3.218-3.112.01-.508.126-1.008.34-1.467.214-.459.522-.865.902-1.193 1.106-.932 2.424-1.09 3.474-1.09h3.995l-1.242.713-1.202-.003zm-1.38 8.809a3.005 3.005 0 00-.445-.02 7.58 7.58 0 00-2.039.319c-.425.158-1.666.633-1.666 2.044 0 1.41 1.337 2.42 3.415 2.42 1.86 0 2.852-.915 2.852-2.144 0-1.013-.628-1.546-2.118-2.62zm.563-3.768c.339-.397.513-.914.484-1.44 0-1.439-.845-3.65-2.444-3.65a1.776 1.776 0 00-.748.178 1.815 1.815 0 00-.609.479 2.34 2.34 0 00-.428 1.468c0 1.33.758 3.532 2.427 3.532a1.95 1.95 0 001.318-.576v.009zm-11.398 3.444a4.48 4.48 0 01-1.798-.31 4.562 4.562 0 01-1.536-1.002 4.68 4.68 0 01-1.031-1.536 4.764 4.764 0 01-.362-1.827c0-2.59 2.072-4.813 5.02-4.813a4.442 4.442 0 011.774.328c.565.23 1.078.573 1.51 1.01.431.436.773.957 1.004 1.532.23.574.346 1.19.34 1.81 0 2.338-1.762 4.808-4.921 4.808zm2.42-1.603a3.66 3.66 0 00.584-2.2c0-1.744-.814-5.072-3.218-5.072a2.66 2.66 0 00-1.743.677c-.754.69-.892 1.563-.892 2.415 0 1.96.951 5.181 3.296 5.181.382.002.76-.088 1.102-.26.342-.173.64-.425.872-.736v-.005zm-12.92 1.603c-3.096 0-4.73-2.455-4.73-4.675 0-2.59 2.076-4.813 5.02-4.813a4.442 4.442 0 011.776.328c.564.23 1.077.573 1.509 1.01a4.64 4.64 0 011.004 1.532c.23.574.347 1.19.34 1.81 0 2.338-1.763 4.808-4.919 4.808zm2.422-1.603c.421-.65.625-1.422.58-2.2 0-1.744-.814-5.072-3.215-5.072a2.66 2.66 0 00-1.738.683c-.757.69-.892 1.563-.892 2.415 0 1.96.949 5.181 3.294 5.181.382 0 .758-.091 1.1-.265.342-.174.64-.426.87-.737v-.005zm-8.629 1.299l-2.787.656c-1.06.2-2.135.313-3.212.34-5.375 0-7.422-4.045-7.422-7.211 0-3.863 2.903-7.444 7.87-7.444 1.007.001 2.01.142 2.98.417a7.529 7.529 0 012.571 1.235L55.5 21.324l-.681.158.487-.797c-.662-.657-1.87-1.871-4.167-1.871-3.077 0-5.394 2.392-5.394 5.875 0 3.742 2.65 7.268 6.892 7.268a5.696 5.696 0 002.475-.498v-3.204l-2.94.159 1.557-.864h4.13l-.506.498a.452.452 0 00-.194.317c-.023.181-.04.76-.04.958v2.436z" fill="#F9F9F9"/><path d="M92.194 31.199c-.642-.06-.777-.179-.777-.956V18.83c.079-.697.281-.818.878-1.178h-2.767l-1.462.72h1.49v12.294c0 .398-.076.458-.524 1.054h3.446l.71-.435c-.33-.043-.662-.06-.994-.086zm7.927.17c-.212.118-.425.256-.637.354a4.42 4.42 0 01-1.877.377 4.07 4.07 0 01-2.574-.771c-1.37-.99-1.97-2.692-1.97-4.174 0-3.066 2.438-4.569 4.428-4.569a3.688 3.688 0 011.993.553 3.26 3.26 0 011.352 1.955l-4.55 1.882-1.49.121c.485 2.51 2.149 3.973 3.987 3.973a4.912 4.912 0 002.36-.691l-1.022.99zm-1.816-5.895c.366-.139.563-.257.563-.533 0-.792-.87-1.701-1.915-1.701-.777 0-2.224.613-2.224 2.749 0 .334.037.69.056 1.048l3.52-1.563zm3.685-2.753v1.307h-.158v-1.307h-.422v-.135h1v.135h-.42zm1.738 1.309v-1.32l-.405 1.32h-.121l-.397-1.32v1.32h-.141v-1.44h.239l.361 1.151.352-1.151h.245v1.44h-.133z" fill="#F9F9F9"/><path d="M47.58 14.216h-.967a6.726 6.726 0 00-.281-1.152h-1.408a5.963 5.963 0 00-.281 1.152h-.913c0-.078.237-.74.707-1.978.282-.667.518-1.352.707-2.053h1.143c.172.685.386 1.358.639 2.016.258.657.476 1.33.653 2.015zm-1.409-1.728c-.343-1.065-.518-1.64-.518-1.727h-.045a18.15 18.15 0 01-.535 1.727h1.098zm5.296 1.728h-.749c0-.082-.281-.528-.844-1.338-.58-.864-.913-1.44-.994-1.747h-.048c.048.407.073.816.076 1.226 0 .51.014 1.13.042 1.86h-.743c.031-.64.045-1.34.045-2.105 0-.765-.014-1.393-.045-1.92h.898c0 .11.249.545.746 1.307.371.509.678 1.063.915 1.65h.045c-.045-.411-.07-.825-.073-1.238 0-.559-.014-1.134-.042-1.727h.757c-.028.51-.042 1.151-.042 1.92 0 .768.028 1.488.056 2.113zm4.383-2.149a2.333 2.333 0 01-.562 1.535 1.93 1.93 0 01-.699.506 1.89 1.89 0 01-.844.147c-.299 0-.71 0-1.233-.037.024-.622.037-1.324.04-2.105 0-.75-.014-1.39-.04-1.92h1.253c.726 0 1.255.188 1.582.559.325.357.505.827.504 1.315zm-.827.133c.01-.365-.11-.721-.338-1.002a1.259 1.259 0 00-1.033-.406c-.12.002-.24.012-.358.029.02.412.031.843.031 1.292 0 .45 0 .982.028 1.466.13.026.262.04.395.04a1.137 1.137 0 00.963-.412c.212-.29.323-.645.312-1.007zm4.868 2.017h-.895a6.27 6.27 0 00-.538-1.35.708.708 0 00-.605-.257h-.335c0 .53 0 1.065.028 1.604H56.7a50.749 50.749 0 000-4.024h1.436c.927 0 1.39.324 1.388.972.004.244-.072.481-.215.675a1.063 1.063 0 01-.576.396v.05a.945.945 0 01.535.486c.242.466.45.95.622 1.448zm-1.126-2.844c0-.41-.256-.616-.774-.616a2.608 2.608 0 00-.502.043c.023.32.034.737.034 1.249h.282c.63.011.951-.219.951-.674l.009-.002zm5.461.759c.022.58-.18 1.146-.563 1.575a1.843 1.843 0 01-.637.47c-.243.107-.506.16-.77.155a1.739 1.739 0 01-.73-.142 1.79 1.79 0 01-.608-.434 2.055 2.055 0 01-.538-1.46 2.24 2.24 0 01.563-1.571 1.84 1.84 0 01.637-.47 1.8 1.8 0 01.771-.155 1.76 1.76 0 011.337.576 2.057 2.057 0 01.538 1.457zm-.844.093a1.637 1.637 0 00-.319-1.051.983.983 0 00-.794-.412.906.906 0 00-.422.109.93.93 0 00-.326.294 1.649 1.649 0 00-.31 1.025c-.016.378.1.749.327 1.048a.976.976 0 00.797.403.902.902 0 00.748-.409c.211-.29.32-.646.31-1.007h-.011zm2.552 1.991h-.844c.028-.64.04-1.339.04-2.105 0-.765 0-1.393-.04-1.92h.844a52.314 52.314 0 000 4.024zm4.386-2.149a2.334 2.334 0 01-.564 1.535 1.93 1.93 0 01-.698.506 1.89 1.89 0 01-.844.147c-.299 0-.71 0-1.233-.037.026-.622.039-1.324.039-2.105 0-.75-.013-1.39-.04-1.92h1.254c.727 0 1.254.187 1.582.559.326.357.506.827.505 1.315zm-.825.133c.01-.365-.11-.721-.338-1.002a1.263 1.263 0 00-1.025-.406 2.791 2.791 0 00-.355.029c.02.412.028.843.028 1.292 0 .45 0 .982.031 1.466.13.026.262.04.395.04a1.137 1.137 0 00.962-.412c.21-.291.316-.646.302-1.007zm6.64 2.016h-.966a6.452 6.452 0 00-.281-1.152H73.48a6.25 6.25 0 00-.282 1.152h-.909c0-.078.234-.74.707-1.978.281-.664.516-1.348.704-2.047h1.145c.171.685.385 1.358.64 2.015s.472 1.328.65 2.01zm-1.408-1.745a17.478 17.478 0 01-.518-1.727h-.048c0 .08-.18.656-.535 1.727h1.101zm4.947-1.223c.013.214-.03.429-.124.62a1.195 1.195 0 01-.414.471c-.395.246-.852.37-1.315.354h-.203c0 .386 0 .898.031 1.532h-.844c.026-.593.038-1.295.036-2.105 0-.742-.012-1.382-.036-1.92h1.517c.343-.011.681.082.971.268a.912.912 0 01.38.78zm-.78.17c0-.44-.282-.662-.859-.662a2.547 2.547 0 00-.453.046c.022.391.03.832.03 1.324.06.003.119.003.178 0 .724.006 1.092-.23 1.092-.708h.012zm4.396-.169c.014.214-.028.428-.122.62a1.194 1.194 0 01-.413.47c-.396.247-.854.37-1.318.355h-.202c0 .385 0 .898.033 1.531h-.844c.026-.593.04-1.294.04-2.104 0-.743-.014-1.383-.04-1.92h.526l.414-.014h.563c.343-.012.68.081.971.267a.89.89 0 01.3.344c.068.14.1.295.092.45zm-.78.17c0-.44-.282-.663-.859-.663a2.565 2.565 0 00-.453.046c.023.392.034.832.034 1.325.058.003.116.003.174 0 .738.005 1.104-.23 1.104-.709zm6.712.713c.022.58-.18 1.146-.563 1.575a1.846 1.846 0 01-.637.469 1.81 1.81 0 01-.77.155 1.733 1.733 0 01-.728-.141c-.23-.1-.437-.247-.607-.434a2.057 2.057 0 01-.54-1.46 2.255 2.255 0 01.562-1.571 1.85 1.85 0 01.638-.47 1.81 1.81 0 01.77-.155c.25-.005.498.044.728.143.23.099.438.246.61.433a2.057 2.057 0 01.538 1.456zm-.844.092a1.62 1.62 0 00-.324-1.05.998.998 0 00-.342-.299.973.973 0 00-.435-.113.91.91 0 00-.752.403c-.22.298-.332.664-.318 1.036-.017.378.098.749.324 1.048a.984.984 0 00.797.403.903.903 0 00.751-.409c.212-.294.32-.653.307-1.019h-.008zm4.942 1.992h-.746c0-.083-.282-.53-.845-1.339-.58-.864-.912-1.44-.99-1.747h-.049c.048.407.074.816.076 1.226 0 .51 0 1.128.043 1.86h-.746c.03-.64.044-1.339.044-2.105 0-.765-.013-1.393-.044-1.92h.898c0 .11.25.545.749 1.307.37.51.677 1.065.915 1.652h.044a12.13 12.13 0 01-.073-1.237c0-.559-.014-1.135-.042-1.728h.757a36.03 36.03 0 00-.042 1.92c0 .77.023 1.486.05 2.11z" fill="#FCFCFD"/><defs><linearGradient id="paint0_linear_637_9368" x1="18.845" y1="9.674" x2="18.845" y2="42.288" gradientUnits="userSpaceOnUse"><stop stop-color="#2079B0"/><stop offset=".32" stop-color="#4A98B5"/><stop offset=".78" stop-color="#81BFBC"/><stop offset="1" stop-color="#97CFBF"/></linearGradient><linearGradient id="paint1_linear_637_9368" x1="10.802" y1="17.769" x2="31.208" y2="17.769" gradientUnits="userSpaceOnUse"><stop stop-color="#5ABCAB"/><stop offset="1" stop-color="#E6E99A"/></linearGradient><linearGradient id="paint2_linear_637_9368" x1="21.005" y1="25.982" x2="21.005" y2="42.41" gradientUnits="userSpaceOnUse"><stop stop-color="#E53432"/><stop offset=".18" stop-color="#D43745"/><stop offset=".73" stop-color="#A33E7C"/><stop offset="1" stop-color="#904192"/></linearGradient><linearGradient id="paint3_linear_637_9368" x1="32.759" y1="21.604" x2="32.759" y2="30.363" gradientUnits="userSpaceOnUse"><stop stop-color="#F18779"/><stop offset=".64" stop-color="#F9B574"/><stop offset="1" stop-color="#FDCB72"/></linearGradient></defs></svg>