<svg width="263" height="47" fill="none" xmlns="http://www.w3.org/2000/svg"><path d="M14.007 12.844c1.609-.852 3.115-2.396 3.115-5.19 0-1.79-1.495-6.435-8.327-6.435H0V25.07h8.798c9.222-.008 9.33-6.159 9.33-6.414 0-2.823-1.416-4.813-4.121-5.813zm-5.053-1.062H4.337v-8.57h3.965c2.79 0 4.532 1.764 4.532 4.597-.014 2.894-2.385 3.973-3.88 3.973zM4.337 13.77h3.617c.223 0 5.492.054 5.492 4.722 0 4.26-4.47 4.435-4.648 4.441H4.337V13.77zm15.392 11.293h2.515l1.937-4.325h10.962l1.983 4.325h4.767L30.673.58 19.73 25.063zm5.381-6.415l4.476-10 4.58 10H25.11zm27.056-7.76c-2.55-1.3-5.416-2.774-5.416-4.867 0-1.74 1.91-3.092 3.555-3.092 2.747 0 4.506 1.343 5.229 3.995l.09.33h2.008l-.101-.532C56.766 2.698 54.384.736 50.274.736c-1.983 0-7.11 1.156-7.11 6.438 0 4.126 4.09 6.227 6.532 7.482l.122.063c3.863 1.987 5.48 3.177 5.48 5.275 0 .032-.048 3.252-4.087 3.252-.85 0-5.132-.236-5.874-4.859l-.06-.377h-1.94l.07.51c.664 4.678 3.329 6.95 8.144 6.95 5.58 0 7.608-4.058 7.608-6.785.006-3.166-1.827-5.207-6.993-7.797zm25.939-2.795c0-2.987-1.445-5.02-4.294-6.048-2.3-.83-5.06-.82-6.883-.826h-4.045V25.07h4.336V14.75c.567 0 1.216 0 1.89-.025l7.313 10.339h4.957L73.607 14.24c2.985-.965 4.498-3.032 4.498-6.148zm-5.592 3.371a3.62 3.62 0 01-.589.542 4.082 4.082 0 01-1.518.534c-.38.06-.765.089-1.15.088h-2.022V3.212h2.022c.416 0 4.093.136 4.249 4.881a8.207 8.207 0 01-.114 1.497 5.005 5.005 0 01-.385 1.136 2.683 2.683 0 01-.493.738zM83.49 25.063h2.516l1.937-4.325h10.962l1.982 4.325h4.765L94.435.58 83.49 25.063zm5.382-6.415l4.475-10 4.58 10h-9.055zm25.696 6.415h2.513l1.94-4.325h10.962l1.983 4.325h4.769L125.51.58l-10.942 24.483zm5.382-6.415l4.473-10 4.583 10h-9.056zm32.362-.126L142.676.17l-2.85 24.892h2.309l1.569-13.667 7.503 14.167 8.288-15.337 2.563 14.837h3.725l.637-.148L162.192.318l-9.88 18.204zm17.208 6.541h2.515l1.937-4.325h10.962l1.983 4.325h4.767L180.464.58 169.52 25.063zm5.381-6.415l4.476-10 4.58 10h-9.056zm41.31-17.429h-18.658v2.306h11.758l-14.885 21.538h20.66v-2.309h-13.76L216.211 1.22zm12.613-.504c-5.555 0-11.486 3.246-11.486 12.36 0 7.761 4.291 12.396 11.486 12.396 7.194 0 11.485-4.635 11.485-12.395 0-9.115-5.934-12.361-11.485-12.361zm0 22.79c-4.283 0-6.838-3.898-6.838-10.43 0-6.431 2.62-10.43 6.838-10.43 4.217 0 6.84 3.999 6.84 10.43 0 6.532-2.549 10.43-6.84 10.43zM260.698 1.25v15.745L244.031.631v24.432h2.303V9.286l16.667 16.396V1.25h-2.303zM17.156 43.85c-.144.284-1.461 2.476-4.843 2.476-3.626 0-5.739-2.772-5.739-6.208 0-3.436 2.113-6.21 5.739-6.21 3.43 0 4.73 2.272 4.86 2.493l-.39.4c-3.722-4.48-8.16-1.513-8.16 3.312 0 4.432 4.42 7.806 8.128 3.34l.405.397zm12.798-3.813c0 4.319-2.566 6.21-5.739 6.21-3.172 0-5.738-1.891-5.738-6.21 0-4.172 2.569-6.193 5.738-6.193 3.17 0 5.739 1.987 5.739 6.193zm-1.949 0c0-3.83-1.7-5.657-3.79-5.657s-3.787 1.855-3.787 5.657c0 3.944 1.7 5.654 3.787 5.654 2.088 0 3.79-1.71 3.79-5.654zm11.106 2.914c0 1.239-.909 3.294-3.721 3.294-2.23 0-3.66-.962-4-3.407h.535c.357 2.232 2.213 2.723 3.283 2.723 1.904 0 2.36-1.337 2.36-1.925 0-1.255-1.026-1.94-2.977-2.95-1.235-.634-3.331-1.679-3.331-3.715 0-2.592 2.549-3.123 3.461-3.123 2.266 0 3.22 1.204 3.544 2.916h-.593c-.243-.897-.894-2.249-2.942-2.249-1.009 0-2.082.815-2.082 1.84 0 1.207 1.447 1.974 2.943 2.74 2.838 1.429 3.52 2.44 3.52 3.856zm14.517 3.081h-1.74l-1.415-8.181-4.422 8.18-4.045-7.643-.878 7.644h-.733l1.365-11.926 4.863 9.257 5.022-9.258 2.048 11.913-.065.014zm8.862-.619v.619h-7.494V34.106h7.495v.618h-5.705v4.726h4.762v.735h-4.762v5.23l5.705-.002zm11.171-10.579h-3.934v11.197h-1.79V34.834h-3.949v-.732h9.673v.732zm3.264 11.198h-1.626V34.106h1.626v11.926zM89.4 43.85c-.148.284-1.465 2.476-4.844 2.476-3.626 0-5.742-2.772-5.742-6.208 0-3.436 2.116-6.21 5.742-6.21 3.427 0 4.73 2.272 4.86 2.493l-.39.4c-3.725-4.48-8.16-1.513-8.16 3.312 0 4.432 4.42 7.806 8.126 3.34l.407.397zm9.184-.922c0 1.238-.91 3.294-3.722 3.294-2.229 0-3.66-.963-4-3.408h.536c.357 2.232 2.212 2.724 3.286 2.724 1.9 0 2.356-1.338 2.356-1.926 0-1.255-1.025-1.94-2.974-2.95-1.237-.633-3.334-1.678-3.334-3.714 0-2.593 2.55-3.124 3.462-3.124 2.266 0 3.22 1.204 3.546 2.916h-.572c-.244-.897-.895-2.248-2.943-2.248-1.008 0-2.08.815-2.08 1.84 0 1.206 1.445 1.973 2.941 2.74 2.816 1.428 3.498 2.439 3.498 3.856zm30.19-2.891c0 4.319-2.569 6.21-5.738 6.21-3.17 0-5.739-1.891-5.739-6.21 0-4.172 2.569-6.193 5.739-6.193 3.169 0 5.738 1.987 5.738 6.193zm-1.949 0c0-3.83-1.699-5.657-3.789-5.657-2.091 0-3.788 1.855-3.788 5.657 0 3.944 1.7 5.654 3.788 5.654 2.087 0 3.789-1.71 3.789-5.654zm12.817 5.995l-8.667-8.519v8.519h-.731V34.106l8.665 8.518v-8.519h.733v11.927zm9.348 0h-7.648V34.106h1.626v11.196h6.022v.73zm3.075 0h-1.626V34.106h1.626v11.926zm11.39 0l-8.665-8.519v8.519h-.733V34.106l8.667 8.518v-8.519h.731v11.927zm9.346-.619v.619h-7.494V34.106h7.494v.618h-5.707v4.726h4.764v.735h-4.764v5.23l5.707-.002zm14.961-2.462c0 1.239-.909 3.294-3.722 3.294-2.226 0-3.657-.962-4-3.407h.536c.36 2.232 2.212 2.723 3.285 2.723 1.901 0 2.357-1.337 2.357-1.925 0-1.255-1.025-1.94-2.974-2.95-1.235-.634-3.334-1.679-3.334-3.715 0-2.592 2.549-3.123 3.464-3.123 2.266 0 3.218 1.204 3.544 2.916h-.587c-.243-.897-.892-2.249-2.943-2.249-1.005 0-2.079.815-2.079 1.84 0 1.207 1.448 1.974 2.943 2.74 2.827 1.429 3.51 2.44 3.51 3.856zm11.028-8.849v11.926H197v-5.736h-5.982v5.736h-1.788V34.102h1.788v5.574H197v-5.574h1.79zm12.887 5.935c0 4.319-2.57 6.21-5.739 6.21-3.17 0-5.739-1.891-5.739-6.21 0-4.172 2.569-6.193 5.739-6.193 3.169 0 5.739 1.987 5.739 6.193zm-1.952 0c0-3.83-1.7-5.657-3.787-5.657-2.088 0-3.787 1.857-3.787 5.657 0 3.944 1.699 5.654 3.787 5.654 2.087 0 3.787-1.71 3.787-5.654zm11.027-2.577c0 3.438-3.787 3.211-5.665 3.211v5.361h-1.79V34.106h1.79c1.881-.003 5.665-.054 5.665 3.353zm-1.935 0c-.082-2.624-2.096-2.79-2.455-2.79h-1.266v5.365h1.266c.651 0 2.538-.034 2.455-2.576zm10.899 0c0 3.438-3.787 3.211-5.665 3.211v5.361h-1.787V34.106h1.787c1.875-.003 5.665-.054 5.665 3.353zm-1.935 0c-.079-2.624-2.096-2.79-2.453-2.79h-1.277v5.365h1.269c.654 0 2.541-.034 2.459-2.576h.002zm5.187 8.572h-1.626V34.106h1.626v11.926zm11.283 0l-8.665-8.519v8.519h-.731V34.106l8.665 8.518v-8.519h.731v11.927zm12.16-2.248a3.532 3.532 0 01-.668.88c-.714.716-2.031 1.596-4.178 1.596-3.626 0-5.739-2.769-5.739-6.193 0-3.425 2.113-6.208 5.739-6.208 3.447 0 4.73 2.272 4.86 2.493l-.391.407c-3.721-4.498-8.16-1.466-8.16 3.308 0 3.992 3.643 7.139 7.081 4.384v-4.123h1.465l-.009 3.456zm-142.9.839c-.027.121-.068.24-.122.352a1.632 1.632 0 01-.567.664 2.26 2.26 0 01-1.3.38c-.974 0-1.747-.218-2.478-1.206a3.348 3.348 0 01-2.748 1.207 2.906 2.906 0 01-1.056-.205 3.07 3.07 0 01-.921-.568 3.334 3.334 0 01-.648-.894 2.556 2.556 0 01-.233-1.136 2.523 2.523 0 01.516-1.587c.34-.435.85-.852 1.813-1.52-.581-.815-.878-1.561-.878-2.226a2.162 2.162 0 01.677-1.465 2.184 2.184 0 011.583-.679c.523 0 1.033.16 1.462.46a1.38 1.38 0 01.597 1.21c0 .787-.665 1.533-2.099 2.272.445.61.878 1.206 1.286 1.791.408.585.813 1.136 1.204 1.704.123-.167.232-.343.326-.528a6.263 6.263 0 00.595-1.548c.089-.259.148-.527.175-.8l.34.014c-.243 2.442-1.071 3.393-1.071 3.393.53.773.828 1.1 1.133 1.3.287.2.626.308.975.313a1.175 1.175 0 001.028-.596c.047-.068.088-.14.122-.216l.289.114zm-4.889-.327a63.092 63.092 0 00-1.433-2.144c-.459-.65-.85-1.235-1.232-1.738-.419.23-.773.56-1.032.963a2.42 2.42 0 00-.405 1.303c.019.658.285 1.284.745 1.752a2.22 2.22 0 001.68.827c.691 0 1.082-.27 1.677-.963zm-2.626-6.926c0 .489.298 1.167.907 2.022 1.002-.6 1.504-1.238 1.504-1.914a1.45 1.45 0 00-.097-.568 1.177 1.177 0 00-.623-.718 1.296 1.296 0 00-.498-.094 1.096 1.096 0 00-.867.366 1.241 1.241 0 00-.326.906z" fill="#fff"/></svg>