<svg width="263" height="46" fill="none" xmlns="http://www.w3.org/2000/svg"><path d="M14.007 12.63c1.609-.849 3.115-2.388 3.115-5.173 0-1.783-1.495-6.413-8.327-6.413H0v23.773h8.798c9.222-.009 9.33-6.139 9.33-6.394 0-2.813-1.416-4.797-4.121-5.793zm-5.053-1.058H4.337V3.03h3.965c2.79 0 4.532 1.757 4.532 4.582-.014 2.883-2.385 3.959-3.88 3.959zm-4.617 1.98h3.617c.223 0 5.492.055 5.492 4.707 0 4.245-4.47 4.42-4.648 4.427H4.337v-9.133zM19.729 24.81h2.515l1.937-4.311h10.962l1.983 4.31h4.767L30.673.41l-10.944 24.4zm5.381-6.394l4.476-9.968 4.58 9.968H25.11zm27.056-7.732c-2.55-1.296-5.416-2.765-5.416-4.85 0-1.736 1.91-3.083 3.555-3.083 2.747 0 4.506 1.339 5.229 3.982l.09.328h2.008l-.101-.529c-.765-4.01-3.147-5.966-7.257-5.966-1.983 0-7.11 1.152-7.11 6.416 0 4.112 4.09 6.206 6.532 7.457l.122.063c3.863 1.98 5.48 3.167 5.48 5.258 0 .031-.048 3.24-4.087 3.24-.85 0-5.132-.235-5.874-4.842l-.06-.376h-1.94l.07.51c.664 4.66 3.329 6.924 8.144 6.924 5.58 0 7.608-4.044 7.608-6.76.006-3.156-1.827-5.191-6.993-7.772zm25.939-2.788c0-2.978-1.445-5.004-4.294-6.029-2.3-.826-5.06-.817-6.883-.823h-4.045v23.773h4.336V14.529c.567 0 1.216 0 1.89-.025l7.313 10.304h4.957l-7.772-10.785c2.985-.963 4.498-3.023 4.498-6.127zm-5.592 3.359a3.613 3.613 0 01-.589.54 4.091 4.091 0 01-1.518.532c-.38.06-.765.088-1.15.088h-2.022V3.031h2.022c.416 0 4.093.135 4.249 4.865.008.5-.03.998-.114 1.491a4.977 4.977 0 01-.385 1.132c-.122.271-.289.52-.493.736zM83.49 24.81h2.516l1.937-4.311h10.962l1.982 4.31h4.765L94.435.41 83.49 24.81zm5.382-6.394l4.475-9.968 4.58 9.968h-9.055zm25.696 6.394h2.513l1.94-4.311h10.962l1.983 4.31h4.769L125.51.41l-10.942 24.4zm5.382-6.394l4.473-9.968 4.583 9.968h-9.056zm32.362-.126L142.676 0l-2.85 24.808h2.309l1.569-13.62 7.503 14.118 8.288-15.285 2.563 14.787h3.725l.637-.147L162.192.147l-9.88 18.144zm17.208 6.52h2.515l1.937-4.311h10.962l1.983 4.31h4.767L180.464.41l-10.944 24.4zm5.381-6.394l4.476-9.968 4.58 9.968h-9.056zm41.31-17.372h-18.658v2.298h11.758l-14.885 21.466h20.66v-2.3h-13.76l14.885-21.464zm12.613-.501c-5.555 0-11.486 3.235-11.486 12.32 0 7.734 4.291 12.352 11.486 12.352 7.194 0 11.485-4.618 11.485-12.353 0-9.084-5.934-12.319-11.485-12.319zm0 22.714c-4.283 0-6.838-3.886-6.838-10.395 0-6.41 2.62-10.395 6.838-10.395 4.217 0 6.84 3.985 6.84 10.395 0 6.51-2.549 10.395-6.84 10.395zm31.874-22.182v15.693L244.031.458v24.35h2.303V9.084L263 25.424V1.076h-2.302zM17.156 43.532c-.144.283-1.461 2.468-4.843 2.468-3.626 0-5.739-2.762-5.739-6.187 0-3.424 2.113-6.189 5.739-6.189 3.43 0 4.73 2.264 4.86 2.485l-.39.399c-3.722-4.466-8.16-1.509-8.16 3.3 0 4.417 4.42 7.78 8.128 3.328l.405.396zm12.798-3.8c0 4.304-2.566 6.19-5.739 6.19-3.172 0-5.738-1.886-5.738-6.19 0-4.157 2.569-6.172 5.738-6.172 3.17 0 5.739 1.98 5.739 6.172zm-1.949 0c0-3.818-1.7-5.638-3.79-5.638s-3.787 1.849-3.787 5.638c0 3.93 1.7 5.635 3.787 5.635 2.088 0 3.79-1.704 3.79-5.635zm11.106 2.906c0 1.234-.909 3.282-3.721 3.282-2.23 0-3.66-.959-4-3.395h.535c.357 2.224 2.213 2.714 3.283 2.714 1.904 0 2.36-1.333 2.36-1.92 0-1.25-1.026-1.932-2.977-2.94-1.235-.63-3.331-1.672-3.331-3.701 0-2.584 2.549-3.113 3.461-3.113 2.266 0 3.22 1.2 3.544 2.906h-.593c-.243-.894-.894-2.241-2.942-2.241-1.009 0-2.082.812-2.082 1.833 0 1.203 1.447 1.967 2.943 2.731 2.838 1.424 3.52 2.431 3.52 3.844zm14.517 3.071h-1.74l-1.416-8.154-4.421 8.154-4.045-7.619-.878 7.619h-.733l1.365-11.887 4.863 9.226 5.022-9.226 2.048 11.872-.065.015zm8.862-.617v.617h-7.494V33.822h7.495v.617h-5.705v4.71h4.762v.733h-4.762v5.212l5.705-.002zM73.661 34.55h-3.934v11.159h-1.79v-11.16h-3.949v-.73h9.673v.73zm3.264 11.159h-1.626V33.822h1.626V45.71zM89.4 43.532c-.148.283-1.465 2.468-4.844 2.468-3.626 0-5.742-2.762-5.742-6.187 0-3.424 2.116-6.189 5.742-6.189 3.427 0 4.73 2.264 4.86 2.485l-.39.399c-3.725-4.466-8.16-1.509-8.16 3.3 0 4.417 4.42 7.78 8.126 3.328l.407.396zm9.17-.894c0 1.234-.909 3.282-3.721 3.282-2.23 0-3.66-.959-4-3.395h.535c.357 2.224 2.213 2.714 3.286 2.714 1.9 0 2.357-1.333 2.357-1.92 0-1.25-1.026-1.932-2.974-2.94-1.238-.63-3.334-1.672-3.334-3.701 0-2.584 2.549-3.113 3.461-3.113 2.266 0 3.22 1.2 3.546 2.906h-.572c-.243-.894-.895-2.241-2.943-2.241-1.008 0-2.079.812-2.079 1.833 0 1.203 1.445 1.967 2.94 2.731 2.816 1.424 3.498 2.431 3.498 3.844zm30.204-2.906c0 4.304-2.569 6.19-5.738 6.19-3.17 0-5.739-1.886-5.739-6.19 0-4.157 2.569-6.172 5.739-6.172 3.169 0 5.738 1.98 5.738 6.172zm-1.949 0c0-3.818-1.699-5.638-3.789-5.638-2.091 0-3.788 1.849-3.788 5.638 0 3.93 1.7 5.635 3.788 5.635 2.087 0 3.789-1.704 3.789-5.635zm12.817 5.977l-8.667-8.49v8.49h-.731V33.822l8.665 8.49v-8.49h.733V45.71zm9.348 0h-7.648V33.822h1.626v11.16h6.022v.727zm3.075 0h-1.626V33.822h1.626V45.71zm11.39 0l-8.665-8.49v8.49h-.733V33.822l8.667 8.49v-8.49h.731V45.71zm9.348-.617v.617h-7.494V33.822h7.494v.617h-5.707v4.71h4.764v.733h-4.764v5.212l5.707-.002zm14.959-2.454c0 1.234-.909 3.282-3.722 3.282-2.226 0-3.657-.959-4-3.395h.536c.36 2.224 2.212 2.714 3.285 2.714 1.901 0 2.357-1.333 2.357-1.92 0-1.25-1.025-1.932-2.974-2.94-1.235-.63-3.334-1.672-3.334-3.701 0-2.584 2.549-3.113 3.464-3.113 2.266 0 3.218 1.2 3.544 2.906h-.587c-.243-.894-.892-2.241-2.943-2.241-1.005 0-2.079.812-2.079 1.833 0 1.203 1.448 1.967 2.943 2.731 2.827 1.424 3.51 2.431 3.51 3.844zm11.028-8.818v11.886H197v-5.717h-5.982v5.717h-1.788V33.819h1.788v5.556H197v-5.556h1.79zm12.888 5.912c0 4.304-2.569 6.19-5.738 6.19-3.17 0-5.739-1.886-5.739-6.19 0-4.157 2.569-6.172 5.739-6.172 3.169 0 5.738 1.98 5.738 6.172zm-1.951 0c0-3.818-1.7-5.638-3.787-5.638-2.088 0-3.787 1.851-3.787 5.638 0 3.93 1.699 5.635 3.787 5.635 2.087 0 3.787-1.704 3.787-5.635zm11.025-2.567c0 3.427-3.787 3.2-5.665 3.2v5.344h-1.79V33.823h1.79c1.881-.003 5.665-.054 5.665 3.342zm-1.935 0c-.082-2.615-2.096-2.78-2.455-2.78h-1.266v5.347h1.266c.651 0 2.538-.034 2.455-2.567zm10.899 0c0 3.427-3.787 3.2-5.665 3.2v5.344h-1.787V33.823h1.787c1.875-.003 5.665-.054 5.665 3.342zm-1.935 0c-.079-2.615-2.096-2.78-2.453-2.78h-1.277v5.347h1.269c.654 0 2.541-.034 2.459-2.567h.002zm5.187 8.544h-1.626V33.822h1.626V45.71zm11.283 0l-8.665-8.49v8.49h-.731V33.822l8.665 8.49v-8.49h.731V45.71zm12.16-2.242a3.52 3.52 0 01-.668.878c-.714.713-2.031 1.59-4.178 1.59-3.626 0-5.739-2.76-5.739-6.172 0-3.413 2.113-6.187 5.739-6.187 3.447 0 4.73 2.264 4.86 2.485l-.391.405c-3.721-4.483-8.16-1.46-8.16 3.297 0 3.979 3.643 7.114 7.081 4.37v-4.11h1.465l-.009 3.444zm-142.902.835a1.596 1.596 0 01-.122.35 1.634 1.634 0 01-.566.663 2.271 2.271 0 01-1.301.38c-.974 0-1.747-.219-2.478-1.204a3.347 3.347 0 01-2.748 1.203 2.914 2.914 0 01-1.056-.204 3.073 3.073 0 01-.921-.566 3.324 3.324 0 01-.648-.891 2.554 2.554 0 01-.233-1.132 2.509 2.509 0 01.516-1.582c.34-.433.85-.85 1.813-1.514-.581-.813-.878-1.557-.878-2.22a2.152 2.152 0 01.677-1.46 2.185 2.185 0 011.583-.676c.523 0 1.033.16 1.462.459a1.377 1.377 0 01.597 1.205c0 .784-.665 1.529-2.099 2.264.445.609.878 1.203 1.286 1.786.408.583.813 1.132 1.204 1.698.123-.166.232-.342.326-.526a6.23 6.23 0 00.595-1.543c.089-.258.148-.526.175-.798l.34.014c-.243 2.434-1.07 3.382-1.07 3.382.529.77.827 1.096 1.133 1.297.286.198.625.306.974.31a1.177 1.177 0 001.028-.593c.047-.068.088-.14.122-.216l.289.114zm-4.889-.326a63.012 63.012 0 00-1.433-2.136c-.459-.649-.85-1.232-1.232-1.733a2.85 2.85 0 00-1.031.96 2.398 2.398 0 00-.406 1.299c.019.655.285 1.28.745 1.746a2.219 2.219 0 001.68.824c.691 0 1.082-.27 1.677-.96zm-2.626-6.902c0 .486.298 1.163.907 2.015 1.002-.598 1.504-1.234 1.504-1.908a1.44 1.44 0 00-.097-.566 1.172 1.172 0 00-.623-.716 1.3 1.3 0 00-.498-.093 1.099 1.099 0 00-.867.365 1.236 1.236 0 00-.326.903z" fill="#1F2024"/></svg>