<svg width="142" height="100" fill="none" xmlns="http://www.w3.org/2000/svg"><path d="M137.993 45.587L87.971 74.455 61.044 58.818l-.032-13.391 50.005-28.884 26.928 15.653.048 13.391z" fill="#5EC363"/><path d="M61.006 45.424l.035 13.388L87.967 74.46l-.039-13.389-26.922-15.646z" fill="#72D561"/><path d="M87.93 61.07l.038 13.39 50.019-28.878-.039-13.389L87.93 61.071z" fill="#70C0A9"/><path d="M61.006 45.424L87.93 61.071l50.018-28.878-26.925-15.646-50.017 28.877z" fill="#97CFBF"/><path d="M111.069 28.635c-1.677.969-1.687 2.531-.019 3.5 1.657.962 4.356.962 6.034-.005 1.667-.962 1.685-2.533.028-3.496-1.668-.967-4.375-.963-6.043 0v.001zm-19.575 5.543c-4.424 2.553-4.457 6.709-.044 9.273 4.404 2.56 11.578 2.553 16.001 0 4.443-2.566 4.465-6.715.061-9.275-4.412-2.564-11.577-2.564-16.018 0v.002z" fill="#97CFBF"/><path d="M106.769 22.658c2.33 1.354 6.112 1.354 8.447.005l12.189 7.084c-2.335 1.347-2.348 3.538-.016 4.891l-35.197 20.32c-2.33-1.353-6.11-1.353-8.456 0l-12.19-7.082c2.346-1.354 2.358-3.544.028-4.898l35.195-20.32zm.682 20.793c4.442-2.566 4.464-6.715.06-9.275-4.411-2.564-11.577-2.564-16.018 0-4.423 2.555-4.457 6.71-.043 9.275 4.404 2.56 11.577 2.553 16.001 0zm-19.566 5.536c1.677-.968 1.685-2.53.028-3.496-1.667-.967-4.365-.967-6.043 0-1.668.964-1.687 2.534-.02 3.503 1.658.962 4.365.957 6.035-.007zm29.198-16.857c1.668-.962 1.685-2.532.029-3.496-1.668-.967-4.375-.962-6.043 0-1.678.97-1.688 2.534-.02 3.5 1.657.963 4.356.963 6.034-.004z" fill="#70C0A9"/><path d="M81.87 45.492c-1.668.963-1.687 2.533-.02 3.502 1.658.962 4.365.957 6.034-.007 1.678-.968 1.686-2.532.03-3.496-1.669-.967-4.366-.967-6.044 0v.002z" fill="#97CFBF"/><path d="M104.395 39.844c.192-.334.247-.632.141-.93-.106-.3-.334-.562-.722-.791a3.262 3.262 0 00-1.491-.44c-.51-.035-1.003 0-1.494.124-.404.086-.896.245-1.44.42l-2.073-1.193a7.89 7.89 0 011.51-.58 1.6 1.6 0 00.281-.107c.159-.086.212-.21.192-.333-.016-.122-.104-.228-.226-.299a1.204 1.204 0 00-.931-.105 9.7 9.7 0 00-1.968.755l-.546-.316a.923.923 0 00-.455-.104.924.924 0 00-.457.104c-.124.07-.193.159-.193.263 0 .104.07.193.193.265l.561.333c-.369.28-.65.562-.771.862a.943.943 0 00-.035.914c.121.296.368.543.737.753.422.246.895.387 1.405.422.493.036.983 0 1.476-.106.404-.086.896-.227 1.404-.404l2.005 1.16a7.501 7.501 0 01-1.863.633c-.106.035-.21.07-.299.122-.158.088-.247.212-.229.334 0 .123.088.229.247.317.127.08.272.128.422.14l.491-.035a11.607 11.607 0 002.389-.825l.545.316a.873.873 0 00.474.122c.158-.011.313-.053.457-.122.123-.07.192-.159.192-.264a.352.352 0 00-.192-.264l-.562-.316c.385-.28.667-.545.825-.825zm-8.027-1.142c-.247-.157-.37-.316-.334-.526.051-.193.193-.387.42-.58l1.776 1.035a4.928 4.928 0 01-1.038.23 1.28 1.28 0 01-.824-.16zm6.025 1.283l-1.74-1.02a5.669 5.669 0 011.142-.281c.316-.035.545-.016.738.106.369.21.737.561-.14 1.195z" fill="#000"/><path d="M79.5 34.746l26.924 15.648c5.798 1.545 10.008-1.33 13.029-7.521L92.529 27.225 79.5 34.746z" fill="#FFD06C"/><path d="M106.424 50.393l.038 13.388 13.029-7.522-.038-13.388-13.029 7.522z" fill="#FFD06C"/><path d="M81.734 33.457l8.558-4.941 26.926 15.646c-2.043 6.133-4.574 9.559-8.558 4.94L81.734 33.457z" fill="#F8F9FE"/><path d="M108.66 49.104l8.558-4.94.038 13.387-8.557 4.94-.039-13.387z" fill="#F3F1FC"/><path d="M94.504 65.898l.631 8.62c.089 1.437-.333 2.488-1.125 3.03L66.494 96.404c.794-.54 1.216-1.59 1.106-3.027l-.612-8.622 27.516-18.857z" fill="#354A59"/><path d="M94.504 65.901L66.988 84.758c-.196-2.633-2.153-5.727-4.54-7.196L10.73 39.81c-.214-.114-.406-.23-.6-.325-1.267-.608-2.397-.598-3.153-.06l28.898-19.62c.774-.54 1.886-.55 3.153.058.194.098.386.214.6.328l50.335 38.515c2.388 1.469 4.343 4.563 4.541 7.196z" fill="#3D566E"/><path d="M39.667 24.713L17.146 39.982l-2.78-2.014 22.548-15.363 2.753 2.108z" fill="#2E414C"/><path d="M18.428 41.552l.827.606 22.514-15.3-.082-1.112-23.26 15.806z" fill="#384F63"/><path d="M41.842 25.844l-.157-.098.085 1.112.157.098L58.389 39.54l.726-.492-17.273-13.204z" fill="#354A59"/><path d="M58.39 39.546l-22.132 15.02-17.006-12.409L41.77 26.85l.156.098L58.39 39.546z" fill="#ECF0F1"/><path d="M23.674 42.926a.294.294 0 01-.165-.537l18.575-12.604a.293.293 0 01.467.178.295.295 0 01-.138.308L23.84 42.875a.288.288 0 01-.165.05zm4.075 2.78a.294.294 0 01-.165-.537l18.574-12.604a.295.295 0 11.33.486L27.913 45.653a.29.29 0 01-.164.053zm4.074 2.779a.295.295 0 01-.165-.538l18.573-12.604a.295.295 0 01.333.487L31.988 48.434a.288.288 0 01-.165.05zm4.075 2.778a.295.295 0 01-.165-.537l11.802-8.008a.294.294 0 01.33.486l-11.803 8.008a.288.288 0 01-.164.051z" fill="#C6C6C6"/><path d="M10.137 39.49c.192.092.388.196.584.318L62.44 77.557c2.404 1.47 4.357 4.563 4.549 7.196l.624 8.623c.207 2.893-1.757 4.216-4.383 2.953L12.192 67.816c-2.54-1.222-4.778-4.504-4.98-7.314L5.898 42.353c-.206-2.84 1.73-4.073 4.24-2.863z" fill="#384F63"/><path d="M65.125 91.21l.26 1.732c.083 1.372-.319 2.372-1.074 2.888l-1.235.837c.755-.516 1.175-1.52 1.07-2.888l-.258-1.732c-.17-2.513-2.035-5.464-4.33-6.862l-49.425-33.33c-.202-.108-.386-.217-.57-.31-1.21-.58-2.27-.57-3.006-.056l1.215-.836c.74-.515 1.816-.525 3.026.055.184.092.367.184.553.312l49.443 33.327c2.276 1.4 4.141 4.334 4.331 6.863z" fill="#ECF0F1"/><path d="M9.571 51.552c.182.089.369.188.557.304L59.555 85.19c2.294 1.403 4.155 4.338 4.338 6.863l.253 1.734c.2 2.758-1.675 4.02-4.177 2.815L11.424 69.29c-2.422-1.165-4.557-4.295-4.75-6.975l-1.15-8.033c-.196-2.706 1.653-3.883 4.047-2.73z" fill="#D4D6D6"/><path d="M58.355 41.878c-.236.161-.212.447.04.64l.342.26c.253.193.647.226.882.065l2.953-2.014c.236-.162.222-.455-.03-.647l-.34-.26c-.255-.193-.657-.22-.892-.06l-2.955 2.016z" fill="#E74C3C"/><path d="M61.134 44.003c-.235.161-.212.447.04.64l3.176 2.425c.255.194.635.22.872.059l2.953-2.016c.236-.16.236-.445-.02-.639l-3.176-2.425c-.25-.193-.655-.22-.89-.06l-2.955 2.016z" fill="#7CCFE8"/><path d="M51.73 46.398c-.235.16-.212.447.04.64l.342.26c.251.194.647.227.883.067l2.953-2.016c.235-.16.221-.453-.032-.647l-.339-.26c-.255-.193-.657-.22-.892-.06l-2.955 2.016z" fill="#E2E2E2"/><path d="M54.508 48.521c-.235.16-.21.447.043.64l3.177 2.427c.25.192.633.215.868.056l2.955-2.015c.236-.16.234-.445-.02-.637l-3.176-2.428c-.253-.192-.655-.22-.892-.059l-2.955 2.016z" fill="#7CCFE8"/><path d="M45.105 50.918c-.235.163-.212.447.04.641l.34.26c.255.193.647.227.883.066l2.955-2.016c.235-.16.221-.453-.032-.647l-.341-.259c-.253-.194-.655-.22-.892-.059l-2.953 2.014z" fill="#E2E2E2"/><path d="M47.884 53.045c-.235.16-.212.445.04.64L51.1 56.11c.253.192.635.217.87.059l2.955-2.018c.236-.16.234-.445-.02-.637l-3.176-2.426c-.253-.194-.657-.22-.892-.059l-2.953 2.016z" fill="#7CCFE8"/><path d="M38.476 55.44c-.236.16-.212.445.041.639l.341.26c.253.193.647.226.883.065l2.952-2.015c.236-.161.224-.451-.029-.647l-.341-.26c-.253-.193-.657-.219-.892-.058l-2.955 2.016z" fill="#E2E2E2"/><path d="M41.257 57.562c-.235.16-.212.447.041.64l3.177 2.425c.253.194.635.217.87.058l2.953-2.015c.235-.16.235-.445-.02-.64l-3.176-2.425c-.25-.192-.655-.22-.89-.059l-2.955 2.016z" fill="#E74C3C"/><path d="M67.596 48.937c-.235.16-.212.447.041.64l3.177 2.427c.253.192.647.225.882.064l2.953-2.015c.235-.161.222-.451-.031-.647L71.44 46.98c-.25-.192-.655-.22-.89-.059l-2.955 2.016zm-6.625 4.522c-.236.16-.212.445.039.639l3.176 2.425c.255.192.647.226.883.065l2.955-2.014c.235-.16.221-.455-.032-.647l-3.176-2.425c-.251-.194-.655-.22-.89-.06L60.97 53.46zm-6.626 4.52c-.235.16-.212.444.04.638l3.176 2.426c.255.194.647.227.882.067l2.955-2.016c.235-.16.222-.453-.031-.647L58.19 56.02c-.253-.192-.655-.22-.892-.059l-2.953 2.016z" fill="#7CCFE8"/><path d="M47.72 62.5c-.235.16-.212.447.041.639l3.177 2.425c.252.194.647.228.882.067l2.953-2.016c.235-.16.223-.453-.03-.647l-3.176-2.425c-.253-.193-.657-.22-.892-.06L47.72 62.5z" fill="#E74C3C"/><path d="M74.07 53.882c-.235.161-.223.438.03.632l3.176 2.425c.253.192.647.226.882.065l2.953-2.014c.236-.163.222-.455-.03-.647l-3.176-2.425c-.253-.194-.647-.212-.882-.051l-2.953 2.015zm-6.625 4.52c-.236.16-.224.437.029.631l3.176 2.426c.253.192.647.227.883.066l2.953-2.015c.235-.161.221-.453-.032-.647l-3.176-2.426c-.251-.194-.643-.212-.88-.05l-2.953 2.015zm-6.626 4.52c-.235.16-.223.439.03.63l3.176 2.426c.251.195.645.228.882.067l2.953-2.016c.236-.16.222-.452-.031-.647l-3.177-2.425c-.25-.192-.645-.212-.88-.05l-2.953 2.015zm19.712-4.104c-.235.16-.222.437.031.631l3.187 2.433c.24.185.635.22.87.06l2.955-2.017c.235-.16.222-.453-.02-.639l-3.188-2.433c-.253-.194-.645-.212-.882-.051l-2.953 2.016zm-6.626 4.52c-.235.16-.223.438.03.63l3.186 2.436c.243.184.635.216.873.057l2.953-2.016c.235-.16.221-.453-.02-.637l-3.186-2.435c-.253-.193-.647-.212-.883-.051l-2.953 2.015zm-6.625 4.519c-.235.163-.224.44.03.631l3.186 2.436c.243.184.635.217.87.056l2.955-2.015c.235-.161.222-.451-.02-.638l-3.186-2.435c-.255-.192-.647-.21-.882-.049l-2.953 2.014z" fill="#7CCFE8"/><path d="M70.541 62.046L67.36 59.62c-.137-.118-.204-.261-.196-.392l.11-.51c.007.112.09.215.21.32l3.164 2.429c.255.184.647.23.875.063l2.96-2.02c.087-.06.155-.141.167-.235l-.104.584a.431.431 0 01-.169.235l-2.96 2.02c-.228.163-.62.117-.875-.067z" fill="#6DBCC9"/><path d="M48.199 59.244l-2.959 2.02c-.247.166-.62.136-.874-.048l-3.183-2.427c-.157-.118-.225-.279-.196-.412l.108-.508c.01.13.092.235.212.337l3.164 2.43c.255.184.646.21.873.045l2.96-2.02c.089-.062.158-.14.167-.235l-.103.582a.432.432 0 01-.17.236z" fill="#C44"/><path d="M87.737 59.678l-.102.6a.517.517 0 01-.166.235l-2.961 2.02c-.23.147-.62.12-.875-.065l-3.184-2.427a.472.472 0 01-.196-.412l.11-.508c.007.112.07.216.19.32l3.202 2.445c.235.186.627.212.857.047l2.96-2a.393.393 0 00.165-.255z" fill="#6DBCC9"/><path d="M67.716 73.481a.343.343 0 00.151-.215l-.104.582a.345.345 0 01-.15.216l-2.98 2.02c-.21.164-.619.139-.874-.063l-9.627-7.353c-.177-.134-.245-.294-.218-.428l.11-.508c.01.13.092.253.212.353l9.627 7.353c.255.202.667.228.894.063l2.959-2.02z" fill="#30B265"/><path d="M45.035 52.148c-.157-.117-.226-.28-.196-.411l.09-.508c.008.112.092.235.21.337l.353.251c.235.186.647.23.874.065l2.96-2.02a.328.328 0 00.15-.235l-.104.584c-.012.092-.063.17-.169.236l-2.94 2.015c-.248.167-.638.141-.895-.06l-.333-.254z" fill="#C6C6C6"/><path d="M60.735 64.138c-.157-.118-.223-.263-.196-.394l.11-.51c.008.112.07.218.19.32l3.183 2.43c.254.183.647.227.876.062l2.96-2.02c.087-.06.156-.141.167-.235l-.105.582a.43.43 0 01-.167.236l-2.96 2.02c-.228.164-.62.119-.875-.066l-3.183-2.425zm.44-19.5l3.184 2.427a.77.77 0 00.857.065l2.96-2.02a.413.413 0 00.167-.235l-.104.584c-.011.093-.078.173-.168.236l-2.961 2.02c-.226.162-.618.137-.875-.065l-3.162-2.432c-.157-.117-.224-.259-.199-.41l.093-.488c.008.11.088.216.208.318zm19.772 19.814a.416.416 0 00.167-.236l-.104.58a.52.52 0 01-.169.236l-2.96 2.02c-.228.147-.62.12-.873-.065l-3.184-2.427c-.157-.118-.224-.279-.197-.412l.11-.49c.008.111.073.217.19.32l3.202 2.427c.236.184.628.211.857.064l2.961-2.017z" fill="#6DBCC9"/><path d="M58.282 43.098c-.157-.118-.223-.261-.196-.412l.09-.506c.01.127.092.233.23.333l.333.27c.255.187.647.23.877.066l2.96-2.02a.432.432 0 00.167-.235l-.124.584a.327.327 0 01-.149.235l-2.96 2.018c-.228.165-.638.122-.875-.065l-.353-.268z" fill="#C44"/><path d="M47.929 53.69l3.163 2.413c.255.201.647.227.876.062l2.959-2.02c.088-.062.157-.14.167-.235l-.104.583a.432.432 0 01-.167.235l-2.96 2.02c-.228.164-.618.137-.875-.065l-3.163-2.412a.492.492 0 01-.216-.408l.11-.51c.008.112.09.236.21.338z" fill="#6DBCC9"/><path d="M42.582 54.98l-2.942 2c-.247.167-.637.141-.894-.063l-.333-.253c-.157-.117-.226-.278-.198-.412l.092-.505c.01.129.09.235.21.337l.333.25c.255.205.647.23.894.064l2.961-2.02a.327.327 0 00.147-.231l-.102.6a.347.347 0 01-.168.233zm9.078-7.369c-.157-.117-.223-.26-.198-.411l.092-.487c.008.11.09.216.21.318l.353.269c.255.184.647.229.876.064l2.96-2.02a.432.432 0 00.166-.235l-.122.585a.328.328 0 01-.149.233l-2.96 2.02c-.248.166-.64.121-.875-.065l-.353-.27z" fill="#C6C6C6"/><path d="M54.554 49.156l3.165 2.429c.255.202.647.227.874.063l2.961-2.02c.086-.06.155-.141.167-.235l-.106.582c-.01.094-.079.173-.167.235l-2.96 2.02c-.228.165-.618.137-.875-.065l-3.165-2.427c-.157-.118-.223-.26-.196-.412l.092-.49c.008.112.09.216.21.32z" fill="#6DBCC9"/><path d="M54.666 64.203l-2.96 2c-.228.165-.62.139-.875-.063l-3.184-2.43c-.157-.117-.222-.26-.196-.411l.09-.506c.01.13.092.235.212.337l3.182 2.428c.255.202.647.23.874.062l2.961-2a.416.416 0 00.169-.235l-.104.583a.522.522 0 01-.169.235z" fill="#C44"/><path d="M74.323 68.968a.432.432 0 00.168-.236l-.123.585a.33.33 0 01-.15.233l-2.96 2.02c-.227.164-.637.121-.874-.065L67.2 69.078c-.157-.118-.223-.261-.196-.412l.102-.583a.462.462 0 00.198.412l3.182 2.428c.255.184.647.211.877.064l2.959-2.02zm-15.87-7.863l2.94-2.02c.088-.06.157-.139.169-.233l-.106.582a.393.393 0 01-.165.253l-2.96 2c-.23.167-.62.14-.877-.063l-3.182-2.427c-.157-.118-.224-.26-.198-.412l.104-.582c-.008.149.058.294.215.412l3.165 2.427c.255.202.647.23.894.063zm9.19-11.526l3.164 2.428c.255.184.647.23.894.063l2.941-2.018c.106-.063.157-.141.167-.235l-.104.582c-.012.094-.078.173-.169.235l-2.94 2.018c-.246.167-.64.122-.893-.063l-3.165-2.43c-.156-.117-.225-.278-.198-.41l.093-.507c.01.13.09.236.21.337zm6.464 4.94l3.165 2.43c.255.183.647.209.894.062l2.941-2.02c.106-.063.157-.139.167-.235l-.104.584c-.012.092-.079.173-.169.235l-2.959 2.02c-.227.165-.62.118-.874-.065l-3.184-2.427c-.138-.12-.204-.263-.179-.412l.092-.49c.01.112.09.216.21.318zm-10.03 2.588l-3.182-2.428c-.137-.117-.225-.28-.196-.411l.108-.508c.01.13.092.235.212.335l3.164 2.431c.255.183.647.228.893.061l2.94-2.017c.109-.063.158-.142.17-.236l-.105.583c-.011.094-.08.172-.168.235l-2.96 2.02c-.228.164-.619.137-.875-.065z" fill="#6DBCC9"/><path d="M54.182 67.433c-.226.155-.212.447.05.647l9.628 7.353c.263.204.667.23.892.077l2.965-2.024c.226-.153.212-.445-.053-.647l-9.627-7.353c-.263-.202-.667-.23-.892-.074l-2.963 2.021z" fill="#2ECC71"/><path d="M91.817 72.361l.16 2.053L71.406 88.45l-.16-2.055 20.57-14.035z" fill="#2E414C"/><path d="M4.961 17.46L26.108 2.94c.108.106 10.043 10.177 11.72 21.863L16.678 39.32C15.003 27.634 5.068 17.565 4.96 17.457l.002.002z" fill="#ECF0F1"/><path d="M4.96 17.459c.105.106 10.04 10.176 11.717 21.863l-.282-.124C14.745 27.702 4.959 17.786 4.85 17.678l.11-.22zM26.65 5.726L7.842 18.55c-.036-.084-.13-.163-.192-.245L26.458 5.479l.192.243v.004zm-2.942 4.596L9.205 20.21l-.19-.245 14.53-9.89c.036.084.1.166.163.247zm5.644-1.255L10.489 21.93a1.166 1.166 0 00-.165-.248L29.16 8.822a.67.67 0 00.193.245zm-3.104 4.725L11.716 23.71a1.144 1.144 0 00-.162-.247l14.529-9.918c.065.075.12.158.165.247zm5.447-1.155L12.859 25.498a1.096 1.096 0 00-.162-.247l18.835-12.86c.035.084.098.164.163.246zm-.032 12.998L17.3 35.451a1.03 1.03 0 00-.083-.31l14.367-9.82c.037.112.073.197.078.312l.002.002zm3.679-5.115L16.616 33.314a.555.555 0 00-.106-.28l18.753-12.797a.998.998 0 01.079.283zm-5.035.864L15.83 31.27a.859.859 0 00-.137-.279l14.476-9.882a.864.864 0 01.137.274v.002zm3.405-4.921L14.932 29.29c-.035-.084-.073-.196-.137-.278l18.81-12.83c.035.085.07.17.107.28zm-5.259.996l-14.53 9.89a1.022 1.022 0 00-.136-.249l14.533-9.89c.033.089.078.172.133.249z" fill="#C6C6C6"/></svg>