<svg width="90" height="90" fill="none" xmlns="http://www.w3.org/2000/svg"><path d="M79.921 9.46l-.186 38.037c-.017 1.698-1.24 3.787-2.717 4.619L61.004 61.2l-5.552 3.158-5.213 2.955-6.742 3.82L18.347 85.4c-.797.458-1.51.458-2.003.102.034.034.051.05.085.068l-5.57-3.295c-.475-.288-.78-.883-.78-1.732l.186-38.038c0-1.715 1.223-3.77 2.734-4.618L71.652 4.603c.747-.408 1.426-.459 1.919-.17l5.468 3.243c.543.255.882.883.882 1.783z" fill="#986FF9"/><path d="M79.15 7.727c-.493-.288-1.179-.254-1.922.177L18.559 41.167c-1.489.864-2.703 2.927-2.717 4.637l-.176 38.028c-.007.856.273 1.448.766 1.737l-5.563-3.3c-.493-.288-.792-.88-.785-1.737l.177-38.027c.012-1.71 1.226-3.774 2.734-4.62l58.65-33.282c.763-.411 1.429-.464 1.921-.175l5.584 3.3z" fill="#70C0A9"/><path d="M79.917 9.46l-.187 38.03c-.017 1.708-1.229 3.79-2.715 4.627L43.491 71.133l-25.144 14.27c-1.501.836-2.697.135-2.697-1.572l.187-38.03c0-1.707 1.23-3.772 2.717-4.626L77.22 7.907c1.486-.854 2.698-.153 2.698 1.552z" fill="#97CFBF"/><path d="M47.383 28.393a4.971 4.971 0 00-4.974 4.976 4.99 4.99 0 00-1.453-3.522 4.984 4.984 0 00-3.52-1.454c1.372 0 2.618-.56 3.52-1.455a4.984 4.984 0 001.453-3.52c0 1.374.559 2.62 1.454 3.52a4.981 4.981 0 003.52 1.455z" fill="#fff"/><g opacity=".3" fill="#fff"><path d="M52.878 60.856c-.136.325-.187.649-.306 1.007-.548 1.507-.52.053-.973 2.442-.084.666-.084 1.331-.546 2.031l-.272.392c-.232.14-.42.341-.547.581l-6.741 3.824c.017-.546.05-1.076.068-1.621.017-.564-.223-.855-.668-.804-1.664.077-.946-1.901-1.467-2.423-.871-.87-.632-1.4.136-3.328.29-.735.615-1.401.375-1.946-1.058.034-2.304 0-2.559-.394-.085-.085-.222-.153-.341-.119-.462.102-.786-.034-1.128-.204-.068-.034-.187.017-.305.085-.155.102-.224.136-.276.17-1.21.683-2.611.358-2.902-.802-.17-.648-.51-1.093-.903-1.502-.222-.17-.324-.494-.513-.734-.102-.119-.271-.136-.494-.05.408.699.785 1.432 1.16 2.149l-.17.256c-.136-.034-.324-.017-.41-.136-.17-.273-1.212-.956-2.15-1.57 1.633-8.284 5.42-16.358 10.275-23.18.05.068.102.17.085.357-.187 2.556-3.298 3.94-2.833 6.215l.136.22c.238-.05.256.103.273.324.04.878 1.016-.505 1.247.19.05.119.356.05.547-.051.51-.274.579-.257.545.356-.034.65.409.513.837.564.05-.58.085-1.092.153-1.622.056-.67.67-1.198.462-1.825-.052-.136-.035-.375-.035-.564 0-1.508-.06-1.516.29-1.74.334-.28.814-.55 1.178-.308.271.17.648.153.973.204-.017.358-.068.752-.085 1.128l.237.034c.206-.496.411-.973.598-1.452l.187-.068c.326 1.23.992 1.929 2.255 2.117-4.432 4.986-2.21 4.816-3.243 5.478-.549.393-1.084.664-.956 1.401.147.836-1.187.685-1.434 2.542-.263 2.144-1.375 2.702-1.502 4.115-.05.808.181 1.52.05 1.997-.322-.289-.853-.255-.888-.94 0-.152-.237-.186-.39-.22-.104-.017-.275.085-.428.102a.47.47 0 00-.22.051c-.121.068-.206.204-.259.443-.05.223-.119.342-.22.394-.085.051-.187.051-.291.034a.872.872 0 00-.564.119c-.443.255-.87.888-.973 1.537-.17 1.058-.204 1.98.017 2.815.085.376.358.48.666.308.153-.085.307-.255.462-.477.288-.41.494-.855.767-1.332.615-.256.632-.187.41.598a3.05 3.05 0 00-.085 1.16h.375c.085-.068.136-.12.204-.153.205-.119.309 0 .377.22.085.257.102.598.136.923.05.53.99.271 1.878-.085.254-.48.546-.905.82-1.331.17-.24.34-.41.511-.513a.904.904 0 01.58-.102c.221.05.512.034.751-.12.085-.05.136-.067.187-.101.837-.479 1.606-.343 1.844.51.085.274.187.376.411.258.068-.034.153-.102.255-.206.085-.085.17-.153.256-.204.496-.275 1.007-.12 1.075.425.085.718.377.888.922.58.102-.067.393-.271.445-.305.815-.467 2.021.158 2.525.39.359.155.394.804.136 1.486z"/><path d="M74.506 37.796c-.204.409-.428.835-.649 1.263l-.203.425c-.583.582-.53 1.144-.549 1.725-.017.41 0 .803-.119 1.23-.05.305-.271.716-.477.922a1.566 1.566 0 01-.394.34c-.254.154-.34-.069-.373-.614-.087-1.145-.258-2.236-.804-2.936l-.17-.153c-.752.102-.904-.684-1.195-1.28-.05-.136-.24-.189-.375-.136-.428.204-.888.475-1.314.68-.257.12-.564.376-.668-.05-.017-.085-.238 0-.39.05-.634.308-1.111.325-1.418-.254-.102-.154-.427 0-.683.034l-.119.238c.786 1.523.902 2.734 1.945.649.188.102.36.239.53.375.203.222.29.53-.035 1.093l-.119.478c.167 1.47-1.171 2.09-3.005 4.506-.255.085-.459-.05-.511-.512-.017-.204-.102-.323-.17-.46a18.196 18.196 0 00-.718-1.537c-.085-.17-.204-.255-.323-.391l-.087-.104c-.102-.118-.22-.237-.271-.409-.053-.256-.02-.598-.087-.888-.195-.713-.467-.413-.683-.358-.108.594-.164.304.39 1.912.104.34.191.7.276 1.04.119.357.204.751.374 1.059.275.547.633 1.024.94 1.537.221.322.632.237 1.041 0 .204-.12.41-.274.615-.428.05-.034.085-.068.136-.102.136-.068.256-.102.375-.17-.17 1.273-1.042 4.002-2.15 5.393-.75.94-.99 1.724-.837 2.73.068.598.187 1.128.325 1.692.222.886-.12 2.423-.836 3.38a3.77 3.77 0 00-.717 1.432l-5.547 3.159c-.3-1.578-.235-2.931-.189-4.422.083-1.6-1.374-1.77-.801-3.294.136-.41.085-.87.068-1.28 0-.103-.257-.102-.376-.069-1.042.488-.361-.764-1.604.48-.671.668-1.53 1.587-2.373 1.587-.684 0-1.4.034-1.64-.888-.051-.153-.17-.256-.306-.358-1.209-.692.01-3.015-.479-4.166-.032-.097.717-1.618.768-1.793.136-.39.189-.785.547-1.109l.153-.306c-.068-.53.239-1.008.478-1.502l.068-.223c0-.67.282-1.1.905-1.348.187-1.742 3.26-3.634 4.507-4.507-.516 2.493-.664 1.54 1.383 1.774.283.036.319.294.597.155.085-.05.153-.17.187-.41.068-.563.119-.836.324-.955.466-.199 1.02.102 2.34-.683.895-.448 1.203-.934 1.332-1.469.204-.88.596-2.126-.136-1.74-.034.034-.07.05-.12.085-.965.657-1.609 1.285-1.76.307-.124-.871-.323-.649-.596-.649-.355 1.063.078 1.01-.718 2.014-.153-.477-.34-.886-.442-1.348-.086-.426-.275-.564-.65-.375-.426.204-.768.288-.819-.376 0-.102-.205-.084-.377-.05.04 1.414 1.143.2 1.026 1.621-.034.39-.068.768-.36.973-.385-1.109-.255-1.161-.852-1.28-2.386.248-1.587.489-2.254.852-.125.258-1.394 2.826-1.348 3.568l-.102.307c-.348-.16-.639-.129-.99.376-.256-.017-.479-.017-.735-.051.132-1.396.19-1.634.119-1.758-.136-.341-.017-.58.256-.77l.119-.05c.034-.017.07-.034.104-.068.118-.05.22-.136.324-.22.716-.53.803-.702.837-1.641 0-.357 0-.649-.24-.836-.461-.356.58-.923.802-1.399a45.23 45.23 0 001.077-2.05c.136-.34.322-.528.51-.631.069-.034.12-.068.188-.085.033-.017.086-.034.12-.068.29-.153.41-.46.41-.871 0-.39 0-.802.084-1.315l.31.359c1.154 1.1 3.367-1.715 3.65-3.176l.292-.305c.494-.325.819-1.077.734-1.724-.547.408-1.075.819-1.69 1.262-.29-.136-.273-.819.102-1.707.153-.34.325-.7.393-1.024.033-.186-.069-.358-.136-.53-.12.17-.274.308-.359.496-.273.511-.563 1.041-.786 1.554-.356.835-.545 1.639-.545 2.423 0 .496-.102 1.007-.222 1.52-.034.187-.255.477-.427.598-.068.034-.17-.172-.256-.274-.272-.239-.513-.495-.82-.648-.153.085-.374.39-.528.545-.136.153-.325.428-.41.479-.171.017-.29-.204-.273-.393a9.54 9.54 0 01.187-1.69c.034-.239.203-.529.358-.785.411-.666.837-1.332 1.23-2.031.135-.238.17-.53.254-.803.104-.238.207-.512.31-.751.101-.272.288-.53.322-.75.188-1.059.786-1.504 1.367-1.964.426-.307.837-.631 1.263-.922.221-.136.359-.187.426-.136.547.425 1.383.017 1.98.29.187.067.496-.086.427.393-.085.494-.306.768-.647.956-.172.102-.257.153-.411.238.102.358.153.769.324.922.034.034.068.017.136-.017.138-.085.343-.289.445-.358.034-.306.034-.46.102-.598.358-.717.718-1.416 1.127-2.116.153.034.323.085.511.119.068.17.17.255.308.17 5.05 1.05 8.586 5.958 9.883 11.216.188.716.341 1.5.479 2.287.05.443.119.905.17 1.382.05.427.07.819.103 1.247z"/></g><path d="M21.855 46.909c.41-.605.605-1.602.058-1.824-.498-.194-1.163.39-2.184.917a.713.713 0 00-.334.58c.015 3.7-.099 3.779.081 3.87.17.138 2.955-1.11 2.967-2.857.005-.494-.269-.71-.588-.686zm-1.8 2.603l-.003-1.167.905-.51c.992-.556.939.215.655.633-.134.174-.796.577-1.558 1.044h.001zm.01-2.968c.688-.364 1.084-.708 1.369-.629.267.084.318.756-.593 1.272l-.784.445.008-1.088zm4.962-3.271c-.066-.136-.212-.192-.395-.092-.17.128-.167.09-.31.272-.173.306-.852 2.547-1.533 4.88-.002.355.32.3.516.028l.124-.253.326-1.041 1.668-.945.314.697.119.098.187-.042a.72.72 0 00.346-.58l-1.362-3.022zm-1.002 2.916l.578-1.885.55 1.244-1.128.64zm5.642-1.43l-.155-.056-1.853-2.026c-.05 2.771.146 3.174-.356 3.481-.595.292-.231-.56-.323-3.794 0-.142.046-.285.136-.427a.86.86 0 01.309-.34l.068-.032c.153-.085.273-.085.373.015l1.841 2.014.012-2.902c0-.11.034-.22.102-.34a.696.696 0 01.231-.24c.088-.043.177-.065.243-.031.066.044.098.122.097.22-.031 1.902.34 4.466-.726 4.458zm4.503-2.615c-.107.195-.35.394-.508.26l-1.287-1.164-.49.854c-.035 1.024.057 1.143-.111 1.417-.197.324-.574.42-.57.05.05-3.99-.062-3.733.118-4.054.095-.158.323-.374.476-.272.175.119.068.302.095 1.868l1.637-2.833c.09-.163.302-.375.475-.305.153.078.102.368.017.518l-1.18 1.97 1.343 1.186c.133.08.068.372-.015.505zm39.77-16.85l-.544-.55a6.789 6.789 0 00.078-9.595l.55-.543a7.56 7.56 0 01-.084 10.687z" fill="#fff"/><path d="M72.403 23.74l-.542-.55a4.602 4.602 0 00.055-6.506l.55-.543a5.374 5.374 0 01-.063 7.599z" fill="#fff"/><path d="M70.873 22.182l-.544-.55a2.417 2.417 0 00.033-3.417l.55-.541a3.187 3.187 0 01-.04 4.508zm-40.91 47.896l-.018 3.929-9.783 5.55.017-3.93 9.785-5.55zm11.361-6.443l-.02 3.93-9.782 5.549.018-3.931 9.784-5.548zm11.36-6.444l-.02 3.93-9.781 5.548.017-3.929 9.784-5.55zm11.36-6.443l-.02 3.93-9.78 5.549.016-3.931 9.785-5.548zm11.36-6.443l-.018 3.93-9.784 5.547.02-3.929 9.781-5.548z" fill="#fff"/></svg>