<svg width="257" height="226" fill="none" xmlns="http://www.w3.org/2000/svg"><path d="M0 164.525v-3.371l151.604-84.736 105.077 57.652v3.371l-151.379 88.557L0 164.525z" fill="#F4F4F6"/><path d="M151.603 76.418l7.418 4.158-53.719 141.938v3.484L0 164.525v-3.371l151.603-84.736z" fill="#E0C18F"/><path d="M0 161.154l151.604-88.107 105.077 61.023-151.379 88.445L0 161.154z" fill="#FFC6E1"/><path d="M0 161.154l151.604-88.107 90.13 52.37-151.266 88.444L.001 161.154z" fill="#F2F2F2"/><path d="M33.264 88.331v-4.72l55.967 32.703v69.565L33.04 153.176l.224-64.845z" fill="#908169"/><path d="M33.04 153.176l56.19 32.703V175.54l-55.966-32.366-.225 10.002z" fill="#756D5F"/><path d="M89.232 185.879l128.902-74.284-.113-70.126-128.79 74.734v69.676z" fill="#E0C18F"/><path d="M89.232 185.878l128.902-74.284-.113-10.227-128.79 74.172v10.339z" fill="#F9E4C2"/><path d="M154.974 119.125v28.994l14.498-8.428v-28.658l-14.498 8.092z" fill="#1F2024"/><path d="M166.887 139.129v-23.6l-9.328 5.17v23.6l9.328-5.17z" fill="#F2F2F2"/><path d="M143.061 125.643v29.219l14.498-8.316v-28.882l-14.498 7.979z" fill="#1F2024"/><path d="M154.974 145.76v-23.6l-9.216 5.057v23.601l9.216-5.058z" fill="#F2F2F2"/><path d="M33.265 83.612L162.279 9.215l55.742 32.253-128.79 74.847-55.966-32.703z" fill="#A0C844"/><path d="M68.441 131.151l-22.027-12.587v20.229l22.027 12.699v-20.341z" fill="#1F2024"/><path d="M65.856 132.611L49 123.059v14.272l16.857 9.665v-14.385z" fill="#F2F2F2"/><path d="M50.685 110.023l-9.215 8.991 20.903 12.137 7.754-10.002-19.442-11.126z" fill="#F9E4C2"/><path d="M41.47 119.014v3.371c0 1.573.898 3.147 2.247 3.933l1.011.562c.9.45 1.91-.112 1.91-1.123v-3.821l-5.169-2.922zm5.169 3.033v3.484c0 1.573.9 3.146 2.248 3.933l1.011.562c.9.45 1.91-.112 1.91-1.124v-3.821l-5.169-3.034zm5.282 3.037v3.484c0 1.573.9 3.147 2.248 3.933l1.011.562c.9.45 1.91-.112 1.91-1.124v-3.821l-5.169-3.034zm5.169 3.033v3.484c0 1.573.9 3.147 2.248 3.933l1.011.562c.9.45 1.91-.112 1.91-1.124v-3.82l-5.169-3.035z" fill="#1F2024"/><path d="M61.586 136.21l8.541-5.058V121.15l-7.754 10.002-.787 5.058z" fill="#1F2024"/><path d="M28.095 78.555L164.302 0l58.888 33.94-135.982 79.116-59.113-34.501z" fill="url(#paint0_linear_658_11569)"/><path d="M218.021 41.467l5.169-7.53-135.982 79.117 2.023 3.147 128.79-74.734zM28.096 78.555l5.17 5.057 55.965 32.591-2.022-3.147-59.113-34.501z" fill="#908169"/><path d="M100.469 139.916v27.983l36.749-21.128v-28.32l-36.749 21.465z" fill="#1F2024"/><path d="M135.42 145.761v-24.05l-33.04 19.217v23.713l33.04-18.88z" fill="#F2F2F2"/><path d="M126.766 125.979l1.798-1.124v25.399l-1.798 1.124v-25.399zm-8.653 4.723l1.798-1.124v25.286l-1.798 1.236v-25.398zm-8.653 5.618l1.798-1.011.112 25.286-1.91 1.123V136.32z" fill="#1F2024"/><path d="M137.556 109.459l11.013 12.924-22.027 12.699-10.788-13.261 21.802-12.362z" fill="#F8E1BD"/><path d="M148.569 122.383v3.596c0 1.686-.899 3.259-2.36 4.158l-1.124.674c-.899.562-2.022-.112-2.022-1.123v-3.934l5.506-3.371z" fill="#E0C18F"/><path d="M143.062 125.531v3.596c0 1.686-.9 3.26-2.36 4.159l-1.124.674c-.899.562-2.023-.112-2.023-1.124v-4.046l5.507-3.259z" fill="#161616"/><path d="M137.556 128.676v3.596c0 1.686-.899 3.259-2.36 4.158l-1.124.674c-.899.562-2.023-.112-2.023-1.123v-4.046l5.507-3.259z" fill="#E0C18F"/><path d="M143.062 125.53l-10.789-13.149-5.507 3.147 10.789 13.148 5.507-3.146z" fill="#1F2024"/><path d="M132.162 131.936v3.596c0 1.686-.899 3.259-2.36 4.158l-1.124.674c-.899.562-2.023-.112-2.023-1.124v-4.045l5.507-3.259z" fill="#161616"/><path d="M132.162 131.936l-10.901-13.149-5.507 3.147 10.901 13.148 5.507-3.146z" fill="#1F2024"/><path d="M115.753 121.934l10.901 13.036-21.914 12.699-10.789-13.149 21.802-12.586z" fill="#F8E1BD"/><path d="M126.654 134.969v3.596c0 1.686-.899 3.259-2.36 4.158l-1.124.674c-.899.562-2.022-.112-2.022-1.123v-3.934l5.506-3.371z" fill="#E0C18F"/><path d="M121.147 138.117v3.596c0 1.686-.899 3.259-2.36 4.159l-1.123.674c-.899.562-2.023-.113-2.023-1.124v-4.046l5.506-3.259z" fill="#161616"/><path d="M115.753 141.264v3.596c0 1.686-.899 3.259-2.36 4.158l-1.124.674c-.899.562-2.023-.112-2.023-1.124v-4.045l5.507-3.259z" fill="#E0C18F"/><path d="M121.147 138.117l-10.788-13.148-5.507 3.146 10.901 13.149 5.394-3.147z" fill="#1F2024"/><path d="M110.247 144.521v3.597c0 1.685-.899 3.259-2.36 4.158l-1.124.674c-.899.562-2.023-.112-2.023-1.124v-4.045l5.507-3.26z" fill="#161616"/><path d="M110.247 144.522l-10.789-13.149-5.506 3.147 10.788 13.148 5.507-3.146zm-4.608 8.43l-11.688-7.192v-11.239l10.789 13.149.899 5.282zm69.565-55.629v28.096l36.749-21.128v-28.32l-36.749 21.352z" fill="#1F2024"/><path d="M210.155 103.168V79.23l-33.04 19.218v23.712l33.04-18.992z" fill="#F2F2F2"/><path d="M201.502 83.499l1.798-1.124.112 25.286-1.91 1.236V83.499zm-8.654 4.608l1.798-1.011.113 25.286-1.911 1.236v-25.51zm-8.653 5.732l1.798-1.124.112 25.398-1.91 1.124V93.839z" fill="#1F2024"/><path d="M212.289 66.867l11.014 13.036-22.027 12.7-10.789-13.261 21.802-12.475z" fill="#F9E4C2"/><path d="M223.303 79.902V83.5c0 1.685-.899 3.259-2.36 4.158l-1.124.674c-.899.562-2.023-.112-2.023-1.124v-3.933l5.507-3.372z" fill="#E0C18F"/><path d="M217.795 83.05v3.597c0 1.686-.899 3.26-2.36 4.158l-1.124.674c-.899.562-2.023-.112-2.023-1.123V86.31l5.507-3.26z" fill="#161616"/><path d="M212.289 86.195v3.597c0 1.685-.899 3.259-2.36 4.158l-1.124.674c-.899.562-2.023-.112-2.023-1.124v-4.046l5.507-3.259z" fill="#E0C18F"/><path d="M217.795 83.05L207.006 69.9l-5.506 3.147 10.788 13.149 5.507-3.147z" fill="#1F2024"/><path d="M206.896 89.455v3.596c0 1.686-.9 3.26-2.361 4.158l-1.123.675c-.899.562-2.023-.113-2.023-1.124v-4.046l5.507-3.259z" fill="#161616"/><path d="M206.896 89.457L196.107 76.31l-5.619 3.146 10.901 13.149 5.507-3.147z" fill="#1F2024"/><path d="M190.487 79.453l10.901 13.036-21.802 12.7-10.901-13.261 21.802-12.475z" fill="#F9E4C2"/><path d="M201.388 92.49v3.597c0 1.685-.899 3.259-2.36 4.158l-1.124.674c-.899.562-2.023-.113-2.023-1.124v-3.933l5.507-3.372z" fill="#E0C18F"/><path d="M195.994 95.637v3.596c0 1.686-.899 3.259-2.36 4.158l-1.124.674c-.899.562-2.023-.112-2.023-1.123v-4.046l5.507-3.26z" fill="#161616"/><path d="M190.486 98.783v3.596c0 1.686-.899 3.259-2.36 4.159l-1.124.674c-.899.562-2.022-.113-2.022-1.124v-4.046l5.506-3.259z" fill="#E0C18F"/><path d="M195.994 95.637l-10.901-13.149-5.507 3.147 10.901 13.149 5.507-3.147z" fill="#1F2024"/><path d="M184.98 102.043v3.596c0 1.686-.899 3.259-2.36 4.158l-1.123.675c-.899.562-2.023-.113-2.023-1.124v-4.046l5.506-3.259z" fill="#161616"/><path d="M184.98 102.043l-10.788-13.149-5.507 3.035 10.789 13.261 5.506-3.147zm-4.608 8.317l-11.688-7.192V91.93l10.789 13.261.899 5.169z" fill="#1F2024"/><path d="M90.13 95.075l33.827-19.555v-5.282L90.13 89.793v5.282z" fill="#F9E4C2"/><path d="M90.13 89.793v5.282L56.193 75.52v-5.73L90.13 89.792z" fill="#908169"/><path d="M155.312 57.317l33.827-19.555V32.48l-33.827 19.555v5.282z" fill="#F9E4C2"/><path d="M155.312 51.585v5.731l-33.939-19.554v-5.844l33.939 19.667z" fill="#908169"/><path d="M126.276 100.958c-7.292-7.19-3.772-22.586 7.863-34.387 11.635-11.8 26.979-15.538 34.272-8.348 7.292 7.19 3.772 22.586-7.863 34.386-11.635 11.801-26.979 15.539-34.272 8.349z" fill="#C07D9D"/><path d="M167.111 57.09l2.81 2.135-.787.338-3.933-2.922 1.91.45zm-40.346 44.502l3.259 2.36 1.574-3.259-4.833.899z" fill="#3879F0"/><path d="M128.599 102.821c-7.293-7.19-3.773-22.586 7.862-34.386 11.635-11.801 26.979-15.539 34.272-8.349 7.293 7.19 3.772 22.586-7.863 34.387-11.635 11.801-26.979 15.538-34.271 8.348z" fill="#FFC6E1"/><path d="M179.81 144.188l.113 1.685-26.972 15.284v-1.573l26.859-15.396z" fill="#E0C18F"/><path d="M152.951 159.582l-8.766-5.17v1.798l8.766 4.945v-1.573z" fill="#908169"/><path d="M144.185 154.414l26.635-15.396 8.991 5.169-26.86 15.396-8.766-5.169z" fill="#F9E4C2"/><path d="M174.866 139.467v1.91l-26.859 15.284v-1.686l26.859-15.508z" fill="#E0C18F"/><path d="M148.007 154.974l-4.945-3.259v3.708l4.945 2.922v-3.371z" fill="#908169"/><path d="M143.062 151.717l26.635-15.397 5.169 3.147-26.859 15.509-4.945-3.259z" fill="#F9E4C2"/><path d="M89.23 185.88l-14.384 7.979-56.191-32.704v-1.348l14.384-6.069 56.192 30.681v1.461z" fill="#908169"/><path d="M33.04 153.738l24.948 13.374 16.858 25.286v1.461l-56.191-32.704v-1.348l14.385-6.069z" fill="#908169"/><path d="M89.23 184.419l-14.384 7.979-56.191-32.591 14.384-7.53 56.192 32.142z" fill="#F9E4C2"/><path d="M49.898 153.512v8.204l-7.08 3.596v-7.755l7.08-4.045z" fill="#E0C18F"/><path d="M42.817 157.559l-8.091-4.72 7.08-4.046 8.092 4.72-7.08 4.046z" fill="#F9E4C2"/><path d="M42.817 157.558v7.754l-8.091-4.607v-7.867l8.091 4.72z" fill="#908169"/><path d="M60.123 159.693v8.204l-7.08 3.596v-7.754l7.08-4.046z" fill="#E0C18F"/><path d="M53.043 163.74l-8.091-4.72 7.192-4.045 7.979 4.72-7.08 4.045z" fill="#F9E4C2"/><path d="M53.043 163.74v7.754l-8.091-4.608v-7.866l8.091 4.72z" fill="#908169"/><path d="M70.688 165.539v8.204l-7.08 3.709v-7.755l7.08-4.158z" fill="#E0C18F"/><path d="M63.607 169.697l-8.091-4.72 7.08-4.045 8.092 4.607-7.08 4.158z" fill="#F9E4C2"/><path d="M63.607 169.697v7.754l-8.091-4.72v-7.754l8.091 4.72z" fill="#908169"/><path d="M81.476 171.721v8.204l-7.08 3.708v-7.867l7.08-4.045z" fill="#E0C18F"/><path d="M74.395 175.767l-8.091-4.608 7.08-4.046 8.092 4.608-7.08 4.046z" fill="#F9E4C2"/><path d="M74.395 175.766v7.867l-8.091-4.72v-7.755l8.091 4.608z" fill="#908169"/><path d="M129.688 173.968c.225-.113.337-.113.562-.113h.112l.337.225-.112.337v.113c0 .674-.337 1.461-.899 1.685h-.113c0 .113-.112.225-.112.225l-.337-.225c-.225-.112-.225-.337-.225-.674 0-.562.337-1.236.787-1.573z" fill="#1F2024"/><path d="M129.351 175.992c0 .674.337 1.011.899.674.45-.337.899-1.011.899-1.686 0-.674-.337-1.011-.899-.674-.562.337-.899 1.012-.899 1.686z" fill="#1F2024"/><path d="M129.8 175.655c0 .337.225.45.45.337.224-.112.449-.449.449-.787 0-.337-.225-.449-.449-.337-.337.113-.45.45-.45.787zm-8.539 2.584c.225-.112.337-.112.562-.112h.112l.337.225-.112.337v.112c0 .675-.337 1.461-.899 1.686h-.112c0 .112-.113.225-.113.225l-.337-.225c-.225-.112-.225-.337-.225-.674-.112-.45.225-1.237.787-1.574z" fill="#1F2024"/><path d="M120.811 180.263c0 .675.337 1.012.899.675.45-.338.899-1.012.899-1.686 0-.674-.337-1.012-.899-.674-.562.224-.899 1.011-.899 1.685z" fill="#1F2024"/><path d="M121.26 179.926c0 .338.225.45.45.338.224-.113.449-.45.449-.787s-.225-.45-.449-.337c-.225.112-.45.562-.45.786z" fill="#1F2024"/><path d="M120.811 178.801l.449 1.124c.113.337.562.112.562-.225l.337-1.573-1.348.674z" fill="#0036AC"/><path d="M120.923 178.801l.449 1.124c.113.337.562.112.562-.225l.337-1.573-1.348.674z" fill="#FFB7B4"/><path d="M129.352 174.418l.449 1.124c.113.337.562.113.562-.225l.337-1.573-1.348.674z" fill="#0036AC"/><path d="M129.464 174.418l.449 1.124c.113.337.562.113.562-.225l.337-1.573-1.348.674z" fill="#FFB7B4"/><path d="M123.957 170.71c.225-.112.337-.112.562-.112h.113l.337.224-.113.338v.112c0 .674-.337 1.461-.899 1.686h-.112c0 .112-.112.224-.112.224l-.338-.224c-.224-.113-.224-.337-.224-.675 0-.449.337-1.236.786-1.573z" fill="#2A2183"/><path d="M123.621 172.734c0 .674.337 1.011.899.674.449-.337.899-1.011.899-1.685 0-.675-.337-1.012-.899-.675-.562.225-.899 1.012-.899 1.686z" fill="#4B42AE"/><path d="M124.07 172.397c0 .337.224.45.449.337.225-.112.45-.449.45-.786 0-.338-.225-.45-.45-.337-.225.112-.449.449-.449.786z" fill="#2A2183"/><path d="M115.529 174.982c.224-.113.337-.113.562-.113h.112l.337.225-.112.337v.112c0 .675-.337 1.461-.899 1.686h-.113c0 .113-.112.225-.112.225l-.337-.225c-.225-.112-.225-.337-.225-.674-.112-.45.225-1.236.787-1.573z" fill="#1F2024"/><path d="M115.079 177.005c0 .675.337 1.012.899.675.449-.337.899-1.012.899-1.686 0-.674-.337-1.011-.899-.674-.562.225-.899 1.011-.899 1.685z" fill="#1F2024"/><path d="M115.528 176.78c0 .337.224.45.449.337.225-.112.45-.449.45-.787 0-.337-.225-.449-.45-.337-.337 0-.449.45-.449.787z" fill="#0036AC"/><path d="M115.078 175.543l.45 1.124c.112.337.562.113.562-.225l.337-1.573-1.349.674z" fill="#0036AC"/><path d="M115.19 175.543l.45 1.124c.112.337.562.113.562-.225l.337-1.573-1.349.674z" fill="#FFB7B4"/><path d="M123.622 171.159l.45 1.123c.112.338.562.113.562-.224l.337-1.574-1.349.675z" fill="#1D45AA"/><path d="M123.733 171.159l.45 1.123c.112.338.562.113.562-.224l.337-1.574-1.349.675z" fill="#15327D"/><path d="M124.296 172.17c0 .112 0 .112.112.112.113 0 .113-.112.113-.224 0-.113 0-.113-.113-.113 0 .113-.112.225-.112.225z" fill="#0F2559"/><path d="M118.337 180.375c.45 0 1.012-.112 1.461-.337l11.014-6.069c.112 0 .224-.112.224-.225l1.349-4.158c.112-.225.225-.449 0-.562l-3.034-1.798c-.225-.112-.45 0-.675.113-.112.224 0 .449.113.674l2.809 1.686-1.348 3.596-10.901 5.956a2.383 2.383 0 01-2.136 0l-2.472-1.461c-.225-.112-.337-.337-.337-.674 0-.225.112-.45.337-.674l10.114-5.957c.225-.112.337-.449.113-.674-.113-.225-.45-.337-.675-.112l-10.114 5.956c-.562.337-.787.787-.787 1.461 0 .562.337 1.124.787 1.461l2.472 1.461c.562.112 1.124.337 1.686.337z" fill="#FFB7B4"/><path d="M118.338 179.813c.449 0 1.011-.112 1.46-.337l11.014-5.956a.242.242 0 00.225-.225l1.236-4.158c.112-.225.449-.449.225-.562l-3.035-1.798c-.224-.112-.449 0-.674.112-.112.225 0 .45.112.675l2.248 1.573-.899 3.596-10.901 5.957a2.38 2.38 0 01-2.135 0l-2.473-1.461c-.224-.113-.337-.338-.337-.675 0-.225.113-.449.337-.674l10.115-5.956c.224-.113.337-.45.112-.675-.112-.224-.449-.337-.674-.112l-10.115 5.956c-.562.337-.786.787-.786 1.461 0 .562.337 1.124.786 1.461l2.473 1.461c.562.113 1.124.337 1.686.337zm13.598-16.97c.113 0 .337-.112.337-.224l1.461-2.81c.113-.225 0-.449-.225-.562-.224-.112-.449 0-.561.225l-1.461 2.81c-.113.224 0 .449.224.561h.225zm-6.181-3.484c.113 0 .338-.112.338-.225l1.461-2.809c.112-.225 0-.45-.225-.562-.225-.113-.45 0-.562.225l-1.461 2.809c-.112.225 0 .45.225.562h.224z" fill="#1F2024"/><path d="M125.979 155.652c0-.225.113-.562.338-.674.112 0 .112-.113.224 0l7.98 4.72-.562 1.011-7.98-4.607c.113-.113 0-.225 0-.45z" fill="#1F2024"/><path d="M134.071 160.371c0 .225.112.449.337.225.225-.113.337-.45.337-.675 0-.224-.112-.449-.337-.224-.225.112-.337.449-.337.674z" fill="#1F2024"/><path d="M124.519 158.238v6.743l7.642 4.495v-6.742l-7.642-4.496z" fill="#B77896"/><path d="M124.519 164.98l7.642 4.496-12.474 6.181-6.518-3.484 11.35-7.193z" fill="#1F2024"/><path d="M124.519 164.981l-11.351 7.193v-6.856l11.351-7.08v6.743z" fill="#C593AB"/><path d="M124.519 157.676l8.541 5.057-13.374 6.855-7.529-4.27 12.362-7.642zm-4.72 11.35l12.474-6.405-7.642-4.496-11.351 7.08 6.519 3.821z" fill="#FFB7B4"/><path d="M133.06 162.732v7.418l-13.374 6.855v-7.417l13.374-6.856z" fill="#1D42A7"/><path d="M133.06 162.732v7.418l-13.374 6.855v-7.417l13.374-6.856z" fill="#FFC6E1"/><path d="M119.686 177.006l-7.418-4.27v-7.418l7.418 4.271v7.417z" fill="#2453CB"/><path d="M119.686 177.006l-7.418-4.27v-7.418l7.418 4.271v7.417z" fill="#C07D9D"/><path d="M200.937 135.085c.225-.112.337-.112.562-.112h.112l.337.224-.112.338v.112c0 .674-.337 1.461-.899 1.686h-.113c0 .112-.112.224-.112.224l-.337-.224c-.225-.113-.225-.337-.225-.675-.112-.449.337-1.236.787-1.573z" fill="#1F2024"/><path d="M200.487 137.109c0 .674.337 1.011.899.674.45-.337.899-1.011.899-1.685 0-.675-.337-1.012-.899-.675-.449.225-.899 1.012-.899 1.686z" fill="#1F2024"/><path d="M200.936 136.883c0 .338.225.45.449.338.225-.113.45-.45.45-.787s-.225-.45-.45-.337c-.224.112-.449.449-.449.786zm-8.539 2.585c.225-.113.337-.113.562-.113h.112l.337.225-.112.337v.113c0 .674-.337 1.461-.899 1.685h-.113c0 .113-.112.225-.112.225l-.337-.225c-.225-.112-.225-.337-.225-.674 0-.562.337-1.348.787-1.573z" fill="#1F2024"/><path d="M191.947 141.379c0 .674.337 1.011.899.674.45-.337.899-1.012.899-1.686 0-.674-.337-1.011-.899-.674-.449.337-.899 1.011-.899 1.686z" fill="#1F2024"/><path d="M192.396 141.153c0 .337.225.45.449.337.225-.112.45-.449.45-.786 0-.338-.225-.45-.45-.338-.224.113-.449.45-.449.787z" fill="#1F2024"/><path d="M192.059 139.918l.449 1.124c.113.337.562.113.562-.225l.337-1.573-1.348.674z" fill="#0036AC"/><path d="M192.171 139.918l.449 1.124c.113.337.562.113.562-.225l.338-1.573-1.349.674z" fill="#FFB7B4"/><path d="M200.487 135.536l.45 1.123c.112.338.562.113.562-.224l.337-1.574-1.349.675z" fill="#0036AC"/><path d="M200.6 135.536l.449 1.123c.113.338.562.113.562-.224l.337-1.574-1.348.675z" fill="#FFB7B4"/><path d="M195.207 131.937c.225-.113.337-.113.562-.113h.113l.337.225-.113.337v.113c0 .674-.337 1.46-.899 1.685h-.112c0 .113-.112.225-.112.225l-.338-.225c-.224-.112-.224-.337-.224-.674-.113-.562.337-1.349.786-1.573z" fill="#2A2183"/><path d="M194.758 133.845c0 .675.337 1.012.899.675.449-.338.899-1.012.899-1.686 0-.674-.337-1.012-.899-.674-.45.224-.899 1.011-.899 1.685z" fill="#4B42AE"/><path d="M195.206 133.62c0 .337.225.449.45.337.225-.112.449-.45.449-.787s-.224-.449-.449-.337c-.225.113-.45.45-.45.787z" fill="#2A2183"/><path d="M186.665 136.206c.225-.112.337-.112.562-.112h.113l.337.224-.113.338v.112c0 .674-.337 1.461-.899 1.686h-.112c0 .112-.112.225-.112.225l-.338-.225c-.224-.113-.224-.337-.224-.675 0-.561.337-1.348.786-1.573z" fill="#1F2024"/><path d="M186.216 138.115c0 .674.337 1.011.899.674.449-.337.899-1.011.899-1.686 0-.674-.337-1.011-.899-.674-.45.337-.899 1.012-.899 1.686z" fill="#1F2024"/><path d="M186.664 137.889c0 .338.225.45.45.338.225-.113.449-.45.449-.787s-.224-.45-.449-.337c-.225.112-.45.449-.45.786z" fill="#1F2024"/><path d="M186.329 136.768l.45 1.124c.112.337.562.112.562-.225l.337-1.573-1.349.674z" fill="#0036AC"/><path d="M186.441 136.768l.45 1.124c.112.337.562.112.562-.225l.337-1.573-1.349.674z" fill="#FFB7B4"/><path d="M194.759 132.385l.449 1.124c.113.337.562.112.562-.225l.337-1.573-1.348.674z" fill="#1D45AA"/><path d="M194.87 132.385l.45 1.124c.112.337.562.112.562-.225l.337-1.573-1.349.674z" fill="#15327D"/><path d="M195.544 133.397c0 .112 0 .112.112.112.113 0 .113-.112.113-.225 0-.112 0-.112-.113-.112-.112 0-.112.112-.112.225z" fill="#0F2559"/><path d="M189.475 141.488a3.46 3.46 0 001.461-.337l11.013-6.069c.113 0 .225-.112.225-.224l1.349-4.158c.112-.225.224-.45 0-.562l-3.035-1.798c-.224-.113-.449-.001-.674.112-.112.225 0 .449.112.674l2.698 1.574-1.349 3.596-10.901 5.956a2.38 2.38 0 01-2.135 0l-2.473-1.461c-.225-.112-.337-.337-.337-.674 0-.225.112-.45.337-.675l10.115-5.956c.224-.112.337-.449.112-.674-.112-.225-.45-.337-.674-.112l-10.115 5.956c-.562.337-.786.786-.786 1.461 0 .562.337 1.124.786 1.461l2.473 1.461c.786.337 1.348.449 1.798.449z" fill="#FFB7B4"/><path d="M189.475 140.927c.45 0 1.012-.113 1.461-.338l11.014-5.956c.112 0 .224-.112.224-.225l1.237-4.158c.112-.224.449-.449.224-.562l-3.034-1.798c-.225-.112-.45 0-.674.113-.113.224 0 .449.112.674l2.248 1.573-.899 3.597-10.901 5.956a2.383 2.383 0 01-2.136 0l-2.472-1.461c-.225-.113-.337-.337-.337-.674 0-.225.112-.45.337-.675l10.114-5.956c.225-.112.338-.45.113-.674-.113-.225-.45-.337-.675-.113l-10.114 5.957c-.562.337-.787.786-.787 1.461 0 .561.338 1.123.787 1.46l2.472 1.461c.675.225 1.237.338 1.686.338zm13.598-16.857c.112 0 .337-.112.337-.225l1.461-2.809c.112-.225 0-.45-.225-.562-.225-.113-.449 0-.562.225l-1.461 2.809c-.112.225 0 .45.225.562.112-.112.225 0 .225 0zm-6.07-3.484c.113 0 .338-.113.338-.225l1.461-2.81c.112-.224 0-.449-.225-.562-.225-.112-.45 0-.562.225l-1.461 2.81c-.112.224 0 .449.225.562.112-.113.224 0 .224 0z" fill="#1F2024"/><path d="M197.229 116.879c0-.225.112-.562.337-.675.112 0 .112-.112.224 0l7.98 4.72-.562 1.012-7.979-4.608c.112-.225 0-.337 0-.449z" fill="#1F2024"/><path d="M205.208 121.599c0 .225.112.45.337.225.224-.112.337-.449.337-.674 0-.225-.113-.45-.337-.225-.113 0-.337.337-.337.674z" fill="#1F2024"/><path d="M195.768 119.35v6.855l7.642 4.383v-6.743l-7.642-4.495z" fill="#B77896"/><path d="M195.768 126.203l7.642 4.383-12.474 6.181-6.518-3.484 11.35-7.08z" fill="#1F2024"/><path d="M195.768 126.205l-11.351 7.08v-6.855l11.351-7.08v6.855z" fill="#C593AB"/><path d="M195.768 118.787l8.541 5.057-13.374 6.856-7.529-4.271 12.362-7.642zm-4.833 11.463l12.475-6.406-7.642-4.495-11.351 7.08 6.518 3.821z" fill="#FFB7B4"/><path d="M204.309 123.844v7.417l-13.374 6.968v-7.53l13.374-6.855z" fill="#1D42A7"/><path d="M204.309 123.844v7.417l-13.374 6.968v-7.53l13.374-6.855z" fill="#FFC6E1"/><path d="M190.935 138.23l-7.53-4.383v-7.417l7.53 4.27v7.53z" fill="#2453CB"/><path d="M190.935 138.23l-7.53-4.383v-7.417l7.53 4.27v7.53z" fill="#C07D9D"/><defs><linearGradient id="paint0_linear_658_11569" x1="-58" y1="83" x2="231.201" y2="-2.823" gradientUnits="userSpaceOnUse"><stop stop-color="#FFE2B2"/><stop offset=".524" stop-color="#E0C18F"/><stop offset=".885" stop-color="#FFE2B2"/><stop offset="1" stop-color="#FFE2B2"/></linearGradient></defs></svg>