<svg width="254" height="178" fill="none" xmlns="http://www.w3.org/2000/svg"><path opacity=".1" d="M202.972 94.053l-5.626 2.532-11.816-5.908s-25.131 10.315-38.447 17.161c-.609.281-1.219.609-1.828.937l-63.11-31.507L0 109.619l24.944 14.441c-.516-.234 41.354 18.943 0 0 83.51-1.734 83.506-2.625 0 0l49.606 28.695c-.47.235 44.214-21.896 0 0l5.204 3.001 6.142-3.048v.047l50.028 25.038 1.688-.844 20.302.562 39.948-18.567a232.678 232.678 0 0011.815-5.954l30.007-16.364 5.861-13.456 7.408-3.376v-.704l-49.981-25.037z" fill="#000"/><path d="M146.193 109.622l-73.096 36.571V73.05l73.096-36.478v73.05z" fill="#B8A381"/><path d="M73.097 146.193L.047 109.622v-73.05l73.05 36.525v73.096z" fill="#E0C18F"/><path d="M146.194 36.572L73.097 73.096.047 36.525 73.098 0l73.097 36.572z" fill="#FFE2B2"/><path d="M73.097 73.28L.047 36.71v-.14l.142-.094 72.908 36.477v.329z" fill="#E0B96C"/><path d="M73.098 73.28l73.096-36.571v-.14l-.141-.094-72.955 36.477v.329z" fill="#E0CCA4"/><path d="M73.099 82.096v-9.002s-4.173 28.647 0 73.096v-11.44c-1.594-24.053-.797-42.433 0-52.654z" fill="#946F47"/><path d="M73.1 142.296V74.498c-.798 10.221-1.595 43.792 0 67.798z" fill="#6B4D2C"/><path d="M39.527 94.29l-10.503-5.298V51.248l10.503 5.251V94.29z" fill="#1F2024"/><path d="M28.977 51.247l10.55 5.252 73.8-36.384-10.55-5.299-73.8 36.431z" fill="#38393F"/><path d="M24.804 67.516L6.377 62.124 4.221 50.637l18.426 5.392 2.157 11.487z" fill="#fff"/><path d="M9.003 60.998l-.468-.14-1.407-7.456.469.141 1.406 7.455zm.515.141l-.234-.047-1.407-7.455.234.047 1.407 7.455zm.517.142l-.235-.047-1.406-7.455.234.047 1.407 7.455zm.515.184l-.234-.094-1.407-7.455.235.047 1.406 7.502zm.517.142l-.235-.093-1.406-7.455.234.093 1.407 7.455zm.75.188l-.469-.094-1.407-7.455.47.094 1.406 7.455zm1.969.607l-.188-.093-1.407-7.456.188.094 1.407 7.455zm.563.143l-.234-.047-1.407-7.455.188.047 1.453 7.455zm.703.235l-.422-.141-1.406-7.455.422.14 1.406 7.455zm-2.486-.749l-.469-.14-1.407-7.456.422.141 1.454 7.455zm.705.235l-.422-.141-1.407-7.455.422.14 1.407 7.456zm2.53.703l-.422-.141-1.406-7.455.422.14L15.8 62.97zm.518.141l-.235-.048-1.406-7.455.234.047 1.407 7.455zm.514.185L16.6 63.2l-1.407-7.455.235.094 1.406 7.455zm.516.142l-.188-.093-1.453-7.455.234.093 1.407 7.455zm.516.139l-.188-.047-1.453-7.455.234.047 1.407 7.455zm.751.236l-.422-.14-1.407-7.455.422.14 1.407 7.455zm2.014.561l-.234-.047-1.407-7.455.235.047 1.406 7.455zm.517.141l-.234-.047-1.407-7.455.234.047 1.407 7.455zm.75.236l-.469-.14-1.407-7.456.47.141 1.406 7.455zM19.365 64l-.47-.14-1.406-7.456.47.141L19.364 64zm.751.232l-.47-.14-1.406-7.455.47.14 1.406 7.455z" fill="#2C323D"/><path d="M67.94 87.35L44.825 75.767V64.75L67.94 76.331v11.018z" fill="#fff"/><path d="M10.926 102.728l-8.205-4.126c-.328-.14-.563-.047-.563.282v8.205c0 .328.235.656.563.844l8.205 4.126c.328.14.563.047.563-.282v-8.205c0-.328-.282-.703-.563-.844zm.094 8.393c0 .328-.235.422-.563.281l-7.314-3.657a.98.98 0 01-.563-.844v-7.314c0-.328.235-.422.563-.281l7.314 3.657a.98.98 0 01.563.844v7.314z" fill="#2C323D"/><path d="M5.298 107.509l-.516-.281v-5.626l.516.234v5.673z" fill="#2C323D"/><path d="M5.063 100.992l-.75 1.032.75.375.703.375-.703-1.782zm3.752 8.252l-.516-.235v-5.673l.516.281v5.627z" fill="#2C323D"/><path d="M8.58 102.727l-.75 1.078.75.375.703.328-.704-1.781zm-4.969 4.691v-.516l6.377 3.189v.515l-6.377-3.188zm18.381.842l-8.205-4.126c-.328-.141-.562-.047-.562.281v8.205c0 .328.234.657.562.844l8.205 4.126c.329.141.563.047.563-.281v-8.252c0-.282-.281-.657-.563-.797zm.094 8.392c0 .329-.234.422-.563.282l-7.314-3.657a.98.98 0 01-.562-.844v-7.315c0-.328.234-.422.562-.281l7.314 3.657a.98.98 0 01.563.844v7.314z" fill="#2C323D"/><path d="M19.79 112.337c-.704-.328-1.267-1.172-1.267-1.875v-2.907l2.532 1.266v2.907c0 .703-.562.984-1.266.609z" fill="#2C323D"/><path d="M19.977 115.339l-.329-.141v-3.048l.329.141v3.048z" fill="#2C323D"/><path d="M18.57 114.821c0-.141.14-.234.28-.141l1.923.985c.14.094.281.281.281.422l-2.485-1.266zm-3.891-9.188v2.907c0 .703.562 1.547 1.266 1.875.703.328 1.266.047 1.266-.609v-2.907l-2.532-1.266zm2.25 4.032c0 .563-.469.797-.984.516-.563-.282-.985-.938-.985-1.501v-2.625l2.016.984v2.626h-.047z" fill="#2C323D"/><path d="M16.085 113.417l-.281-.188v-3l.281.14v3.048z" fill="#2C323D"/><path d="M14.679 112.899c0-.141.14-.234.281-.141l1.922.985c.141.094.282.281.282.422l-2.485-1.266zm18.378.898l-8.205-4.126c-.329-.141-.563-.047-.563.281v8.205c0 .328.234.657.563.844l8.205 4.126c.328.141.563.047.563-.281v-8.205c0-.329-.282-.704-.563-.844zm.094 8.392c0 .329-.235.422-.563.282l-7.314-3.657a.98.98 0 01-.563-.844v-7.315c0-.328.235-.422.563-.281l7.314 3.657a.98.98 0 01.563.844v7.314z" fill="#2C323D"/><path d="M27.24 115.389c.235-.093.563-.047.891.094.328.188.657.469.891.797.235-.094.563-.047.891.094.328.187.656.469.89.797.235-.094.563-.047.892.094.093.047.14.094.234.14-.14-1.547-1.36-3.282-2.86-4.032-1.5-.75-2.72-.234-2.86 1.172.047 0 .094.047.14.047.376.188.657.469.892.797z" fill="#2C323D"/><path d="M28.461 119.934c-.422-.234-.75-.703-.75-1.125v-.141c0-.094.094-.14.14-.094a.258.258 0 01.141.235v.141c0 .234.188.562.47.656.234.141.468 0 .468-.234v-6.377c0-.094.094-.141.14-.094a.258.258 0 01.141.235v6.376c0 .422-.328.61-.75.422zM76.942 8.063l-19.457 9.752-.563-.328L76.333 7.78l.61.282zm1.923.986l-19.458 9.705-.61-.28 19.46-9.754.61.328zm1.923.935L61.33 19.737l-.61-.328 19.46-9.706.61.281zm1.875.938l-19.41 9.752-.61-.328 19.41-9.705.61.28zm-2.391 40.936L60.814 61.61l-.563-.328 19.411-9.706.61.282zm1.922.986l-19.458 9.705-.609-.281 19.458-9.752.61.328zm1.923.936L64.66 63.531l-.61-.328 19.459-9.706.61.281zm1.875.937l-19.41 9.752-.61-.328 19.41-9.706.61.282z" fill="#2C323D"/><path d="M236.498 105.871l-31.742 15.895-19.177-9.612-81.77 37.931 50.919 23.35 39.947-18.567a232.278 232.278 0 0011.815-5.955l30.008-16.363 9.049-19.693v-.703l-9.049-6.283z" fill="#D690B1"/><path d="M145.022 162.934l9.706 10.502-20.443-8.111 10.737-2.391z" fill="#936078"/><path d="M154.728 173.434l2.532-18.332-12.238 7.83 9.706 10.502zm81.77-40.882l-3.188-15.332 12.284-4.361-9.096 19.693z" fill="#C07D9D"/><path d="M195.565 87.868l50.028 24.991 7.409-3.329v-.704l-50.028-24.334-7.409 2.626v.75z" fill="#BF8B43"/><path d="M195.565 87.118l50.028 25.037 7.409-3.328-50.028-25.038-7.409 3.329z" fill="#FFC6E1"/><path d="M145.022 162.229v.703l12.238-7.83 76.05-37.884 12.284-4.361v-.703l-9.096-6.283-76.706 27.804-14.77 28.554z" fill="#C07D9D"/><path d="M85.897 142.489l50.029 25.038 9.096-4.595v-.703l-50.028-24.334-9.097 3.891v.703z" fill="#936078"/><path d="M85.897 141.786l50.029 25.038 9.096-4.595-50.028-25.038-9.097 4.595zm17.912-20.489l50.918 25.46 25.132-14.348c9.518-5.438 19.317-10.315 29.398-14.722l27.288-11.862-50.919-25.46s-25.131 10.315-38.447 17.16c-14.723 7.549-43.37 23.772-43.37 23.772z" fill="#FFC6E1"/><path d="M94.994 137.191l8.815-15.894 50.919 25.459-9.706 15.473-50.028-25.038z" fill="#E094B8"/><path d="M123.078 157.164l4.267-2.626c.656-.422 1.219-.984 1.594-1.688l7.783-14.394c.188-.375.469-.656.844-.891l6.424-3.891 4.97 2.297-6.611 4.22c-.329.188-.61.469-.798.797l-8.064 14.301c-.328.609-.844 1.125-1.407 1.5l-4.126 2.719-4.876-2.344z" fill="#C1E4B8"/><path d="M162.979 136.488l-9.331-4.689c-.328-.14-.328-.422 0-.562l18.146-9.049c.328-.141.844-.141 1.125 0l9.33 4.688c.329.141.329.422 0 .563l-18.145 9.049c-.281.141-.797.141-1.125 0z" fill="#2C323D"/><path d="M181.358 127.394l-17.207 8.627c-.328.141-.844.141-1.125 0l-8.44-4.22c-.328-.141-.328-.422 0-.563l17.207-8.627c.329-.14.844-.14 1.126 0l8.439 4.22c.328.141.328.422 0 .563z" fill="#fff"/><path d="M164.62 134.8l-.656.328-7.549-3.798.656-.328 7.549 3.798zm3.94-1.969l-.657.328-7.549-3.798.657-.328 7.549 3.798zm.468-.232l-.234.093-7.502-3.751.188-.14 7.548 3.798zm.422-.237l-.187.094-7.549-3.751.234-.094 7.502 3.751zm2.203-1.078l-.187.094-7.549-3.798.234-.094 7.502 3.798zm-6.329 3.143l-.328.187-7.502-3.798.328-.14 7.502 3.751zm5.111-2.533l-.657.328-7.549-3.798.704-.328 7.502 3.798zm.75-.375l-.329.14-7.548-3.751.328-.14 7.549 3.751zm-5.112 2.533l-.328.187-7.549-3.798.329-.14 7.548 3.751zm.704-.33l-.328.14-7.549-3.751.329-.187 7.548 3.798zm.749-.373l-.375.14-7.502-3.751.329-.14 7.548 3.751zm3.8-9.474l.703-.328 7.502 3.798-.656.328-7.549-3.798zm-3.938 1.971l.656-.328 7.549 3.797-.657.329-7.548-3.798zm-.469.232l.234-.094 7.502 3.751-.187.141-7.549-3.798zm-.422.235l.235-.094 7.501 3.751-.187.093-7.549-3.75zm-2.204 1.08l.234-.094 7.502 3.798-.187.093-7.549-3.797zm6.33-3.145l.328-.187 7.549 3.797-.328.141-7.549-3.751zm-5.111 2.533l.656-.328 7.549 3.798-.657.328-7.548-3.798zm-.702.375l.328-.14 7.502 3.751-.329.14-7.501-3.751zm5.11-2.531l.328-.187 7.502 3.75-.328.188-7.502-3.751zm-.751.33l.328-.141 7.549 3.751-.328.188-7.549-3.798zm-.702.373l.328-.14 7.502 3.75-.328.141-7.502-3.751z" fill="#2C323D"/><path d="M175.638 101.371l-12.988-6.517c-.328-.14-.328-.422 0-.563l18.146-9.049c.328-.14.844-.14 1.125 0l12.987 6.517c.329.141.329.422 0 .563l-18.145 9.049c-.281.141-.797.141-1.125 0z" fill="#961010"/><path d="M194.017 92.324l-17.207 8.627c-.328.141-.844.141-1.125 0l-12.097-6.095c-.328-.14-.328-.422 0-.563l17.207-8.627c.329-.14.844-.14 1.126 0l12.096 6.095c.329.141.329.375 0 .563z" fill="#fff"/><path d="M180.28 87.398l-14.816 7.409-.422-.188 14.816-7.408.422.188zm.986.467l-14.817 7.408-.422-.187 14.817-7.408.422.187zm.937.52l-14.816 7.408-.375-.235 14.816-7.408.375.235zm.984.465l-14.816 7.408-.422-.235 14.816-7.408.422.235zm.937.47l-14.816 7.409-.375-.188 14.816-7.408.375.187zm6.236 1.27l-9.331 4.642-.422-.188 9.331-4.688.422.234zm.938.467l-9.33 4.688-.422-.234 9.377-4.642.375.188zm.985.47l-9.331 4.69-.422-.189 9.331-4.688.422.187z" fill="#2C323D"/><path d="M187.547 89.322l-16.832 8.44.187.094 16.88-8.44-.235-.094z" fill="#961010"/><path d="M120.172 115.346l-.75-.141c-.141 0-.235.047-.188.094l.282.375-.75-.141c-.141 0-.235.047-.188.094l.281.375-.75-.141c-.141 0-.234.047-.187.094l.281.375-.75-.14c-.141 0-.235.047-.188.093l.281.376-.75-.141c-.14 0-.234.047-.187.094l.281.375-.75-.141c-.141 0-.235.047-.188.094l.282.375-.751-.141c-.14 0-.234.047-.187.094l.281.375-.75-.14c-.141 0-.234.046-.188.093l.282.375-.75-.14c-.141 0-.235.047-.188.093l.281.376-.75-.141c-.14 0-.234.047-.187.094l.281.375-.75-.141c-.141 0-.235.047-.188.094l.282.375-.751-.141c-.14 0-.234.047-.187.094l.281.375-.75-.14c-.141 0-.234.046-.188.093l.282.375-.75-.14c-.141 0-.235.047-.188.094l.281.375-.75-.141c-.141 0-.234.047-.187.094l.281.375-.75-.141c-.141 0-.235.047-.188.094l.281.375 18.661 9.33.751.141c.14 0 .234-.047.187-.094l-.281-.375.75.141c.141 0 .234-.047.188-.094l-.282-.375.75.141c.141 0 .235-.047.188-.094l-.281-.375.75.141c.14 0 .234-.047.187-.094l-.281-.375.75.14c.141 0 .235-.047.188-.093l-.282-.376.751.141c.14 0 .234-.047.187-.094l-.281-.375.75.141c.141 0 .234-.047.188-.094l-.282-.375.75.141c.141 0 .235-.047.188-.094l-.281-.375.75.14c.141 0 .234-.046.187-.093l-.281-.375.75.14c.141 0 .235-.047.188-.093l-.281-.376.75.141c.14 0 .234-.047.187-.094l-.281-.375.75.141c.141 0 .235-.047.188-.094l-.282-.375.751.141c.14 0 .234-.047.187-.094l-.281-.375.75.14c.141 0 .234-.046.187-.093l-.281-.375.75.14c.141 0 .235-.047.188-.094l-.281-.375.75.141c.14 0 .234-.047.187-.094l-.281-.375-18.661-9.33z" fill="#fff"/><path d="M123.875 122.565c-2.156 1.078-2.156 2.813 0 3.891 2.157 1.079 5.627 1.079 7.784 0 2.156-1.078 2.156-2.813 0-3.891-2.157-1.079-5.627-1.032-7.784 0zm7.362 3.704c-1.923.984-5.064.984-7.033 0-1.923-.985-1.923-2.532 0-3.517 1.922-.984 5.063-.984 7.033 0 1.969.985 1.969 2.579 0 3.517z" fill="#259940"/><path d="M123.97 125.096l-.375-.187 4.876-2.485.422.234-4.923 2.438zm1.079.563l-.422-.235 4.923-2.438.422.188-4.923 2.485zm1.077.515l-.422-.234 4.923-2.438.422.188-4.923 2.484zm1.079.516l-.422-.187 4.876-2.485.422.234-4.876 2.438zm-11.721-6.888l-.422-.188 5.813-2.907.376.188-5.767 2.907zm1.032.513l-.422-.187 5.814-2.907.422.187-5.814 2.907zm1.077.567l-.422-.235 5.814-2.907.422.235-5.814 2.907zm1.079.513l-.422-.187 5.814-2.907.422.187-5.814 2.907z" fill="#259940"/></svg>