<svg width="211" height="181" fill="none" xmlns="http://www.w3.org/2000/svg"><path opacity=".5" d="M139.267 181c2.779 0 5.238-.531 7.055-1.594l56.861-32.411c.748-.426 1.817-1.169 1.817-2.232 0-.85-.855-2.338-3.206-3.719L75.352 66.338C72.787 64.85 69.26 64 65.732 64c-2.778 0-5.237.531-7.054 1.594L1.817 98.005C1.069 98.43 0 99.175 0 100.237c0 .85.855 2.338 3.206 3.719l126.442 74.706c2.672 1.488 6.092 2.338 9.619 2.338z" fill="#E6E6E6"/><path d="M24.124 30.525l30.8 15.1 54.4-31.2-25.8-13.9c-1.3-.7-2.9-.7-4.2 0l-55.2 30z" fill="url(#paint0_linear_638_15226)"/><path d="M9.124 68.024v21.5l45.8 28v-71.9l-26.4-15.1c-2.1-1.2-4.8-.4-5.9 1.8l-10.4 21.9c-2.1 4.3-3.1 9-3.1 13.8z" fill="#E0C18F"/><path d="M54.824 45.626v71.9l54.4-31.4v-71.7l-54.4 31.2z" fill="#BAA37E"/><path d="M41.824 71.025l3.1 1.8c.7.4 1.1 1.1 1.1 1.9v.1c0 .8-.9 1.3-1.6.9l-2.8-1.6c-.7-.4-1.1-1.1-1.1-1.9v-.6c.1-.5.8-.9 1.3-.6z" fill="#44454B"/><path d="M41.724 74.125l2.8 1.6c.7.4 1.5-.1 1.5-.8v.6c0 .8-.9 1.3-1.6.9l-2.8-1.6c-.7-.4-1.1-1.1-1.1-1.9v-.7c.1.8.5 1.5 1.2 1.9z" fill="#1F2024"/><path d="M27.624 36.425c-1.5-.9-3.4-.3-4.1 1.3l-6.2 13.4c-.6 1.3-.1 2.9 1.2 3.6l27.7 16c1.3.7 2.9-.2 2.9-1.7v-17.3c0-1.4-.8-2.7-2-3.4l-19.5-11.9z" fill="#948E85"/><path d="M47.224 69.925c-.2 0-.3 0-.5-.1l-27.7-16c-.8-.5-1.1-1.5-.8-2.3l6.2-13.4c.3-.7 1-1.1 1.7-1.1.3 0 .7.1 1 .3l19.5 11.7c.9.5 1.5 1.5 1.5 2.6v17.3c0 .3-.2.6-.3.7-.1.2-.4.3-.6.3z" fill="#1F2024"/><path d="M19.524 92.324v7.5l-12.6-8c-.5-.3-.8-.9-.8-1.5v-7l13.4 9z" fill="#E0C18F"/><path d="M9.024 83.325v-2.2s-.3.2-.9.5c-3.2 1.6-2.2 2.4-.1 3.7 1.4.8 11.5 7 11.5 7l2-1.3-12.5-7.7z" fill="#FFE2B2"/><path d="M14.924 84.225v14.8l8.1-4.5-.6-14.8-7.5 4.5z" fill="#BAA37E"/><path d="M50.825 106.125c0 4.3-1.5 7.3-3.9 8.8-.1 0-7.3 4.2-7.4 4.3-2.5 1.4-.9-1.8-4.7-4-7.7-4.4-13.9-15.2-13.9-24 0-4.4-4-4.4-1.6-5.8.1 0 7.8-4.3 7.8-4.3 2.5-1.4 5.9-1.1 9.7 1.1 7.7 4.3 14 15.1 14 23.9z" fill="#9E8E73"/><path d="M43.124 110.524c0 8.8-6.2 12.4-13.9 7.9-7.7-4.4-13.9-15.2-13.9-24s6.2-12.4 13.9-7.9c7.6 4.4 13.9 15.1 13.9 24z" fill="#1F2024"/><path d="M39.124 108.125c0 6.3-4.4 8.8-9.9 5.6-5.5-3.2-9.9-10.8-9.9-17.1 0-6.3 4.4-8.8 9.9-5.6 5.4 3.2 9.9 10.9 9.9 17.1z" fill="#FFE2B2"/><path d="M39.125 108.124c0 2-.5 3.6-1.3 4.8-1.7 1.2-4.2 1.2-6.9-.4-5.1-2.9-9.2-10.1-9.2-15.9 0-4.2 2.2-6.6 5.3-6.5.7.2 1.5.6 2.2 1 5.4 3.1 9.9 10.8 9.9 17z" fill="#E0C18F"/><path d="M23.524 89.824c-1.8 1-2.9 3.2-2.9 6.3 0 6.3 4.4 13.9 9.9 17.1 2.1 1.2 4.1 1.6 5.7 1.2-1.8 1-4.3.9-7-.7-5.5-3.2-9.9-10.8-9.9-17.1 0-3.7 1.6-6.2 4.2-6.8z" fill="#908169"/><path d="M32.925 104.024c0 1.6-1.2 2.3-2.6 1.5-1.4-.8-2.6-2.8-2.6-4.5 0-1.6 1.2-2.3 2.6-1.5 1.5.8 2.6 2.8 2.6 4.5z" fill="url(#paint1_radial_638_15226)"/><path d="M29.824 86.224c-3.7-2.1-7-2.4-9.5-1.2 2.3-.6 5.2-.2 8.3 1.6 7.7 4.4 13.9 15.2 13.9 24 0 4.6-1.7 7.7-4.4 9.1 3.4-.9 5.6-4.3 5.6-9.6 0-8.8-6.2-19.5-13.9-23.9z" fill="url(#paint2_radial_638_15226)"/><path d="M29.325 93.925c0 .8.6 1.8 1.3 2.2.7.4 1.3.1 1.3-.7 0-.8-.6-1.8-1.3-2.2-.7-.4-1.3-.1-1.3.7zm0 15.2c0 .8.6 1.8 1.3 2.2.7.4 1.3.1 1.3-.7 0-.8-.6-1.8-1.3-2.2-.7-.5-1.3-.1-1.3.7zm-2.5-15.4c-.5-.9-1.3-1.3-1.8-1.1-.5.3-.5 1.2 0 2.1.5.9 1.3 1.3 1.8 1.1.5-.3.5-1.3 0-2.1zm7.5 17.1c.5.9 1.3 1.3 1.8 1.1.5-.3.5-1.2 0-2.1-.5-.9-1.3-1.3-1.8-1.1-.5.3-.5 1.3 0 2.1zm-11.6-13.1c0 .8.6 1.8 1.3 2.2.7.4 1.3.1 1.3-.7 0-.8-.6-1.8-1.3-2.2-.7-.5-1.3-.1-1.3.7zm13.2 7.6c0 .8.6 1.8 1.3 2.2.7.4 1.3.1 1.3-.7 0-.8-.6-1.8-1.3-2.2-.7-.4-1.3-.1-1.3.7zm-10.9.1c.5.9 1.3 1.3 1.8 1.1.5-.3.5-1.2 0-2.1-.5-.9-1.3-1.3-1.8-1.1-.5.3-.5 1.3 0 2.1zm9.3-5.3c.5.9 1.3 1.3 1.8 1.1.5-.3.5-1.2 0-2.1-.5-.9-1.3-1.3-1.8-1.1-.5.3-.5 1.2 0 2.1z" fill="#1F2024"/><path d="M34.624 104.025c0 1.2-.4 2-1.1 2.4l-1.6 1c-.7.4-.2-.5-1.3-1.1-2.1-1.2-3.8-4.2-3.8-6.6 0-1.2-1.1-1.2-.4-1.6l1.7-1c.7-.4 1.7-.3 2.7.3 2.1 1.2 3.8 4.2 3.8 6.6z" fill="#BAA37E"/><path d="M32.924 105.024c0 2.4-1.7 3.4-3.8 2.2-2.1-1.2-3.8-4.2-3.8-6.6 0-2.4 1.7-3.4 3.8-2.2 2.1 1.2 3.8 4.2 3.8 6.6z" fill="#1F2024"/><path d="M46.624 115.524v-13.1l-10-17.1-14-8.1 8.5-4.9 14 8.2 10 17.1v13.1l-8.5 4.8z" fill="#FFE2B2"/><path d="M46.624 102.425l-10-17.1 8.5-4.8 10 17.1-8.5 4.8z" fill="#EDCF9D"/><path d="M44.224 114.325v-11.2l-9.3-16.1-12.4-7.2-7.6 4.4v14.8l-2.3-1.3v-14.9l9.9-5.7 14.1 8.2 10 17.1v13.2l-2.4-1.3z" fill="#E0C18F"/><path d="M46.323 102.125l-9.9-17.1-13.9-8.1.5-.3 14.1 8.2 10 17.1v13.3l-.8-.4v-12.7z" fill="url(#paint3_radial_638_15226)"/><path d="M14.724 98.125v-14.2l7.6-4.4.2.2-7.1 4v14.8l-.7-.4z" fill="url(#paint4_radial_638_15226)"/><path d="M108.324 131.425v13.2l-44.5-25.8v-13.2l44.5 25.8z" fill="#9F927D"/><path d="M108.324 131.425v13.2l12.5-7.1v-13.3l-12.5 7.2z" fill="url(#paint5_linear_638_15226)"/><path d="M120.824 124.225l-12.5 7.2-44.5-25.8 12.5-7.1 44.5 25.7z" fill="url(#paint6_linear_638_15226)"/><path d="M100.924 142.425l-2.2 1.3-36.9-21.3 2.2-1.3 36.9 21.3z" fill="#BAA37E"/><path d="M61.724 108.925v13.6l2.3-1.3v-13.7l-2.3 1.4z" fill="#BAA37E"/><path d="M58.424 105.225v19.1l43.7 25.3v-19.3l-43.7-25.1zm3.4 5.9l36.9 21.2v11.4l-36.9-21.4v-11.2z" fill="#E0C18F"/><path d="M102.023 130.424v19.2l2.9-1.4v-19.4l-2.9 1.6z" fill="#908169"/><path d="M104.924 128.825l-2.9 1.6-43.6-25.2 2.8-1.5 43.7 25.1z" fill="#FFE2B2"/><path d="M112.824 129.325v25.1l4.3-2.5v-25.2l-4.3 2.6z" fill="#908169"/><path d="M149.823 162.425c0 4.3-1.5 7.3-3.9 8.8-.1 0-7.6 4.4-7.7 4.4-2.5 1.4-.9-1.8-4.7-4-7.6-4.4-13.8-15.1-13.8-23.8 0-4.3-4-4.4-1.6-5.8.1 0 8.1-4.5 8.1-4.5 2.5-1.3 5.9-1.1 9.6 1.1 7.8 4.4 14 15.1 14 23.8z" fill="#72644E"/><path d="M141.824 167.024c0 8.8-6.2 12.3-13.8 7.9-7.6-4.4-13.8-15.1-13.8-23.8 0-8.7 6.2-12.3 13.8-7.9 7.6 4.3 13.8 15 13.8 23.8z" fill="#1F2024"/><path d="M128.724 142.826c-3.7-2.1-7-2.4-9.5-1.2 2.3-.6 5.2-.2 8.3 1.6 7.6 4.4 13.8 15.1 13.8 23.8 0 4.6-1.7 7.7-4.4 9 3.4-.9 5.6-4.3 5.6-9.5 0-8.6-6.2-19.3-13.8-23.7z" fill="url(#paint7_radial_638_15226)"/><path d="M127.923 149.424c-4.9-2.8-8.9-.6-8.9 5.1 0 5.7 4 12.6 8.9 15.4 4.9 2.8 8.9.6 8.9-5.1 0-5.6-4-12.5-8.9-15.4z" fill="#E0C18F"/><path d="M131.124 167.924c-4.9-2.8-8.9-9.8-8.9-15.4 0-1.7.4-3.2 1.1-4.2-2.5.3-4.2 2.6-4.2 6.3 0 5.7 4 12.6 8.9 15.4 3.4 2 6.4 1.5 7.9-.9-1.5.1-3.1-.2-4.8-1.2z" fill="#F2DAB3"/><path d="M134.124 164.024c0 3.5-2.5 4.9-5.5 3.1-3-1.8-5.5-6-5.5-9.5s2.5-4.9 5.5-3.1c3 1.8 5.5 6 5.5 9.5z" fill="#908169"/><path d="M133.723 162.026c0 3-2.1 4.1-4.7 2.7-2.6-1.5-4.7-5.1-4.7-8 0-3 2.1-4.1 4.7-2.7 2.6 1.5 4.7 5.1 4.7 8z" fill="#908169"/><path d="M132.423 162.924c0 3-2.1 4.1-4.7 2.7-2.6-1.5-4.7-5.1-4.7-8 0-3 2.1-4.1 4.7-2.7 2.6 1.5 4.7 5.1 4.7 8z" fill="#1F2024"/><path d="M148.924 150.025v25l-4.5-2.5v-19.9l-31.6-18.2v19.9l-4.4-2.5v-25.1l40.5 23.3z" fill="#908169"/><path d="M148.924 150.125v25l4.3-2.4v-25.2l-4.3 2.6z" fill="#1F2024"/><path d="M155.024 153.724v16.8l-1.6-1.3v-16.8l1.6 1.3z" fill="#9A8B72"/><path d="M155.023 153.724v16.8l53.6-30.8v-16.8l-53.6 30.8z" fill="#E0C18F"/><path d="M208.624 122.925l-53.6 30.8-1.6-1.3 53.6-30.7 1.6 1.2z" fill="url(#paint8_linear_638_15226)"/><path d="M153.224 149.025v18l57.4-33v-18l-57.4 33z" fill="#918269"/><path d="M210.624 116.025l-57.4 33-1.8-1.4 57.5-33 1.7 1.4z" fill="url(#paint9_linear_638_15226)"/><path d="M154.024 88.725v69.9l-95.9-56v-69.6l95.9 55.7z" fill="url(#paint10_linear_638_15226)"/><path d="M149.124 91.525l-86.1-50v58.3l86.1 50.2v-58.5z" fill="url(#paint11_linear_638_15226)"/><path d="M154.024 88.725v69.9l56.9-32.4v-70l-56.9 32.5z" fill="url(#paint12_linear_638_15226)"/><path d="M206.024 123.325v-58.6l-47.1 26.9v58.5l47.1-26.8z" fill="#1F2024"/><path d="M210.924 56.225l-56.9 32.5-95.9-55.7 56.9-32.5 95.9 55.7z" fill="url(#paint13_linear_638_15226)"/><path d="M158.924 96.025l47 27.4.1-.1v-58.6l-47.1 26.9v4.4z" fill="#DCCDB5"/><mask id="a" style="mask-type:luminance" maskUnits="userSpaceOnUse" x="158" y="64" width="49" height="87"><path d="M206.024 123.325v-58.6l-47.1 26.9v58.5l47.1-26.8z" fill="#fff"/></mask><g mask="url(#a)"><path d="M166.224 105.325v21.4l20.6-11.9v-21.6l-20.6 12.1z" fill="#C07D9D"/><path d="M166.224 105.324v21.4l-19.6-11.3v-21.6l19.6 11.5z" fill="#E094B8"/><path d="M146.624 93.824l19.6 11.5 20.6-12.1-19.6-11.4-20.6 12z" fill="#FFC6E1"/><path opacity=".5" d="M146.624 93.825l19.6 11.5 20.6-12.1-20.6 11.8-19.6-11.2z" fill="url(#paint14_linear_638_15226)"/><path d="M174.924 100.324v5.7l4.7-2.7v-5.9l-4.7 2.9z" fill="#1F2024"/><path d="M155.424 88.823l19.6 11.5 4.6-2.9-19.6-11.4-4.6 2.8z" fill="#42444B"/></g><path d="M186.424 116.225v13.6l13.2-7.6v-13.7l-13.2 7.7z" fill="#C07D9D"/><path d="M186.523 116.224v13.6l-12.5-7.2v-13.7l12.5 7.3z" fill="#E094B8"/><path d="M174.023 108.925l12.5 7.3 13.1-7.7-12.5-7.3-13.1 7.7z" fill="#FFC6E1"/><path opacity=".5" d="M174.023 108.925l12.5 7.3 13.1-7.7-13.1 7.5-12.5-7.1z" fill="url(#paint15_linear_638_15226)"/><path d="M192.023 113.025v3.6l3-1.6v-3.8l-3 1.8z" fill="#1F2024"/><path d="M179.623 105.724l12.4 7.3 3-1.8-12.5-7.3-2.9 1.8z" fill="#42444B"/><path d="M129.223 118.325c-5.1-2.9-9.2-10.1-9.2-15.9 0-5.8 4.1-8.2 9.2-5.3 5.1 2.9 9.2 10.1 9.2 15.9 0 5.9-4.1 8.3-9.2 5.3zm0-19c-4.1-2.4-7.4-.5-7.4 4.2s3.3 10.4 7.4 12.8c4.1 2.4 7.4.5 7.4-4.2 0-4.8-3.3-10.5-7.4-12.8z" fill="#1F2024"/><path d="M134.724 112.125l-6.5-3.7v-8c0-.6.4-.8.9-.5.5.3.9 1 .9 1.6v5.9l4.6 2.7c.5.3.9 1 .9 1.6.2.5-.3.7-.8.4zm10.8-7.4s-.6 2.3-2.3 2.8c-2 .7-3.7-1-3.7-1s1.5.5 2.7-1.8c2-3.9-.2-10.7-.2-10.7s-1.6 6.4-6.4 3.6c-3.1-1.8-6.9-2.9-8.2-1.9.6.2 1.2.5 1.8.8 5.4 3.1 9.8 10.7 9.8 17 0 1.3-.2 2.4-.5 3.3 1.5-.4 4-1.3 5.5-3.1 2.1-2.5 1.5-9 1.5-9z" fill="#1F2024"/><mask id="b" style="mask-type:luminance" maskUnits="userSpaceOnUse" x="127" y="94" width="19" height="23"><path d="M145.524 104.725s-.6 2.3-2.3 2.8c-2 .7-3.7-1-3.7-1s1.5.5 2.7-1.8c2-3.9-.2-10.7-.2-10.7s-1.6 6.4-6.4 3.6c-3.1-1.8-6.9-2.9-8.2-1.9.6.2 1.2.5 1.8.8 5.4 3.1 9.8 10.7 9.8 17 0 1.3-.2 2.4-.5 3.3 1.5-.4 4-1.3 5.5-3.1 2.1-2.5 1.5-9 1.5-9z" fill="#fff"/></mask><g mask="url(#b)"><path d="M146.123 98.326l-7.6-6.4 7.6 4.4v2z" fill="#1F2024"/></g><mask id="c" style="mask-type:luminance" maskUnits="userSpaceOnUse" x="127" y="94" width="19" height="23"><path d="M145.524 104.725s-.6 2.3-2.3 2.8c-2 .7-3.7-1-3.7-1s1.5.5 2.7-1.8c2-3.9-.2-10.7-.2-10.7s-1.6 6.4-6.4 3.6c-3.1-1.8-6.9-2.9-8.2-1.9.6.2 1.2.5 1.8.8 5.4 3.1 9.8 10.7 9.8 17 0 1.3-.2 2.4-.5 3.3 1.5-.4 4-1.3 5.5-3.1 2.1-2.5 1.5-9 1.5-9z" fill="#fff"/></mask><g mask="url(#c)"><path d="M146.124 98.725l-9-7.6 1.4.8 7.6 6.4v.4z" fill="#1F2024"/></g><mask id="d" style="mask-type:luminance" maskUnits="userSpaceOnUse" x="127" y="94" width="19" height="23"><path d="M145.524 104.725s-.6 2.3-2.3 2.8c-2 .7-3.7-1-3.7-1s1.5.5 2.7-1.8c2-3.9-.2-10.7-.2-10.7s-1.6 6.4-6.4 3.6c-3.1-1.8-6.9-2.9-8.2-1.9.6.2 1.2.5 1.8.8 5.4 3.1 9.8 10.7 9.8 17 0 1.3-.2 2.4-.5 3.3 1.5-.4 4-1.3 5.5-3.1 2.1-2.5 1.5-9 1.5-9z" fill="#fff"/></mask><g mask="url(#d)"><path d="M146.124 99.026l-10.5-8.7 1.5.8 9 7.6v.3z" fill="#1F2024"/></g><mask id="e" style="mask-type:luminance" maskUnits="userSpaceOnUse" x="127" y="94" width="19" height="23"><path d="M145.524 104.725s-.6 2.3-2.3 2.8c-2 .7-3.7-1-3.7-1s1.5.5 2.7-1.8c2-3.9-.2-10.7-.2-10.7s-1.6 6.4-6.4 3.6c-3.1-1.8-6.9-2.9-8.2-1.9.6.2 1.2.5 1.8.8 5.4 3.1 9.8 10.7 9.8 17 0 1.3-.2 2.4-.5 3.3 1.5-.4 4-1.3 5.5-3.1 2.1-2.5 1.5-9 1.5-9z" fill="#fff"/></mask><g mask="url(#e)"><path d="M146.124 99.426l-11.9-10 1.4.9 10.5 8.7v.4z" fill="#1F2024"/></g><mask id="f" style="mask-type:luminance" maskUnits="userSpaceOnUse" x="127" y="94" width="19" height="23"><path d="M145.524 104.725s-.6 2.3-2.3 2.8c-2 .7-3.7-1-3.7-1s1.5.5 2.7-1.8c2-3.9-.2-10.7-.2-10.7s-1.6 6.4-6.4 3.6c-3.1-1.8-6.9-2.9-8.2-1.9.6.2 1.2.5 1.8.8 5.4 3.1 9.8 10.7 9.8 17 0 1.3-.2 2.4-.5 3.3 1.5-.4 4-1.3 5.5-3.1 2.1-2.5 1.5-9 1.5-9z" fill="#fff"/></mask><g mask="url(#f)"><path d="M146.124 99.825l-13.4-11.2 1.5.8 11.9 10v.4z" fill="#1F2024"/></g><mask id="g" style="mask-type:luminance" maskUnits="userSpaceOnUse" x="127" y="94" width="19" height="23"><path d="M145.524 104.725s-.6 2.3-2.3 2.8c-2 .7-3.7-1-3.7-1s1.5.5 2.7-1.8c2-3.9-.2-10.7-.2-10.7s-1.6 6.4-6.4 3.6c-3.1-1.8-6.9-2.9-8.2-1.9.6.2 1.2.5 1.8.8 5.4 3.1 9.8 10.7 9.8 17 0 1.3-.2 2.4-.5 3.3 1.5-.4 4-1.3 5.5-3.1 2.1-2.5 1.5-9 1.5-9z" fill="#fff"/></mask><g mask="url(#g)"><path d="M146.124 100.126l-14.8-12.3 1.4.8 13.4 11.2v.3z" fill="#1F2024"/></g><mask id="h" style="mask-type:luminance" maskUnits="userSpaceOnUse" x="127" y="94" width="19" height="23"><path d="M145.524 104.725s-.6 2.3-2.3 2.8c-2 .7-3.7-1-3.7-1s1.5.5 2.7-1.8c2-3.9-.2-10.7-.2-10.7s-1.6 6.4-6.4 3.6c-3.1-1.8-6.9-2.9-8.2-1.9.6.2 1.2.5 1.8.8 5.4 3.1 9.8 10.7 9.8 17 0 1.3-.2 2.4-.5 3.3 1.5-.4 4-1.3 5.5-3.1 2.1-2.5 1.5-9 1.5-9z" fill="#fff"/></mask><g mask="url(#h)"><path d="M146.124 100.526l-16.2-13.6 1.4.9 14.8 12.3v.4z" fill="#1F2024"/></g><mask id="i" style="mask-type:luminance" maskUnits="userSpaceOnUse" x="127" y="94" width="19" height="23"><path d="M145.524 104.725s-.6 2.3-2.3 2.8c-2 .7-3.7-1-3.7-1s1.5.5 2.7-1.8c2-3.9-.2-10.7-.2-10.7s-1.6 6.4-6.4 3.6c-3.1-1.8-6.9-2.9-8.2-1.9.6.2 1.2.5 1.8.8 5.4 3.1 9.8 10.7 9.8 17 0 1.3-.2 2.4-.5 3.3 1.5-.4 4-1.3 5.5-3.1 2.1-2.5 1.5-9 1.5-9z" fill="#fff"/></mask><g mask="url(#i)"><path d="M146.124 100.925l-17.7-14.8 1.5.8 16.2 13.6v.4z" fill="#1F2024"/></g><mask id="j" style="mask-type:luminance" maskUnits="userSpaceOnUse" x="127" y="94" width="19" height="23"><path d="M145.524 104.725s-.6 2.3-2.3 2.8c-2 .7-3.7-1-3.7-1s1.5.5 2.7-1.8c2-3.9-.2-10.7-.2-10.7s-1.6 6.4-6.4 3.6c-3.1-1.8-6.9-2.9-8.2-1.9.6.2 1.2.5 1.8.8 5.4 3.1 9.8 10.7 9.8 17 0 1.3-.2 2.4-.5 3.3 1.5-.4 4-1.3 5.5-3.1 2.1-2.5 1.5-9 1.5-9z" fill="#fff"/></mask><g mask="url(#j)"><path d="M146.124 101.326l-18-15.1v-.3l.3.2 17.7 14.8v.4z" fill="#1F2024"/></g><mask id="k" style="mask-type:luminance" maskUnits="userSpaceOnUse" x="127" y="94" width="19" height="23"><path d="M145.524 104.725s-.6 2.3-2.3 2.8c-2 .7-3.7-1-3.7-1s1.5.5 2.7-1.8c2-3.9-.2-10.7-.2-10.7s-1.6 6.4-6.4 3.6c-3.1-1.8-6.9-2.9-8.2-1.9.6.2 1.2.5 1.8.8 5.4 3.1 9.8 10.7 9.8 17 0 1.3-.2 2.4-.5 3.3 1.5-.4 4-1.3 5.5-3.1 2.1-2.5 1.5-9 1.5-9z" fill="#fff"/></mask><g mask="url(#k)"><path d="M146.123 101.625l-18.1-15.1.1-.3 18 15.1v.3z" fill="#1F2024"/></g><mask id="l" style="mask-type:luminance" maskUnits="userSpaceOnUse" x="127" y="94" width="19" height="23"><path d="M145.524 104.725s-.6 2.3-2.3 2.8c-2 .7-3.7-1-3.7-1s1.5.5 2.7-1.8c2-3.9-.2-10.7-.2-10.7s-1.6 6.4-6.4 3.6c-3.1-1.8-6.9-2.9-8.2-1.9.6.2 1.2.5 1.8.8 5.4 3.1 9.8 10.7 9.8 17 0 1.3-.2 2.4-.5 3.3 1.5-.4 4-1.3 5.5-3.1 2.1-2.5 1.5-9 1.5-9z" fill="#fff"/></mask><g mask="url(#l)"><path d="M146.124 102.025l-18.2-15.2.1-.3 18.1 15.1v.4z" fill="#1F2024"/></g><mask id="m" style="mask-type:luminance" maskUnits="userSpaceOnUse" x="127" y="94" width="19" height="23"><path d="M145.524 104.725s-.6 2.3-2.3 2.8c-2 .7-3.7-1-3.7-1s1.5.5 2.7-1.8c2-3.9-.2-10.7-.2-10.7s-1.6 6.4-6.4 3.6c-3.1-1.8-6.9-2.9-8.2-1.9.6.2 1.2.5 1.8.8 5.4 3.1 9.8 10.7 9.8 17 0 1.3-.2 2.4-.5 3.3 1.5-.4 4-1.3 5.5-3.1 2.1-2.5 1.5-9 1.5-9z" fill="#fff"/></mask><g mask="url(#m)"><path d="M146.124 102.426l-18.2-15.3v-.3l18.2 15.2v.4z" fill="#1F2024"/></g><mask id="n" style="mask-type:luminance" maskUnits="userSpaceOnUse" x="127" y="94" width="19" height="23"><path d="M145.524 104.725s-.6 2.3-2.3 2.8c-2 .7-3.7-1-3.7-1s1.5.5 2.7-1.8c2-3.9-.2-10.7-.2-10.7s-1.6 6.4-6.4 3.6c-3.1-1.8-6.9-2.9-8.2-1.9.6.2 1.2.5 1.8.8 5.4 3.1 9.8 10.7 9.8 17 0 1.3-.2 2.4-.5 3.3 1.5-.4 4-1.3 5.5-3.1 2.1-2.5 1.5-9 1.5-9z" fill="#fff"/></mask><g mask="url(#n)"><path d="M146.124 102.725l-18.3-15.3.1-.3 18.2 15.3v.3z" fill="#1F2024"/></g><mask id="o" style="mask-type:luminance" maskUnits="userSpaceOnUse" x="127" y="94" width="19" height="23"><path d="M145.524 104.725s-.6 2.3-2.3 2.8c-2 .7-3.7-1-3.7-1s1.5.5 2.7-1.8c2-3.9-.2-10.7-.2-10.7s-1.6 6.4-6.4 3.6c-3.1-1.8-6.9-2.9-8.2-1.9.6.2 1.2.5 1.8.8 5.4 3.1 9.8 10.7 9.8 17 0 1.3-.2 2.4-.5 3.3 1.5-.4 4-1.3 5.5-3.1 2.1-2.5 1.5-9 1.5-9z" fill="#fff"/></mask><g mask="url(#o)"><path d="M146.124 103.126l-18.4-15.4.1-.3 18.3 15.3v.4z" fill="#1F2024"/></g><mask id="p" style="mask-type:luminance" maskUnits="userSpaceOnUse" x="127" y="94" width="19" height="23"><path d="M145.524 104.725s-.6 2.3-2.3 2.8c-2 .7-3.7-1-3.7-1s1.5.5 2.7-1.8c2-3.9-.2-10.7-.2-10.7s-1.6 6.4-6.4 3.6c-3.1-1.8-6.9-2.9-8.2-1.9.6.2 1.2.5 1.8.8 5.4 3.1 9.8 10.7 9.8 17 0 1.3-.2 2.4-.5 3.3 1.5-.4 4-1.3 5.5-3.1 2.1-2.5 1.5-9 1.5-9z" fill="#fff"/></mask><g mask="url(#p)"><path d="M146.124 103.525l-18.5-15.5.1-.3 18.4 15.4v.4z" fill="#1F2024"/></g><mask id="q" style="mask-type:luminance" maskUnits="userSpaceOnUse" x="127" y="94" width="19" height="23"><path d="M145.524 104.725s-.6 2.3-2.3 2.8c-2 .7-3.7-1-3.7-1s1.5.5 2.7-1.8c2-3.9-.2-10.7-.2-10.7s-1.6 6.4-6.4 3.6c-3.1-1.8-6.9-2.9-8.2-1.9.6.2 1.2.5 1.8.8 5.4 3.1 9.8 10.7 9.8 17 0 1.3-.2 2.4-.5 3.3 1.5-.4 4-1.3 5.5-3.1 2.1-2.5 1.5-9 1.5-9z" fill="#fff"/></mask><g mask="url(#q)"><path d="M146.124 103.825l-18.5-15.4v-.4l18.5 15.5v.3z" fill="#1F2024"/></g><mask id="r" style="mask-type:luminance" maskUnits="userSpaceOnUse" x="127" y="94" width="19" height="23"><path d="M145.524 104.725s-.6 2.3-2.3 2.8c-2 .7-3.7-1-3.7-1s1.5.5 2.7-1.8c2-3.9-.2-10.7-.2-10.7s-1.6 6.4-6.4 3.6c-3.1-1.8-6.9-2.9-8.2-1.9.6.2 1.2.5 1.8.8 5.4 3.1 9.8 10.7 9.8 17 0 1.3-.2 2.4-.5 3.3 1.5-.4 4-1.3 5.5-3.1 2.1-2.5 1.5-9 1.5-9z" fill="#fff"/></mask><g mask="url(#r)"><path d="M146.123 104.226l-18.6-15.5.1-.3 18.5 15.4v.4z" fill="#1F2024"/></g><mask id="s" style="mask-type:luminance" maskUnits="userSpaceOnUse" x="127" y="94" width="19" height="23"><path d="M145.524 104.725s-.6 2.3-2.3 2.8c-2 .7-3.7-1-3.7-1s1.5.5 2.7-1.8c2-3.9-.2-10.7-.2-10.7s-1.6 6.4-6.4 3.6c-3.1-1.8-6.9-2.9-8.2-1.9.6.2 1.2.5 1.8.8 5.4 3.1 9.8 10.7 9.8 17 0 1.3-.2 2.4-.5 3.3 1.5-.4 4-1.3 5.5-3.1 2.1-2.5 1.5-9 1.5-9z" fill="#fff"/></mask><g mask="url(#s)"><path d="M146.124 104.625l-18.7-15.6.1-.3 18.6 15.5v.4z" fill="#1F2024"/></g><mask id="t" style="mask-type:luminance" maskUnits="userSpaceOnUse" x="127" y="94" width="19" height="23"><path d="M145.524 104.725s-.6 2.3-2.3 2.8c-2 .7-3.7-1-3.7-1s1.5.5 2.7-1.8c2-3.9-.2-10.7-.2-10.7s-1.6 6.4-6.4 3.6c-3.1-1.8-6.9-2.9-8.2-1.9.6.2 1.2.5 1.8.8 5.4 3.1 9.8 10.7 9.8 17 0 1.3-.2 2.4-.5 3.3 1.5-.4 4-1.3 5.5-3.1 2.1-2.5 1.5-9 1.5-9z" fill="#fff"/></mask><g mask="url(#t)"><path d="M146.124 105.025l-18.7-15.7v-.3l18.7 15.6v.4z" fill="#1F2024"/></g><mask id="u" style="mask-type:luminance" maskUnits="userSpaceOnUse" x="127" y="94" width="19" height="23"><path d="M145.524 104.725s-.6 2.3-2.3 2.8c-2 .7-3.7-1-3.7-1s1.5.5 2.7-1.8c2-3.9-.2-10.7-.2-10.7s-1.6 6.4-6.4 3.6c-3.1-1.8-6.9-2.9-8.2-1.9.6.2 1.2.5 1.8.8 5.4 3.1 9.8 10.7 9.8 17 0 1.3-.2 2.4-.5 3.3 1.5-.4 4-1.3 5.5-3.1 2.1-2.5 1.5-9 1.5-9z" fill="#fff"/></mask><g mask="url(#u)"><path d="M146.124 105.326l-18.7-15.6v-.4l18.7 15.7v.3z" fill="#1F2024"/></g><mask id="v" style="mask-type:luminance" maskUnits="userSpaceOnUse" x="127" y="94" width="19" height="23"><path d="M145.524 104.725s-.6 2.3-2.3 2.8c-2 .7-3.7-1-3.7-1s1.5.5 2.7-1.8c2-3.9-.2-10.7-.2-10.7s-1.6 6.4-6.4 3.6c-3.1-1.8-6.9-2.9-8.2-1.9.6.2 1.2.5 1.8.8 5.4 3.1 9.8 10.7 9.8 17 0 1.3-.2 2.4-.5 3.3 1.5-.4 4-1.3 5.5-3.1 2.1-2.5 1.5-9 1.5-9z" fill="#fff"/></mask><g mask="url(#v)"><path d="M146.124 105.725l-18.7-15.6v-.4l18.7 15.6v.4z" fill="#1F2024"/></g><mask id="w" style="mask-type:luminance" maskUnits="userSpaceOnUse" x="127" y="94" width="19" height="23"><path d="M145.524 104.725s-.6 2.3-2.3 2.8c-2 .7-3.7-1-3.7-1s1.5.5 2.7-1.8c2-3.9-.2-10.7-.2-10.7s-1.6 6.4-6.4 3.6c-3.1-1.8-6.9-2.9-8.2-1.9.6.2 1.2.5 1.8.8 5.4 3.1 9.8 10.7 9.8 17 0 1.3-.2 2.4-.5 3.3 1.5-.4 4-1.3 5.5-3.1 2.1-2.5 1.5-9 1.5-9z" fill="#fff"/></mask><g mask="url(#w)"><path d="M146.124 106.125l-18.7-15.7v-.3l18.7 15.6v.4z" fill="#1F2024"/></g><mask id="x" style="mask-type:luminance" maskUnits="userSpaceOnUse" x="127" y="94" width="19" height="23"><path d="M145.524 104.725s-.6 2.3-2.3 2.8c-2 .7-3.7-1-3.7-1s1.5.5 2.7-1.8c2-3.9-.2-10.7-.2-10.7s-1.6 6.4-6.4 3.6c-3.1-1.8-6.9-2.9-8.2-1.9.6.2 1.2.5 1.8.8 5.4 3.1 9.8 10.7 9.8 17 0 1.3-.2 2.4-.5 3.3 1.5-.4 4-1.3 5.5-3.1 2.1-2.5 1.5-9 1.5-9z" fill="#fff"/></mask><g mask="url(#x)"><path d="M146.124 106.426l-18.7-15.6v-.4l18.7 15.7v.3z" fill="#1F2024"/></g><mask id="y" style="mask-type:luminance" maskUnits="userSpaceOnUse" x="127" y="94" width="19" height="23"><path d="M145.524 104.725s-.6 2.3-2.3 2.8c-2 .7-3.7-1-3.7-1s1.5.5 2.7-1.8c2-3.9-.2-10.7-.2-10.7s-1.6 6.4-6.4 3.6c-3.1-1.8-6.9-2.9-8.2-1.9.6.2 1.2.5 1.8.8 5.4 3.1 9.8 10.7 9.8 17 0 1.3-.2 2.4-.5 3.3 1.5-.4 4-1.3 5.5-3.1 2.1-2.5 1.5-9 1.5-9z" fill="#fff"/></mask><g mask="url(#y)"><path d="M146.124 106.826l-18.7-15.6v-.4l18.7 15.6v.4z" fill="#1F2024"/></g><mask id="z" style="mask-type:luminance" maskUnits="userSpaceOnUse" x="127" y="94" width="19" height="23"><path d="M145.524 104.725s-.6 2.3-2.3 2.8c-2 .7-3.7-1-3.7-1s1.5.5 2.7-1.8c2-3.9-.2-10.7-.2-10.7s-1.6 6.4-6.4 3.6c-3.1-1.8-6.9-2.9-8.2-1.9.6.2 1.2.5 1.8.8 5.4 3.1 9.8 10.7 9.8 17 0 1.3-.2 2.4-.5 3.3 1.5-.4 4-1.3 5.5-3.1 2.1-2.5 1.5-9 1.5-9z" fill="#fff"/></mask><g mask="url(#z)"><path d="M146.124 107.225l-18.7-15.7v-.3l18.7 15.6v.4z" fill="#1F2024"/></g><mask id="A" style="mask-type:luminance" maskUnits="userSpaceOnUse" x="127" y="94" width="19" height="23"><path d="M145.524 104.725s-.6 2.3-2.3 2.8c-2 .7-3.7-1-3.7-1s1.5.5 2.7-1.8c2-3.9-.2-10.7-.2-10.7s-1.6 6.4-6.4 3.6c-3.1-1.8-6.9-2.9-8.2-1.9.6.2 1.2.5 1.8.8 5.4 3.1 9.8 10.7 9.8 17 0 1.3-.2 2.4-.5 3.3 1.5-.4 4-1.3 5.5-3.1 2.1-2.5 1.5-9 1.5-9z" fill="#fff"/></mask><g mask="url(#A)"><path d="M146.124 107.525l-18.7-15.6v-.4l18.7 15.7v.3z" fill="#1F2024"/></g><mask id="B" style="mask-type:luminance" maskUnits="userSpaceOnUse" x="127" y="94" width="19" height="23"><path d="M145.524 104.725s-.6 2.3-2.3 2.8c-2 .7-3.7-1-3.7-1s1.5.5 2.7-1.8c2-3.9-.2-10.7-.2-10.7s-1.6 6.4-6.4 3.6c-3.1-1.8-6.9-2.9-8.2-1.9.6.2 1.2.5 1.8.8 5.4 3.1 9.8 10.7 9.8 17 0 1.3-.2 2.4-.5 3.3 1.5-.4 4-1.3 5.5-3.1 2.1-2.5 1.5-9 1.5-9z" fill="#fff"/></mask><g mask="url(#B)"><path d="M146.124 107.926l-18.7-15.6v-.4l18.7 15.6v.4z" fill="#1F2024"/></g><mask id="C" style="mask-type:luminance" maskUnits="userSpaceOnUse" x="127" y="94" width="19" height="23"><path d="M145.524 104.725s-.6 2.3-2.3 2.8c-2 .7-3.7-1-3.7-1s1.5.5 2.7-1.8c2-3.9-.2-10.7-.2-10.7s-1.6 6.4-6.4 3.6c-3.1-1.8-6.9-2.9-8.2-1.9.6.2 1.2.5 1.8.8 5.4 3.1 9.8 10.7 9.8 17 0 1.3-.2 2.4-.5 3.3 1.5-.4 4-1.3 5.5-3.1 2.1-2.5 1.5-9 1.5-9z" fill="#fff"/></mask><g mask="url(#C)"><path d="M146.124 108.326l-18.7-15.7v-.3l18.7 15.6v.4z" fill="#1F2024"/></g><mask id="D" style="mask-type:luminance" maskUnits="userSpaceOnUse" x="127" y="94" width="19" height="23"><path d="M145.524 104.725s-.6 2.3-2.3 2.8c-2 .7-3.7-1-3.7-1s1.5.5 2.7-1.8c2-3.9-.2-10.7-.2-10.7s-1.6 6.4-6.4 3.6c-3.1-1.8-6.9-2.9-8.2-1.9.6.2 1.2.5 1.8.8 5.4 3.1 9.8 10.7 9.8 17 0 1.3-.2 2.4-.5 3.3 1.5-.4 4-1.3 5.5-3.1 2.1-2.5 1.5-9 1.5-9z" fill="#fff"/></mask><g mask="url(#D)"><path d="M146.124 108.725l-18.7-15.7v-.4l18.7 15.7v.4z" fill="#1F2024"/></g><mask id="E" style="mask-type:luminance" maskUnits="userSpaceOnUse" x="127" y="94" width="19" height="23"><path d="M145.524 104.725s-.6 2.3-2.3 2.8c-2 .7-3.7-1-3.7-1s1.5.5 2.7-1.8c2-3.9-.2-10.7-.2-10.7s-1.6 6.4-6.4 3.6c-3.1-1.8-6.9-2.9-8.2-1.9.6.2 1.2.5 1.8.8 5.4 3.1 9.8 10.7 9.8 17 0 1.3-.2 2.4-.5 3.3 1.5-.4 4-1.3 5.5-3.1 2.1-2.5 1.5-9 1.5-9z" fill="#fff"/></mask><g mask="url(#E)"><path d="M146.124 109.025l-18.7-15.6v-.4l18.7 15.7v.3z" fill="#1F2024"/></g><mask id="F" style="mask-type:luminance" maskUnits="userSpaceOnUse" x="127" y="94" width="19" height="23"><path d="M145.524 104.725s-.6 2.3-2.3 2.8c-2 .7-3.7-1-3.7-1s1.5.5 2.7-1.8c2-3.9-.2-10.7-.2-10.7s-1.6 6.4-6.4 3.6c-3.1-1.8-6.9-2.9-8.2-1.9.6.2 1.2.5 1.8.8 5.4 3.1 9.8 10.7 9.8 17 0 1.3-.2 2.4-.5 3.3 1.5-.4 4-1.3 5.5-3.1 2.1-2.5 1.5-9 1.5-9z" fill="#fff"/></mask><g mask="url(#F)"><path d="M146.124 109.426l-18.7-15.6v-.4l18.7 15.6v.4z" fill="#1F2024"/></g><mask id="G" style="mask-type:luminance" maskUnits="userSpaceOnUse" x="127" y="94" width="19" height="23"><path d="M145.524 104.725s-.6 2.3-2.3 2.8c-2 .7-3.7-1-3.7-1s1.5.5 2.7-1.8c2-3.9-.2-10.7-.2-10.7s-1.6 6.4-6.4 3.6c-3.1-1.8-6.9-2.9-8.2-1.9.6.2 1.2.5 1.8.8 5.4 3.1 9.8 10.7 9.8 17 0 1.3-.2 2.4-.5 3.3 1.5-.4 4-1.3 5.5-3.1 2.1-2.5 1.5-9 1.5-9z" fill="#fff"/></mask><g mask="url(#G)"><path d="M146.124 109.826l-18.7-15.7v-.3l18.7 15.6v.4z" fill="#1F2024"/></g><mask id="H" style="mask-type:luminance" maskUnits="userSpaceOnUse" x="127" y="94" width="19" height="23"><path d="M145.524 104.725s-.6 2.3-2.3 2.8c-2 .7-3.7-1-3.7-1s1.5.5 2.7-1.8c2-3.9-.2-10.7-.2-10.7s-1.6 6.4-6.4 3.6c-3.1-1.8-6.9-2.9-8.2-1.9.6.2 1.2.5 1.8.8 5.4 3.1 9.8 10.7 9.8 17 0 1.3-.2 2.4-.5 3.3 1.5-.4 4-1.3 5.5-3.1 2.1-2.5 1.5-9 1.5-9z" fill="#fff"/></mask><g mask="url(#H)"><path d="M146.124 110.125l-18.7-15.6v-.4l18.7 15.7v.3z" fill="#1F2024"/></g><mask id="I" style="mask-type:luminance" maskUnits="userSpaceOnUse" x="127" y="94" width="19" height="23"><path d="M145.524 104.725s-.6 2.3-2.3 2.8c-2 .7-3.7-1-3.7-1s1.5.5 2.7-1.8c2-3.9-.2-10.7-.2-10.7s-1.6 6.4-6.4 3.6c-3.1-1.8-6.9-2.9-8.2-1.9.6.2 1.2.5 1.8.8 5.4 3.1 9.8 10.7 9.8 17 0 1.3-.2 2.4-.5 3.3 1.5-.4 4-1.3 5.5-3.1 2.1-2.5 1.5-9 1.5-9z" fill="#fff"/></mask><g mask="url(#I)"><path d="M146.124 110.525l-18.7-15.6v-.4l18.7 15.6v.4z" fill="#1F2024"/></g><mask id="J" style="mask-type:luminance" maskUnits="userSpaceOnUse" x="127" y="94" width="19" height="23"><path d="M145.524 104.725s-.6 2.3-2.3 2.8c-2 .7-3.7-1-3.7-1s1.5.5 2.7-1.8c2-3.9-.2-10.7-.2-10.7s-1.6 6.4-6.4 3.6c-3.1-1.8-6.9-2.9-8.2-1.9.6.2 1.2.5 1.8.8 5.4 3.1 9.8 10.7 9.8 17 0 1.3-.2 2.4-.5 3.3 1.5-.4 4-1.3 5.5-3.1 2.1-2.5 1.5-9 1.5-9z" fill="#fff"/></mask><g mask="url(#J)"><path d="M146.124 110.926l-18.7-15.7v-.3l18.7 15.6v.4z" fill="#1F2024"/></g><mask id="K" style="mask-type:luminance" maskUnits="userSpaceOnUse" x="127" y="94" width="19" height="23"><path d="M145.524 104.725s-.6 2.3-2.3 2.8c-2 .7-3.7-1-3.7-1s1.5.5 2.7-1.8c2-3.9-.2-10.7-.2-10.7s-1.6 6.4-6.4 3.6c-3.1-1.8-6.9-2.9-8.2-1.9.6.2 1.2.5 1.8.8 5.4 3.1 9.8 10.7 9.8 17 0 1.3-.2 2.4-.5 3.3 1.5-.4 4-1.3 5.5-3.1 2.1-2.5 1.5-9 1.5-9z" fill="#fff"/></mask><g mask="url(#K)"><path d="M146.124 111.225l-18.7-15.6v-.4l18.7 15.7v.3z" fill="#1F2024"/></g><mask id="L" style="mask-type:luminance" maskUnits="userSpaceOnUse" x="127" y="94" width="19" height="23"><path d="M145.524 104.725s-.6 2.3-2.3 2.8c-2 .7-3.7-1-3.7-1s1.5.5 2.7-1.8c2-3.9-.2-10.7-.2-10.7s-1.6 6.4-6.4 3.6c-3.1-1.8-6.9-2.9-8.2-1.9.6.2 1.2.5 1.8.8 5.4 3.1 9.8 10.7 9.8 17 0 1.3-.2 2.4-.5 3.3 1.5-.4 4-1.3 5.5-3.1 2.1-2.5 1.5-9 1.5-9z" fill="#fff"/></mask><g mask="url(#L)"><path d="M146.124 111.625l-18.7-15.6v-.4l18.7 15.6v.4z" fill="#1F2024"/></g><mask id="M" style="mask-type:luminance" maskUnits="userSpaceOnUse" x="127" y="94" width="19" height="23"><path d="M145.524 104.725s-.6 2.3-2.3 2.8c-2 .7-3.7-1-3.7-1s1.5.5 2.7-1.8c2-3.9-.2-10.7-.2-10.7s-1.6 6.4-6.4 3.6c-3.1-1.8-6.9-2.9-8.2-1.9.6.2 1.2.5 1.8.8 5.4 3.1 9.8 10.7 9.8 17 0 1.3-.2 2.4-.5 3.3 1.5-.4 4-1.3 5.5-3.1 2.1-2.5 1.5-9 1.5-9z" fill="#fff"/></mask><g mask="url(#M)"><path d="M146.124 112.025l-18.7-15.7v-.3l18.7 15.6v.4z" fill="#1F2024"/></g><mask id="N" style="mask-type:luminance" maskUnits="userSpaceOnUse" x="127" y="94" width="19" height="23"><path d="M145.524 104.725s-.6 2.3-2.3 2.8c-2 .7-3.7-1-3.7-1s1.5.5 2.7-1.8c2-3.9-.2-10.7-.2-10.7s-1.6 6.4-6.4 3.6c-3.1-1.8-6.9-2.9-8.2-1.9.6.2 1.2.5 1.8.8 5.4 3.1 9.8 10.7 9.8 17 0 1.3-.2 2.4-.5 3.3 1.5-.4 4-1.3 5.5-3.1 2.1-2.5 1.5-9 1.5-9z" fill="#fff"/></mask><g mask="url(#N)"><path d="M146.124 112.426l-18.7-15.7v-.4l18.7 15.7v.4z" fill="#1F2024"/></g><mask id="O" style="mask-type:luminance" maskUnits="userSpaceOnUse" x="127" y="94" width="19" height="23"><path d="M145.524 104.725s-.6 2.3-2.3 2.8c-2 .7-3.7-1-3.7-1s1.5.5 2.7-1.8c2-3.9-.2-10.7-.2-10.7s-1.6 6.4-6.4 3.6c-3.1-1.8-6.9-2.9-8.2-1.9.6.2 1.2.5 1.8.8 5.4 3.1 9.8 10.7 9.8 17 0 1.3-.2 2.4-.5 3.3 1.5-.4 4-1.3 5.5-3.1 2.1-2.5 1.5-9 1.5-9z" fill="#fff"/></mask><g mask="url(#O)"><path d="M146.124 112.725l-18.7-15.6v-.4l18.7 15.7v.3z" fill="#1F2024"/></g><mask id="P" style="mask-type:luminance" maskUnits="userSpaceOnUse" x="127" y="94" width="19" height="23"><path d="M145.524 104.725s-.6 2.3-2.3 2.8c-2 .7-3.7-1-3.7-1s1.5.5 2.7-1.8c2-3.9-.2-10.7-.2-10.7s-1.6 6.4-6.4 3.6c-3.1-1.8-6.9-2.9-8.2-1.9.6.2 1.2.5 1.8.8 5.4 3.1 9.8 10.7 9.8 17 0 1.3-.2 2.4-.5 3.3 1.5-.4 4-1.3 5.5-3.1 2.1-2.5 1.5-9 1.5-9z" fill="#fff"/></mask><g mask="url(#P)"><path d="M146.124 113.125l-18.7-15.6v-.4l18.7 15.6v.4z" fill="#1F2024"/></g><mask id="Q" style="mask-type:luminance" maskUnits="userSpaceOnUse" x="127" y="94" width="19" height="23"><path d="M145.524 104.725s-.6 2.3-2.3 2.8c-2 .7-3.7-1-3.7-1s1.5.5 2.7-1.8c2-3.9-.2-10.7-.2-10.7s-1.6 6.4-6.4 3.6c-3.1-1.8-6.9-2.9-8.2-1.9.6.2 1.2.5 1.8.8 5.4 3.1 9.8 10.7 9.8 17 0 1.3-.2 2.4-.5 3.3 1.5-.4 4-1.3 5.5-3.1 2.1-2.5 1.5-9 1.5-9z" fill="#fff"/></mask><g mask="url(#Q)"><path d="M146.124 113.525l-18.7-15.7v-.3l18.7 15.6v.4z" fill="#1F2024"/></g><mask id="R" style="mask-type:luminance" maskUnits="userSpaceOnUse" x="127" y="94" width="19" height="23"><path d="M145.524 104.725s-.6 2.3-2.3 2.8c-2 .7-3.7-1-3.7-1s1.5.5 2.7-1.8c2-3.9-.2-10.7-.2-10.7s-1.6 6.4-6.4 3.6c-3.1-1.8-6.9-2.9-8.2-1.9.6.2 1.2.5 1.8.8 5.4 3.1 9.8 10.7 9.8 17 0 1.3-.2 2.4-.5 3.3 1.5-.4 4-1.3 5.5-3.1 2.1-2.5 1.5-9 1.5-9z" fill="#fff"/></mask><g mask="url(#R)"><path d="M146.124 113.826l-18.7-15.6v-.4l18.7 15.7v.3z" fill="#1F2024"/></g><mask id="S" style="mask-type:luminance" maskUnits="userSpaceOnUse" x="127" y="94" width="19" height="23"><path d="M145.524 104.725s-.6 2.3-2.3 2.8c-2 .7-3.7-1-3.7-1s1.5.5 2.7-1.8c2-3.9-.2-10.7-.2-10.7s-1.6 6.4-6.4 3.6c-3.1-1.8-6.9-2.9-8.2-1.9.6.2 1.2.5 1.8.8 5.4 3.1 9.8 10.7 9.8 17 0 1.3-.2 2.4-.5 3.3 1.5-.4 4-1.3 5.5-3.1 2.1-2.5 1.5-9 1.5-9z" fill="#fff"/></mask><g mask="url(#S)"><path d="M146.124 114.225l-18.7-15.6v-.4l18.7 15.6v.4z" fill="#1F2024"/></g><mask id="T" style="mask-type:luminance" maskUnits="userSpaceOnUse" x="127" y="94" width="19" height="23"><path d="M145.524 104.725s-.6 2.3-2.3 2.8c-2 .7-3.7-1-3.7-1s1.5.5 2.7-1.8c2-3.9-.2-10.7-.2-10.7s-1.6 6.4-6.4 3.6c-3.1-1.8-6.9-2.9-8.2-1.9.6.2 1.2.5 1.8.8 5.4 3.1 9.8 10.7 9.8 17 0 1.3-.2 2.4-.5 3.3 1.5-.4 4-1.3 5.5-3.1 2.1-2.5 1.5-9 1.5-9z" fill="#fff"/></mask><g mask="url(#T)"><path d="M146.124 114.625l-18.7-15.7v-.3l18.7 15.6v.4z" fill="#1F2024"/></g><mask id="U" style="mask-type:luminance" maskUnits="userSpaceOnUse" x="127" y="94" width="19" height="23"><path d="M145.524 104.725s-.6 2.3-2.3 2.8c-2 .7-3.7-1-3.7-1s1.5.5 2.7-1.8c2-3.9-.2-10.7-.2-10.7s-1.6 6.4-6.4 3.6c-3.1-1.8-6.9-2.9-8.2-1.9.6.2 1.2.5 1.8.8 5.4 3.1 9.8 10.7 9.8 17 0 1.3-.2 2.4-.5 3.3 1.5-.4 4-1.3 5.5-3.1 2.1-2.5 1.5-9 1.5-9z" fill="#fff"/></mask><g mask="url(#U)"><path d="M146.124 115.026l-18.7-15.7v-.4l18.7 15.7v.4z" fill="#1F2024"/></g><mask id="V" style="mask-type:luminance" maskUnits="userSpaceOnUse" x="127" y="94" width="19" height="23"><path d="M145.524 104.725s-.6 2.3-2.3 2.8c-2 .7-3.7-1-3.7-1s1.5.5 2.7-1.8c2-3.9-.2-10.7-.2-10.7s-1.6 6.4-6.4 3.6c-3.1-1.8-6.9-2.9-8.2-1.9.6.2 1.2.5 1.8.8 5.4 3.1 9.8 10.7 9.8 17 0 1.3-.2 2.4-.5 3.3 1.5-.4 4-1.3 5.5-3.1 2.1-2.5 1.5-9 1.5-9z" fill="#fff"/></mask><g mask="url(#V)"><path d="M146.124 115.326l-18.7-15.6v-.4l18.7 15.7v.3z" fill="#1F2024"/></g><mask id="W" style="mask-type:luminance" maskUnits="userSpaceOnUse" x="127" y="94" width="19" height="23"><path d="M145.524 104.725s-.6 2.3-2.3 2.8c-2 .7-3.7-1-3.7-1s1.5.5 2.7-1.8c2-3.9-.2-10.7-.2-10.7s-1.6 6.4-6.4 3.6c-3.1-1.8-6.9-2.9-8.2-1.9.6.2 1.2.5 1.8.8 5.4 3.1 9.8 10.7 9.8 17 0 1.3-.2 2.4-.5 3.3 1.5-.4 4-1.3 5.5-3.1 2.1-2.5 1.5-9 1.5-9z" fill="#fff"/></mask><g mask="url(#W)"><path d="M146.124 115.725l-18.7-15.6v-.4l18.7 15.6v.4z" fill="#1F2024"/></g><mask id="X" style="mask-type:luminance" maskUnits="userSpaceOnUse" x="127" y="94" width="19" height="23"><path d="M145.524 104.725s-.6 2.3-2.3 2.8c-2 .7-3.7-1-3.7-1s1.5.5 2.7-1.8c2-3.9-.2-10.7-.2-10.7s-1.6 6.4-6.4 3.6c-3.1-1.8-6.9-2.9-8.2-1.9.6.2 1.2.5 1.8.8 5.4 3.1 9.8 10.7 9.8 17 0 1.3-.2 2.4-.5 3.3 1.5-.4 4-1.3 5.5-3.1 2.1-2.5 1.5-9 1.5-9z" fill="#fff"/></mask><g mask="url(#X)"><path d="M146.124 116.125l-18.7-15.7v-.3l18.7 15.6v.4z" fill="#1F2024"/></g><mask id="Y" style="mask-type:luminance" maskUnits="userSpaceOnUse" x="127" y="94" width="19" height="23"><path d="M145.524 104.725s-.6 2.3-2.3 2.8c-2 .7-3.7-1-3.7-1s1.5.5 2.7-1.8c2-3.9-.2-10.7-.2-10.7s-1.6 6.4-6.4 3.6c-3.1-1.8-6.9-2.9-8.2-1.9.6.2 1.2.5 1.8.8 5.4 3.1 9.8 10.7 9.8 17 0 1.3-.2 2.4-.5 3.3 1.5-.4 4-1.3 5.5-3.1 2.1-2.5 1.5-9 1.5-9z" fill="#fff"/></mask><g mask="url(#Y)"><path d="M146.124 116.426l-18.7-15.6v-.4l18.7 15.7v.3z" fill="#1F2024"/></g><mask id="Z" style="mask-type:luminance" maskUnits="userSpaceOnUse" x="127" y="94" width="19" height="23"><path d="M145.524 104.725s-.6 2.3-2.3 2.8c-2 .7-3.7-1-3.7-1s1.5.5 2.7-1.8c2-3.9-.2-10.7-.2-10.7s-1.6 6.4-6.4 3.6c-3.1-1.8-6.9-2.9-8.2-1.9.6.2 1.2.5 1.8.8 5.4 3.1 9.8 10.7 9.8 17 0 1.3-.2 2.4-.5 3.3 1.5-.4 4-1.3 5.5-3.1 2.1-2.5 1.5-9 1.5-9z" fill="#fff"/></mask><g mask="url(#Z)"><path d="M146.124 116.826l-18.7-15.6v-.4l18.7 15.6v.4z" fill="#1F2024"/></g><mask id="aa" style="mask-type:luminance" maskUnits="userSpaceOnUse" x="127" y="94" width="19" height="23"><path d="M145.524 104.725s-.6 2.3-2.3 2.8c-2 .7-3.7-1-3.7-1s1.5.5 2.7-1.8c2-3.9-.2-10.7-.2-10.7s-1.6 6.4-6.4 3.6c-3.1-1.8-6.9-2.9-8.2-1.9.6.2 1.2.5 1.8.8 5.4 3.1 9.8 10.7 9.8 17 0 1.3-.2 2.4-.5 3.3 1.5-.4 4-1.3 5.5-3.1 2.1-2.5 1.5-9 1.5-9z" fill="#fff"/></mask><g mask="url(#aa)"><path d="M146.124 117.225l-18.7-15.7v-.3l18.7 15.6v.4z" fill="#1F2024"/></g><mask id="ab" style="mask-type:luminance" maskUnits="userSpaceOnUse" x="127" y="94" width="19" height="23"><path d="M145.524 104.725s-.6 2.3-2.3 2.8c-2 .7-3.7-1-3.7-1s1.5.5 2.7-1.8c2-3.9-.2-10.7-.2-10.7s-1.6 6.4-6.4 3.6c-3.1-1.8-6.9-2.9-8.2-1.9.6.2 1.2.5 1.8.8 5.4 3.1 9.8 10.7 9.8 17 0 1.3-.2 2.4-.5 3.3 1.5-.4 4-1.3 5.5-3.1 2.1-2.5 1.5-9 1.5-9z" fill="#fff"/></mask><g mask="url(#ab)"><path d="M146.124 117.525l-18.7-15.6v-.4l18.7 15.7v.3z" fill="#1F2024"/></g><mask id="ac" style="mask-type:luminance" maskUnits="userSpaceOnUse" x="127" y="94" width="19" height="23"><path d="M145.524 104.725s-.6 2.3-2.3 2.8c-2 .7-3.7-1-3.7-1s1.5.5 2.7-1.8c2-3.9-.2-10.7-.2-10.7s-1.6 6.4-6.4 3.6c-3.1-1.8-6.9-2.9-8.2-1.9.6.2 1.2.5 1.8.8 5.4 3.1 9.8 10.7 9.8 17 0 1.3-.2 2.4-.5 3.3 1.5-.4 4-1.3 5.5-3.1 2.1-2.5 1.5-9 1.5-9z" fill="#fff"/></mask><g mask="url(#ac)"><path d="M146.124 117.626v.3l-18.7-15.6v-.4l18.7 15.6v.1z" fill="#1F2024"/></g><mask id="ad" style="mask-type:luminance" maskUnits="userSpaceOnUse" x="127" y="94" width="19" height="23"><path d="M145.524 104.725s-.6 2.3-2.3 2.8c-2 .7-3.7-1-3.7-1s1.5.5 2.7-1.8c2-3.9-.2-10.7-.2-10.7s-1.6 6.4-6.4 3.6c-3.1-1.8-6.9-2.9-8.2-1.9.6.2 1.2.5 1.8.8 5.4 3.1 9.8 10.7 9.8 17 0 1.3-.2 2.4-.5 3.3 1.5-.4 4-1.3 5.5-3.1 2.1-2.5 1.5-9 1.5-9z" fill="#fff"/></mask><g mask="url(#ad)"><path d="M146.124 117.926l-.1.3-18.6-15.6v-.3l18.7 15.6z" fill="#1F2024"/></g><mask id="ae" style="mask-type:luminance" maskUnits="userSpaceOnUse" x="127" y="94" width="19" height="23"><path d="M145.524 104.725s-.6 2.3-2.3 2.8c-2 .7-3.7-1-3.7-1s1.5.5 2.7-1.8c2-3.9-.2-10.7-.2-10.7s-1.6 6.4-6.4 3.6c-3.1-1.8-6.9-2.9-8.2-1.9.6.2 1.2.5 1.8.8 5.4 3.1 9.8 10.7 9.8 17 0 1.3-.2 2.4-.5 3.3 1.5-.4 4-1.3 5.5-3.1 2.1-2.5 1.5-9 1.5-9z" fill="#fff"/></mask><g mask="url(#ae)"><path d="M146.024 118.225l-.1.3-18.5-15.5v-.4l18.6 15.6z" fill="#1F2024"/></g><mask id="af" style="mask-type:luminance" maskUnits="userSpaceOnUse" x="127" y="94" width="19" height="23"><path d="M145.524 104.725s-.6 2.3-2.3 2.8c-2 .7-3.7-1-3.7-1s1.5.5 2.7-1.8c2-3.9-.2-10.7-.2-10.7s-1.6 6.4-6.4 3.6c-3.1-1.8-6.9-2.9-8.2-1.9.6.2 1.2.5 1.8.8 5.4 3.1 9.8 10.7 9.8 17 0 1.3-.2 2.4-.5 3.3 1.5-.4 4-1.3 5.5-3.1 2.1-2.5 1.5-9 1.5-9z" fill="#fff"/></mask><g mask="url(#af)"><path d="M145.924 118.525v.3l-18.5-15.4v-.4l18.5 15.5z" fill="#1F2024"/></g><mask id="ag" style="mask-type:luminance" maskUnits="userSpaceOnUse" x="127" y="94" width="19" height="23"><path d="M145.524 104.725s-.6 2.3-2.3 2.8c-2 .7-3.7-1-3.7-1s1.5.5 2.7-1.8c2-3.9-.2-10.7-.2-10.7s-1.6 6.4-6.4 3.6c-3.1-1.8-6.9-2.9-8.2-1.9.6.2 1.2.5 1.8.8 5.4 3.1 9.8 10.7 9.8 17 0 1.3-.2 2.4-.5 3.3 1.5-.4 4-1.3 5.5-3.1 2.1-2.5 1.5-9 1.5-9z" fill="#fff"/></mask><g mask="url(#ag)"><path d="M145.924 118.826l-.1.3-18.4-15.3v-.4l18.5 15.4z" fill="#1F2024"/></g><mask id="ah" style="mask-type:luminance" maskUnits="userSpaceOnUse" x="127" y="94" width="19" height="23"><path d="M145.524 104.725s-.6 2.3-2.3 2.8c-2 .7-3.7-1-3.7-1s1.5.5 2.7-1.8c2-3.9-.2-10.7-.2-10.7s-1.6 6.4-6.4 3.6c-3.1-1.8-6.9-2.9-8.2-1.9.6.2 1.2.5 1.8.8 5.4 3.1 9.8 10.7 9.8 17 0 1.3-.2 2.4-.5 3.3 1.5-.4 4-1.3 5.5-3.1 2.1-2.5 1.5-9 1.5-9z" fill="#fff"/></mask><g mask="url(#ah)"><path d="M145.824 119.126l-.1.3-18.3-15.3v-.3l18.4 15.3z" fill="#1F2024"/></g><mask id="ai" style="mask-type:luminance" maskUnits="userSpaceOnUse" x="127" y="94" width="19" height="23"><path d="M145.524 104.725s-.6 2.3-2.3 2.8c-2 .7-3.7-1-3.7-1s1.5.5 2.7-1.8c2-3.9-.2-10.7-.2-10.7s-1.6 6.4-6.4 3.6c-3.1-1.8-6.9-2.9-8.2-1.9.6.2 1.2.5 1.8.8 5.4 3.1 9.8 10.7 9.8 17 0 1.3-.2 2.4-.5 3.3 1.5-.4 4-1.3 5.5-3.1 2.1-2.5 1.5-9 1.5-9z" fill="#fff"/></mask><g mask="url(#ai)"><path d="M145.724 119.425v.3l-18.3-15.2v-.4l18.3 15.3z" fill="#1F2024"/></g><mask id="aj" style="mask-type:luminance" maskUnits="userSpaceOnUse" x="127" y="94" width="19" height="23"><path d="M145.524 104.725s-.6 2.3-2.3 2.8c-2 .7-3.7-1-3.7-1s1.5.5 2.7-1.8c2-3.9-.2-10.7-.2-10.7s-1.6 6.4-6.4 3.6c-3.1-1.8-6.9-2.9-8.2-1.9.6.2 1.2.5 1.8.8 5.4 3.1 9.8 10.7 9.8 17 0 1.3-.2 2.4-.5 3.3 1.5-.4 4-1.3 5.5-3.1 2.1-2.5 1.5-9 1.5-9z" fill="#fff"/></mask><g mask="url(#aj)"><path d="M145.724 119.725l-.1.3-18.2-15.1v-.4l18.3 15.2z" fill="#1F2024"/></g><mask id="ak" style="mask-type:luminance" maskUnits="userSpaceOnUse" x="127" y="94" width="19" height="23"><path d="M145.524 104.725s-.6 2.3-2.3 2.8c-2 .7-3.7-1-3.7-1s1.5.5 2.7-1.8c2-3.9-.2-10.7-.2-10.7s-1.6 6.4-6.4 3.6c-3.1-1.8-6.9-2.9-8.2-1.9.6.2 1.2.5 1.8.8 5.4 3.1 9.8 10.7 9.8 17 0 1.3-.2 2.4-.5 3.3 1.5-.4 4-1.3 5.5-3.1 2.1-2.5 1.5-9 1.5-9z" fill="#fff"/></mask><g mask="url(#ak)"><path d="M145.624 120.026l-.1.4-18.1-15.2v-.3l18.2 15.1z" fill="#1F2024"/></g><mask id="al" style="mask-type:luminance" maskUnits="userSpaceOnUse" x="127" y="94" width="19" height="23"><path d="M145.524 104.725s-.6 2.3-2.3 2.8c-2 .7-3.7-1-3.7-1s1.5.5 2.7-1.8c2-3.9-.2-10.7-.2-10.7s-1.6 6.4-6.4 3.6c-3.1-1.8-6.9-2.9-8.2-1.9.6.2 1.2.5 1.8.8 5.4 3.1 9.8 10.7 9.8 17 0 1.3-.2 2.4-.5 3.3 1.5-.4 4-1.3 5.5-3.1 2.1-2.5 1.5-9 1.5-9z" fill="#fff"/></mask><g mask="url(#al)"><path d="M145.524 120.425l-.1.3-18-15.1v-.4l18.1 15.2z" fill="#1F2024"/></g><mask id="am" style="mask-type:luminance" maskUnits="userSpaceOnUse" x="127" y="94" width="19" height="23"><path d="M145.524 104.725s-.6 2.3-2.3 2.8c-2 .7-3.7-1-3.7-1s1.5.5 2.7-1.8c2-3.9-.2-10.7-.2-10.7s-1.6 6.4-6.4 3.6c-3.1-1.8-6.9-2.9-8.2-1.9.6.2 1.2.5 1.8.8 5.4 3.1 9.8 10.7 9.8 17 0 1.3-.2 2.4-.5 3.3 1.5-.4 4-1.3 5.5-3.1 2.1-2.5 1.5-9 1.5-9z" fill="#fff"/></mask><g mask="url(#am)"><path d="M145.424 120.725l-1.1-.6-16.9-14.1v-.4l18 15.1z" fill="#1F2024"/></g><mask id="an" style="mask-type:luminance" maskUnits="userSpaceOnUse" x="127" y="94" width="19" height="23"><path d="M145.524 104.725s-.6 2.3-2.3 2.8c-2 .7-3.7-1-3.7-1s1.5.5 2.7-1.8c2-3.9-.2-10.7-.2-10.7s-1.6 6.4-6.4 3.6c-3.1-1.8-6.9-2.9-8.2-1.9.6.2 1.2.5 1.8.8 5.4 3.1 9.8 10.7 9.8 17 0 1.3-.2 2.4-.5 3.3 1.5-.4 4-1.3 5.5-3.1 2.1-2.5 1.5-9 1.5-9z" fill="#fff"/></mask><g mask="url(#an)"><path d="M142.824 119.225l-15.4-12.9v-.3l16.9 14.1-1.5-.9z" fill="#1F2024"/></g><mask id="ao" style="mask-type:luminance" maskUnits="userSpaceOnUse" x="127" y="94" width="19" height="23"><path d="M145.524 104.725s-.6 2.3-2.3 2.8c-2 .7-3.7-1-3.7-1s1.5.5 2.7-1.8c2-3.9-.2-10.7-.2-10.7s-1.6 6.4-6.4 3.6c-3.1-1.8-6.9-2.9-8.2-1.9.6.2 1.2.5 1.8.8 5.4 3.1 9.8 10.7 9.8 17 0 1.3-.2 2.4-.5 3.3 1.5-.4 4-1.3 5.5-3.1 2.1-2.5 1.5-9 1.5-9z" fill="#fff"/></mask><g mask="url(#ao)"><path d="M141.424 118.426l-14-11.7v-.4l15.4 12.9-1.4-.8z" fill="#1F2024"/></g><path d="M70.624 65.225l2.9 1.7c.9.5 1.6 1.2 2.1 2.1.5.8.7 1.8.7 2.9v7c0 1.1-.2 1.8-.7 2.1-.5.3-1.2.2-2.1-.4l-2.9-1.7v-13.7zm2.8 13.4c.3.2.5.2.7.1.2-.1.2-.4.2-.9v-7.2c0-.5-.1-.9-.2-1.2-.2-.3-.4-.5-.7-.7l-1-.6v9.8l1 .7zm4.2-9.4l5.1 3v2l-3.3-1.9v3.6l2.6 1.5v2l-2.6-1.5v4.2l3.3 1.9v2l-5.1-3v-13.8zm6.2 3.599l1.9 1.1v11.8l3.1 1.8v2l-5-2.9v-13.8zm5.9 3.401l1.9 1.1v13.8l-1.9-1.1v-13.8zm2.8 1.599l1.9 1.1 1.2 11.4 1.2-10 1.7 1-1.8 12.7-2.5-1.4-1.7-14.8zm7 4.1l5.1 3v2l-3.3-1.9v3.6l2.6 1.5v2l-2.6-1.5v4.2l3.3 1.9v2l-5.1-3v-13.8zm6.2 3.601l2.8 1.6c1 .6 1.7 1.2 2.1 2 .4.8.7 1.7.7 2.8v.8c0 1.4-.4 2.1-1.2 2 .5.4.8.9 1 1.5.2.6.3 1.3.3 2.1v3.4c0 .3.1.5.2.8l-1.9-1.1c-.1-.3-.1-.5-.1-.7v-3.5c0-.6-.1-1.1-.3-1.5-.2-.4-.5-.7-.9-.9l-.7-.4v5.9l-1.9-1.1v-13.7h-.1zm2.6 7.4c.4.2.7.3.8.2.2-.1.3-.4.3-1v-1.1c0-.5-.1-.9-.2-1.2-.2-.3-.4-.6-.7-.8l-.9-.5v3.9l.7.5zm5.8 5.3l-2.3-9.2 2 1.2 1.3 5.8 1.3-4.3 1.8 1.1-2.3 6.6v5.9l-1.9-1.1v-6h.1z" fill="#1F2024"/><defs><linearGradient id="paint0_linear_638_15226" x1="118.212" y1="-75.751" x2="59.437" y2="36.262" gradientUnits="userSpaceOnUse"><stop stop-color="#FFE2B2"/><stop offset="1" stop-color="#FFE2B2"/></linearGradient><linearGradient id="paint5_linear_638_15226" x1="135.702" y1="139.167" x2="92.469" y2="129.475" gradientUnits="userSpaceOnUse"><stop offset=".101" stop-color="#33065C"/><stop offset=".535" stop-color="#430D8B"/><stop offset="1" stop-color="#4513A3"/></linearGradient><linearGradient id="paint6_linear_638_15226" x1="50.446" y1="35.168" x2="98.246" y2="126.264" gradientUnits="userSpaceOnUse"><stop offset=".101" stop-color="#33065C"/><stop offset=".535" stop-color="#430D8B"/><stop offset="1" stop-color="#4513A3"/></linearGradient><linearGradient id="paint8_linear_638_15226" x1="176.998" y1="130.012" x2="181.609" y2="138.8" gradientUnits="userSpaceOnUse"><stop stop-color="#AFB6E5"/><stop offset=".209" stop-color="#B6BCE8"/><stop offset=".501" stop-color="#C8CDF1"/><stop offset=".581" stop-color="#CED3F4"/><stop offset=".885" stop-color="#DEE2FC"/><stop offset="1" stop-color="#E5E9FF"/></linearGradient><linearGradient id="paint9_linear_638_15226" x1="176.708" y1="123.59" x2="181.65" y2="133.009" gradientUnits="userSpaceOnUse"><stop stop-color="#25054D"/><stop offset="1" stop-color="#45108A"/></linearGradient><linearGradient id="paint10_linear_638_15226" x1="48.585" y1="-152.801" x2="235.577" y2="96.199" gradientUnits="userSpaceOnUse"><stop stop-color="#FFE2B2"/><stop offset=".524" stop-color="#E0C18F"/><stop offset=".885" stop-color="#FFE2B2"/><stop offset="1" stop-color="#FFE2B2"/></linearGradient><linearGradient id="paint11_linear_638_15226" x1="54.46" y1="-119.001" x2="214.158" y2="102.013" gradientUnits="userSpaceOnUse"><stop stop-color="#FFE2B2"/><stop offset=".524" stop-color="#E0C18F"/><stop offset=".885" stop-color="#FFE2B2"/><stop offset="1" stop-color="#FFE2B2"/></linearGradient><linearGradient id="paint12_linear_638_15226" x1="159.701" y1="114.233" x2="313.946" y2="68.046" gradientUnits="userSpaceOnUse"><stop stop-color="#BAA37E"/><stop offset="1" stop-color="#E4C89D"/></linearGradient><linearGradient id="paint13_linear_638_15226" x1="42.925" y1="-129.967" x2="124.5" y2="116.5" gradientUnits="userSpaceOnUse"><stop stop-color="#FFE2B2"/><stop offset=".524" stop-color="#E0C18F"/><stop offset=".885" stop-color="#FFE2B2"/><stop offset="1" stop-color="#FFE2B2"/></linearGradient><linearGradient id="paint14_linear_638_15226" x1="187.007" y1="54.928" x2="164.944" y2="96.977" gradientUnits="userSpaceOnUse"><stop offset="1" stop-color="#676EAC"/></linearGradient><linearGradient id="paint15_linear_638_15226" x1="199.708" y1="84.137" x2="185.66" y2="110.91" gradientUnits="userSpaceOnUse"><stop stop-color="#AFB6E5"/><stop offset=".145" stop-color="#B6BCE8"/><stop offset=".348" stop-color="#C8CDF1"/><stop offset=".581" stop-color="#E5E9FF"/><stop offset=".855" stop-color="#F5F6FF"/><stop offset="1" stop-color="#fff"/></linearGradient><radialGradient id="paint1_radial_638_15226" cx="0" cy="0" r="1" gradientUnits="userSpaceOnUse" gradientTransform="matrix(-2.98261 0 0 -2.9826 30.37 102.506)"><stop stop-color="#EEEBF2"/><stop offset=".581" stop-color="#D4D1D8"/><stop offset=".939" stop-color="#A5A6B9"/><stop offset="1" stop-color="#9D9EB3"/></radialGradient><radialGradient id="paint2_radial_638_15226" cx="0" cy="0" r="1" gradientUnits="userSpaceOnUse" gradientTransform="translate(32.049 101.987) scale(15.0129)"><stop stop-color="#fff"/><stop offset="1"/></radialGradient><radialGradient id="paint3_radial_638_15226" cx="0" cy="0" r="1" gradientUnits="userSpaceOnUse" gradientTransform="matrix(-9.34949 0 0 -9.3495 34.985 95.079)"><stop stop-color="#fff"/><stop offset="1"/></radialGradient><radialGradient id="paint4_radial_638_15226" cx="0" cy="0" r="1" gradientUnits="userSpaceOnUse" gradientTransform="matrix(-6.01351 0 0 -6.0135 18.605 89.059)"><stop stop-color="#fff"/><stop offset="1"/></radialGradient><radialGradient id="paint7_radial_638_15226" cx="0" cy="0" r="1" gradientUnits="userSpaceOnUse" gradientTransform="translate(130.885 158.536) scale(14.9263)"><stop stop-color="#fff"/><stop offset="1"/></radialGradient></defs></svg>