<?xml version="1.0" encoding="utf-8"?><svg viewBox="0 0 29 33" xmlns="http://www.w3.org/2000/svg" xmlns:xlink="http://www.w3.org/1999/xlink"><style>:root>svg{display:none}:root>svg:target{display:block}</style><svg fill="none" viewBox="0 0 28 17" id="icon-arrow-next" xmlns="http://www.w3.org/2000/svg"><path d="M28 8.491a.714.714 0 00-.24-.527.864.864 0 00-.58-.22H.82a.864.864 0 00-.58.22.714.714 0 00-.24.527c0 .198.086.388.24.528s.363.219.58.219h26.36a.864.864 0 00.58-.219c.153-.14.24-.33.24-.528z" fill="#1F2024"/><path d="M28 8.491a.7.7 0 00-.157-.44L21.641.298a.84.84 0 00-.534-.289.884.884 0 00-.604.135.74.74 0 00-.327.48.694.694 0 00.137.552l5.851 7.314-5.85 7.315a.721.721 0 00-.14.265.68.68 0 00.093.572.78.78 0 00.219.216c.088.059.188.1.294.123a.903.903 0 00.626-.095.794.794 0 00.235-.203l6.202-7.752A.7.7 0 0028 8.491z" fill="#1F2024"/></svg><svg fill="none" viewBox="0 0 28 17" id="icon-arrow-prev" xmlns="http://www.w3.org/2000/svg"><path d="M0 8.491c0-.198.086-.388.24-.527a.864.864 0 01.58-.22h26.36c.217 0 .426.08.58.22.153.14.24.33.24.527a.714.714 0 01-.24.528.864.864 0 01-.58.219H.82a.864.864 0 01-.58-.219.714.714 0 01-.24-.528z" fill="#1F2024"/><path d="M0 8.491a.7.7 0 01.157-.44L6.359.298a.839.839 0 01.534-.289c.213-.029.43.02.604.135a.74.74 0 01.327.48.694.694 0 01-.137.552L1.836 8.489l5.85 7.315a.72.72 0 01.14.265.681.681 0 01-.093.572.779.779 0 01-.219.216.903.903 0 01-.92.028.793.793 0 01-.235-.203L.157 8.93A.7.7 0 010 8.491z" fill="#1F2024"/></svg><svg fill="none" viewBox="0 0 22 26" id="icon-basket" xmlns="http://www.w3.org/2000/svg"><path d="M21.994 22.475L20.421 5.71c-.034-.372-.366-.654-.754-.654H16.43C16.385 2.26 13.968 0 11 0 8.032 0 5.615 2.26 5.57 5.056H2.333c-.394 0-.72.282-.754.654L.006 22.475c0 .021-.006.042-.006.064C0 24.447 1.85 26 4.126 26h13.748C20.151 26 22 24.447 22 22.539c0-.022 0-.043-.006-.064zM11 1.435c2.13 0 3.867 1.617 3.912 3.621H7.088C7.133 3.052 8.87 1.436 11 1.436zm6.874 23.13H4.126c-1.428 0-2.586-.894-2.608-1.994L3.024 6.497h2.54v2.18c0 .4.338.718.76.718.421 0 .758-.319.758-.718v-2.18h7.83v2.18c0 .4.337.718.759.718s.759-.319.759-.718v-2.18h2.54l1.512 16.074c-.022 1.1-1.186 1.993-2.608 1.993z" fill="currentColor"/></svg><svg fill="none" viewBox="0 0 16 9" id="icon-caret" xmlns="http://www.w3.org/2000/svg"><path d="M7.293 8.707a1 1 0 001.414 0l6.364-6.364A1 1 0 0013.657.93L8 6.586 2.343.929A1 1 0 00.93 2.343l6.364 6.364zM7 7v1h2V7H7z" fill="currentColor"/></svg><svg fill="none" viewBox="0 0 20 20" id="icon-catalog" xmlns="http://www.w3.org/2000/svg"><g clip-path="url(#eclip0_637_9497)"><path d="M-2.75 4.375A.625.625 0 00-2.125 5h16.25a.625.625 0 100-1.25h-16.25a.625.625 0 00-.625.625zm3.125 5h13.75a.625.625 0 110 1.25H.375a.625.625 0 110-1.25zM6 15h8.125a.624.624 0 110 1.25H6A.625.625 0 116 15z" fill="#1F2024"/></g><defs><clipPath id="eclip0_637_9497"><path fill="#fff" transform="matrix(-1 0 0 1 20 0)" d="M0 0h20v20H0z"/></clipPath></defs></svg><svg fill="none" viewBox="0 0 18 18" id="icon-close" xmlns="http://www.w3.org/2000/svg"><path d="M10.47 8.95l7.29-7.29A1 1 0 0016.35.25L9.06 7.54 1.77.24A1 1 0 00.36 1.65l7.29 7.3-7.3 7.29a.999.999 0 101.41 1.41l7.3-7.29 7.29 7.29a1 1 0 001.41-1.41l-7.29-7.29z" fill="#1F2024"/></svg><svg fill="none" viewBox="0 0 20 17" id="icon-email" xmlns="http://www.w3.org/2000/svg"><path d="M2 16.226c-.55 0-1.021-.197-1.413-.59A1.932 1.932 0 010 14.219V2.179C0 1.627.196 1.154.588.76.98.368 1.451.17 2 .17h16c.55 0 1.021.198 1.413.59.392.394.588.866.587 1.418v12.04c0 .552-.196 1.024-.588 1.418-.392.393-.863.59-1.412.589H2zm8-7.2a1.055 1.055 0 00.525-.15l7.075-4.44a.828.828 0 00.4-.727.819.819 0 00-.425-.753c-.283-.167-.575-.159-.875.025L10 7.195 3.3 2.981c-.3-.184-.592-.188-.875-.012-.283.176-.425.423-.425.74 0 .167.033.313.1.44a.664.664 0 00.3.287l7.075 4.44a1.05 1.05 0 00.525.15z" fill="#fff"/></svg><svg fill="none" viewBox="0 0 17 33" id="icon-facebook" xmlns="http://www.w3.org/2000/svg"><path fill-rule="evenodd" clip-rule="evenodd" d="M5.349 32.09h6.04V18.11h4.462l.892-5.648H11.39V8.193c0-1.58 1.51-2.48 2.954-2.48h2.608V1.03L12.284.824C7.822.549 5.35 4.06 5.35 8.26v4.201H.27v5.648h5.079v13.98z" fill="currentColor"/></svg><svg fill="none" viewBox="0 0 27 28" id="icon-instagram" xmlns="http://www.w3.org/2000/svg"><path fill-rule="evenodd" clip-rule="evenodd" d="M7.281.768H19.72C23.712.768 27 4.078 27 8.09v12.444c0 4.018-3.291 7.323-7.282 7.323H7.281C3.286 27.858 0 24.553 0 20.535V8.09C0 4.073 3.286.768 7.281.768zM20.75 5.496c.409.006.799.171 1.088.462.288.29.453.683.459 1.094-.006.41-.17.803-.46 1.094-.288.29-.678.456-1.087.462a1.52 1.52 0 01-1.101-.448 1.537 1.537 0 01-.45-1.105 1.545 1.545 0 01.448-1.106 1.525 1.525 0 011.1-.45l.003-.003zm-7.281 1.426h.064c3.995 0 7.346 3.37 7.346 7.388 0 4.084-3.351 7.39-7.346 7.39h-.064c-3.996 0-7.282-3.306-7.282-7.39 0-4.018 3.286-7.388 7.282-7.388zm0 2.527h.064c2.642 0 4.832 2.204 4.832 4.861 0 2.723-2.19 4.926-4.832 4.926h-.064c-2.643 0-4.833-2.203-4.833-4.926 0-2.657 2.19-4.86 4.833-4.86zM7.35 3.101h12.303a5.018 5.018 0 013.552 1.482 5.076 5.076 0 011.473 3.573v12.315a5.075 5.075 0 01-1.473 3.572 5.017 5.017 0 01-3.552 1.482H7.35A5.018 5.018 0 013.8 24.043a5.076 5.076 0 01-1.475-3.572V8.156A5.077 5.077 0 013.8 4.583 5.019 5.019 0 017.35 3.101z" fill="currentColor"/></svg><svg fill="none" viewBox="0 0 27 24" id="icon-like" xmlns="http://www.w3.org/2000/svg"><path d="M24.104 12.596l-.002.002-9.799 10.219-.003.003a1.07 1.07 0 01-.349.246 1.004 1.004 0 01-.803 0 1.07 1.07 0 01-.349-.246l-.003-.003L2.743 12.333l-.001-.001a6.74 6.74 0 01-1.43-2.262 6.996 6.996 0 01.134-5.327 6.695 6.695 0 011.542-2.178h0l.003-.002c2.447-2.311 6.51-2.135 9.037.511h0l.005.006.907.933.61.628.61-.629 1.161-1.198.002-.002a6.44 6.44 0 012.154-1.48 6.193 6.193 0 012.525-.48 6.14 6.14 0 012.507.608c.79.38 1.498.926 2.082 1.606l.002.002c2.232 2.583 2.06 6.881-.49 9.528z" stroke="currentColor" stroke-width="1.7"/></svg><svg fill="none" viewBox="0 0 27 24" id="icon-like-filled" xmlns="http://www.w3.org/2000/svg"><path d="M24.716 13.186l-9.8 10.22a1.918 1.918 0 01-.626.44 1.855 1.855 0 01-1.481 0 1.919 1.919 0 01-.627-.44L2.13 12.92a7.59 7.59 0 01-1.612-2.547A7.845 7.845 0 01.67 4.4a7.546 7.546 0 011.739-2.454c2.818-2.662 7.415-2.41 10.234.542l.908.934 1.161-1.199A7.289 7.289 0 0117.149.547a7.042 7.042 0 012.873-.545 6.99 6.99 0 012.856.692c.897.432 1.7 1.05 2.358 1.818 2.54 2.94 2.31 7.734-.52 10.674z" fill="#1F2024"/></svg><svg fill="none" viewBox="0 0 14 10" id="icon-mark" xmlns="http://www.w3.org/2000/svg"><path d="M13.943 1.491l-8.68 8.453a.196.196 0 01-.139.056.2.2 0 01-.138-.056l-4.929-4.8a.188.188 0 010-.269L1.255 3.71a.198.198 0 01.276 0l3.593 3.499L12.47.056a.198.198 0 01.276 0l1.198 1.166a.19.19 0 01.042.208.19.19 0 01-.042.061z" fill="#1F2024"/></svg><svg fill="none" viewBox="0 0 20 22" id="icon-phone" xmlns="http://www.w3.org/2000/svg"><path d="M.011 16.787c.048-.31.233-.576.51-.734l4.095-2.543.034-.02a1.238 1.238 0 011.452.242l1.209 1.274c.051.052.22.127.271.13.014-.002 1.407-.107 3.97-2.81 2.56-2.696 2.668-4.168 2.67-4.168a.701.701 0 00-.123-.307l-1.03-1.086c-.364-.383-.473-1.02-.257-1.512L15.089.74c.165-.36.486-.58.843-.58.252 0 .496.11.686.31l2.81 2.954c.27.283.501.777.552 1.174.024.19.523 4.725-5.377 10.944-5.009 5.277-8.915 5.688-9.993 5.688a2.903 2.903 0 01-.393-.022 2.112 2.112 0 01-1.112-.58L.297 17.67a1.053 1.053 0 01-.286-.882z" fill="#fff"/></svg><svg fill="none" viewBox="0 0 20 20" id="icon-search" xmlns="http://www.w3.org/2000/svg"><path d="M19.83 19.007l-4.545-4.544a8.654 8.654 0 002.165-5.738c0-2.33-.908-4.522-2.556-6.17A8.668 8.668 0 008.724 0c-2.33 0-4.52.908-6.168 2.556A8.668 8.668 0 000 8.725c0 2.33.908 4.521 2.556 6.17a8.668 8.668 0 006.169 2.555c2.135 0 4.147-.77 5.738-2.165l4.544 4.545a.58.58 0 00.823 0 .581.581 0 000-.823zM3.378 14.072a7.513 7.513 0 01-2.215-5.347c0-2.02.787-3.919 2.215-5.347a7.513 7.513 0 015.347-2.215c2.02 0 3.918.787 5.347 2.215a7.513 7.513 0 012.214 5.347c0 2.02-.786 3.918-2.214 5.347a7.513 7.513 0 01-5.347 2.214 7.513 7.513 0 01-5.347-2.214z" fill="currentColor"/></svg><svg fill="none" viewBox="0 0 24 24" id="icon-user" xmlns="http://www.w3.org/2000/svg"><path d="M15.84 12.53l-.244.17.28.096a11.802 11.802 0 014.503 2.825 11.76 11.76 0 013.436 7.454c.032.421-.314.775-.753.775-.431 0-.79-.353-.83-.8-.482-5.222-4.886-9.325-10.232-9.325-5.345 0-9.75 4.103-10.231 9.325-.042.447-.4.8-.831.8-.439 0-.785-.354-.753-.775a11.76 11.76 0 013.436-7.454 11.803 11.803 0 014.503-2.825l.28-.097-.244-.168a6.785 6.785 0 01-2.947-5.594A6.795 6.795 0 0112 .15a6.795 6.795 0 016.788 6.787 6.785 6.785 0 01-2.948 5.594zM6.787 6.939A5.218 5.218 0 0012 12.15a5.218 5.218 0 005.212-5.213A5.218 5.218 0 0012 1.726a5.218 5.218 0 00-5.213 5.213z" fill="currentColor" stroke="#fff" stroke-width=".1"/></svg><svg fill="none" viewBox="0 0 29 29" id="icon-whatsapp" xmlns="http://www.w3.org/2000/svg"><path fill-rule="evenodd" clip-rule="evenodd" d="M9.512 7.877c.782-.5 1.28-.143 1.565.641l.71 1.856s.498.998-.78 1.996c-.215.144-.215.144-.144.5.285.856 1.422 3.425 5.049 5.422.355.214.426.214.782-.071l.924-.927c.64-.571.995-.79 1.564-.358.426.286.853.642 1.28.928.426.357 1.137.784.426 1.641l-.64.785c-.924 1.14-1.706 1.213-2.914.927-4.622-1.213-8.034-4.494-9.528-9.131-.497-1.784.214-3.282 1.706-4.21zM14.49.243c3.715 0 7.277 1.48 9.904 4.117a14.078 14.078 0 014.102 9.937c0 3.727-1.476 7.302-4.102 9.938a13.982 13.982 0 01-9.904 4.116c-2.134 0-4.124-.428-5.901-1.284L1.123 28.35l.995-7.42-.07-.142A14.124 14.124 0 012.52 7.01a14.058 14.058 0 015.102-4.956A14 14 0 0114.49.238v.005zM5.673 25.212l1.991-.357 1.208-.213a11.542 11.542 0 005.613 1.427c2.32 0 4.588-.69 6.518-1.984a11.763 11.763 0 004.32-5.283A11.81 11.81 0 0025.991 12a11.784 11.784 0 00-3.21-6.028 11.72 11.72 0 00-6.007-3.221 11.695 11.695 0 00-6.778.67A11.74 11.74 0 004.73 7.757a11.8 11.8 0 00-1.978 6.54c0 2.355.711 4.495 1.849 6.35l-.142 1.07-.285 2.14-.208 1.643 1.706-.288z" fill="currentColor"/></svg></svg>