<svg width="409" height="476" fill="none" xmlns="http://www.w3.org/2000/svg"><path d="M76.688 327.214l-60.443 34.839c-3.727 2.107-9.723 2.107-13.45 0-3.727-2.106-3.727-5.671 0-7.778l60.443-34.84c3.727-2.106 9.722-2.106 13.45 0 3.727 2.107 3.727 5.51 0 7.779zm91.716-87.666L54.163 305.5c-3.727 2.106-9.723 2.106-13.45 0-3.727-2.107-3.727-5.672 0-7.778l114.242-65.953c3.727-2.106 9.722-2.106 13.449 0 3.727 2.107 3.727 5.672 0 7.779z" fill="#F4F4F4"/><path d="M234.033 270.823l-114.242 65.952c-3.727 2.107-9.722 2.107-13.449 0-3.727-2.107-3.727-5.672 0-7.778l114.241-65.952c3.727-2.107 9.723-2.107 13.45 0 3.727 2.268 3.727 5.671 0 7.778zm71.137-40.998l-33.381 19.283c-3.727 2.107-9.723 2.107-13.45 0-3.727-2.106-3.727-5.671 0-7.778l33.381-19.283c3.727-2.107 9.723-2.107 13.45 0 3.727 2.106 3.727 5.509 0 7.778z" fill="#77008F"/><path d="M116.065 235.012l-33.382 19.446c-3.727 2.106-9.722 2.106-13.45 0-3.726-2.107-3.726-5.672 0-7.778l33.382-19.284c3.727-2.106 9.723-2.106 13.45 0 3.727 2.107 3.727 5.51 0 7.616zm81.509 130.12l-63.846 36.946c-3.889 2.269-10.208 2.269-14.26 0-3.889-2.269-3.889-5.996 0-8.264l63.846-36.947c3.889-2.268 10.209-2.268 14.26 0 3.889 2.431 3.889 5.996 0 8.265zm-57.526-3.239L19.325 431.735c-3.89 2.268-10.21 2.268-14.26 0-3.89-2.269-3.89-5.996 0-8.265l120.723-69.841c3.889-2.268 10.209-2.268 14.26 0 3.889 2.269 3.889 5.996 0 8.264z" fill="#F4F4F4"/><path d="M294.476 272.606l-120.723 69.842c-3.889 2.268-10.209 2.268-14.26 0-3.889-2.269-3.889-5.996 0-8.265l120.723-69.841c3.889-2.269 10.209-2.269 14.26 0 3.889 2.269 3.889 5.996 0 8.264z" fill="#77008F"/><path d="M363.832 305.667l-120.724 69.841c-3.889 2.269-10.208 2.269-14.26 0-3.889-2.268-3.889-5.996 0-8.264l120.724-69.841c3.889-2.269 10.208-2.269 14.26 0 3.889 2.43 3.889 6.157 0 8.264zm-199.802 5.67L43.307 381.178c-3.889 2.269-10.209 2.269-14.26 0-3.889-2.269-3.889-5.996 0-8.264l120.723-69.841c3.889-2.269 10.209-2.269 14.26 0 3.889 2.268 3.889 5.995 0 8.264z" fill="#F4F4F4"/><path d="M239.219 267.907l-35.326 20.418c-3.889 2.268-10.209 2.268-14.26 0-3.889-2.269-3.889-5.996 0-8.265l35.326-20.417c3.889-2.269 10.209-2.269 14.26 0 3.889 2.268 3.889 5.996 0 8.264z" fill="#77008F"/><path d="M309.059 407.102l-63.846 36.947c-3.889 2.268-10.209 2.268-14.26 0-3.889-2.269-3.889-5.996 0-8.265l63.846-36.946c3.889-2.268 10.209-2.268 14.26 0 3.889 2.269 3.889 5.996 0 8.264zm-57.526-3.402L130.81 473.541c-3.889 2.269-10.209 2.269-14.26 0-3.889-2.268-3.889-5.995 0-8.264l120.724-69.841c3.889-2.269 10.208-2.269 14.259 0 3.89 2.268 3.89 5.996 0 8.264zm154.429-89.287l-120.724 69.841c-3.889 2.269-10.208 2.269-14.26 0-3.889-2.268-3.889-5.995 0-8.264l120.724-69.841c3.889-2.269 10.208-2.269 14.26 0 4.051 2.43 4.051 5.995 0 8.264zm-130.283 38.729l-120.724 69.841c-3.889 2.268-10.209 2.268-14.26 0-3.889-2.269-3.889-5.996 0-8.265l120.724-69.841c3.889-2.268 10.208-2.268 14.26 0 3.889 2.431 3.889 5.996 0 8.265z" fill="#F4F4F4"/><path d="M350.867 309.714l-35.326 20.417c-3.889 2.269-10.209 2.269-14.26 0-3.889-2.268-3.889-5.995 0-8.264l35.326-20.417c3.889-2.269 10.209-2.269 14.26 0 3.889 2.43 3.889 5.995 0 8.264z" fill="#77008F"/><path d="M261.904 22.57v34.84c0 12.153 8.589 27.061 19.122 33.057 1.458.81 2.916 1.782 4.537 2.592l10.533 25.603 10.533-13.287c1.458.81 2.916 1.782 4.537 2.592.486.325.81.487 1.296.649 4.699 2.43 9.075 2.43 12.154.648.162 0 .162-.162.324-.162 3.241-2.107 5.347-6.32 5.347-12.154v-34.84c0-12.152-8.588-27.06-19.121-33.056-10.047-5.834-20.094-11.667-30.14-17.339-5.186-2.917-9.885-3.403-13.288-1.458 0 0-.162 0-.162.162-3.565 1.782-5.672 5.995-5.672 12.153z" fill="#C1E4B8"/><path d="M340.01 100.191c3.403-1.944 5.671-6.32 5.671-12.315v-34.84c0-12.153-8.588-27.061-19.121-33.057-10.047-5.833-20.093-11.667-30.14-17.339-5.348-3.079-10.047-3.403-13.45-1.296-5.185 2.917-10.209 5.834-15.232 8.912 3.403-1.944 8.102-1.458 13.288 1.459 10.046 5.833 20.093 11.667 30.14 17.339 10.533 6.157 19.121 20.903 19.121 33.057v34.84c0 5.995-2.106 10.208-5.347 12.153 5.023-3.079 10.046-5.996 15.07-8.913zm-33.381 5.024l-10.533 13.288 15.556-8.913.81-1.134c-.486-.162-.81-.486-1.296-.648-1.621-.811-3.079-1.783-4.537-2.593z" fill="#A0C297"/><path d="M293.503 45.906c-.324-.162-.648-.324-.81-.162l-.973.486-4.861-2.755c-1.944-1.134-3.403-.648-3.727 1.135l-.486 2.755 2.593 1.458.324-2.43c.162-.487.648-.649 1.296-.325l5.348 3.079c.324.162.648.324.81.162l.81-.324 4.051 2.269.81 1.458c.162.324.487.648.811.81l5.347 3.079c.648.324 1.134 1.134 1.296 1.782l.324 2.917 2.593 1.459-.486-3.241c-.324-1.945-1.944-4.375-3.727-5.348l-4.861-2.754-.811-1.459a1.952 1.952 0 00-.81-.81l-4.861-3.24zm-12.64 2.917c-.648-.324-1.296-.162-1.296.486v2.593c0 .648.486 1.62 1.296 1.944l.163.162 1.944 12.802c.162 1.296 1.296 2.755 2.431 3.565l20.903 11.991c1.297.648 2.269.486 2.431-.648l1.945-10.533.162.162c.648.324 1.296.162 1.296-.486v-2.593c0-.648-.486-1.62-1.296-1.944l-29.979-17.501zm21.39 18.635c.649.324 1.297 1.296 1.297 1.945v6.32c0 .648-.486.972-1.297.485-.648-.324-1.296-1.296-1.296-1.944v-6.32c0-.648.648-.972 1.296-.486zm-6.319-3.727c.648.324 1.296 1.296 1.296 1.944v6.32c0 .648-.486.972-1.296.486-.649-.324-1.297-1.296-1.297-1.944v-6.32c.162-.648.648-.81 1.297-.486zm-6.158-3.565c.648.324 1.296 1.296 1.296 1.945v6.32c0 .648-.486.972-1.296.485-.648-.324-1.296-1.296-1.296-1.944v-6.32c0-.648.486-.972 1.296-.486z" fill="#FBFAFC"/><path d="M179.91 362.538c.162 1.134.486 2.269 1.296 3.079 1.459 1.458 3.889.648 5.672-.324 0 0-.162 0 8.426-4.861l-17.014-9.723c1.62 11.991 1.458 11.667 1.62 11.829zm24.145-7.454c1.944 1.134 3.727 2.107 5.671 3.241-1.134.648-2.106 1.296-3.241 1.944 6.644 3.89 13.288 7.617 19.932 11.506v6.481c-8.427-4.861-17.015-9.722-25.441-14.746-3.727 2.107-7.454 4.376-11.181 6.482-7.292 4.375-14.26.972-15.232-6.806 0-.162-2.431-18.149-3.728-27.385 2.107 1.134 4.052 2.43 6.158 3.565.162 1.296.324 2.754.486 4.051 0 0-.324-.162 23.497 13.612.972-.649 1.944-1.297 3.079-1.945zm46.182-167.063c62.387 36.136 97.065 56.067 116.348 67.086v-11.829c-3.403-1.944-7.13-4.213-11.505-6.644.162.487.324.811.486 1.135.162.324 0 .486-.162.81-.486.486-1.459 1.134-2.269 1.296-.81.162-1.62-.324-1.944-.972 0 0-2.593-5.509-2.917-6.158-29.33-16.852-58.498-33.867-87.828-50.72-3.403 1.945-6.806 3.889-10.209 5.996z" fill="#E1DFEA"/><path d="M234.357 344.067c14.909 8.588 29.979 17.339 44.887 25.927-4.051 2.431-8.264 4.699-12.316 7.13 3.565.162 7.13-.486 9.561-1.945 0 0 17.015-9.884 17.177-9.884l.486-3.889-9.237 5.347c-14.908-8.588-29.978-17.339-44.886-25.927 1.134-.648 2.107-1.296 3.241-1.944-1.945-1.135-3.727-2.107-5.672-3.241-1.134.648-2.106 1.296-3.241 1.944l-2.43-1.458v9.236c.81-.324 1.62-.81 2.43-1.296zm78.43 6.647c-4.051 2.431-8.264 4.699-12.315 7.13l-.487 3.889c9.075-5.348 18.311-10.533 27.386-15.88l.486-3.89c-3.241 1.783-6.32 3.565-9.399 5.51-5.185-2.917-10.208-5.996-15.394-8.912-.324 1.944-.486 4.051-.81 5.995 3.403 2.107 6.968 4.213 10.533 6.158zm33.543-23.338c1.944-7.616 3.727-15.07 5.671-22.687l-6.806 3.89c-4.375 17.5-4.375 17.338-4.375 17.338-.81 3.403-3.241 7.94-6.806 11.343-.162 1.621-.486 3.241-.648 4.862 2.593-1.459 5.024-2.917 7.616-4.375 2.431-2.917 4.376-6.644 5.348-10.371z" fill="#A9A1C5"/><path d="M359.617 251.053c-1.134 4.375-8.75 35.325-9.236 37.108-.162.81.162 1.62.972 1.944 1.134.325 3.079 0 4.051-.648.486-.162.486-.324.486-.648 2.917-11.667 5.834-23.172 8.751-34.839-1.783-.973-3.403-1.945-5.024-2.917zm-66.113 4.537c0 .486 0 .81.324 1.296.81 1.134 3.079.486 4.537 0 .162-.162.81-.324.81-.486v-.162c1.459-12.478 2.917-24.955 4.376-37.27-1.783-.973-3.565-2.107-5.348-3.079-.648 4.699-3.889 33.057-4.699 39.701zm-122.992-76.807c0-.649-.163-1.135-.163-1.783-1.782.972-3.565 2.107-5.347 3.079 0 .648.162 1.296.162 1.944 1.134-.972 1.458-.972 5.348-3.24z" fill="#C5BFDB"/><path d="M157.386 316.355c1.945 1.134 3.727 2.107 5.672 3.241 1.62-.972 3.403-1.945 5.023-2.917-.324-1.944-.486-4.051-.81-5.995-3.241 1.782-6.482 3.727-9.885 5.671zm137.089-19.442s-.162 1.62 3.403-29.817c-1.783-.972-3.565-2.106-5.348-3.078-1.296 10.695-2.43 21.552-3.727 32.246-.648 5.834-5.023 12.64-9.722 15.395-3.727 2.268-7.616 4.375-11.344 6.644-17.014-9.723-33.867-19.608-50.882-29.331.487 2.431.973 4.862 1.621 7.454l43.752 25.279c-4.699 2.755-9.561 5.51-14.26 8.265 1.945 1.134 3.727 2.106 5.672 3.241 4.699-2.755 9.56-5.51 14.259-8.265 4.862 2.755 9.723 5.672 14.585 8.427 1.944-1.135 3.727-2.107 5.671-3.241-4.861-2.755-9.723-5.672-14.584-8.427 2.917-1.62 5.672-3.24 8.588-5.023 6.158-3.727 11.506-12.153 12.316-19.769zm-78.915-14.1c.486 1.945.81 3.889 1.296 5.834 8.427-4.861 8.265-4.861 8.265-4.861 6.319-3.565 11.667-12.154 12.477-19.608 2.107-17.825 3.403-29.816 3.403-29.816-1.782-.972-3.565-2.107-5.347-3.079-2.107 17.825-3.727 32.085-3.727 32.247-.649 5.834-4.862 12.64-9.723 15.394 0 0 .324-.162-6.644 3.889z" fill="#A9A1C5"/><path d="M236.626 222.858c0 .324 0 .81.324 1.134.972 1.135 3.079.649 4.537 0 .162 0 .811-.324.811-.486v-.162c1.296-11.019 2.592-21.876 3.727-32.895-1.945 1.135-4.052 2.269-5.996 3.565 0-.162-3.403 28.844-3.403 28.844z" fill="#C5BFDB"/><path d="M121.412 317.653l17.014 9.723c-8.588 5.023-8.426 4.861-8.426 4.861-1.782.973-4.213 1.783-5.671.324-.487-.486-.973-1.296-1.135-2.106l.648 3.889 6.482 3.727c.81-.324 1.621-.648 2.431-1.134 3.727-2.107 7.454-4.376 11.181-6.482 5.509 3.241 11.019 6.32 16.691 9.56 3.889 2.269 7.778 4.376 11.505 6.644-.324-2.268-.648-4.699-.973-6.968-1.458-.81-2.916-1.62-4.213-2.43-5.833-3.403-11.667-6.644-17.338-10.047 1.134-.648 2.106-1.296 3.24-1.945l-2.754-1.62c-.973-.486-1.945-1.134-2.755-1.621-1.134.649-2.107 1.297-3.241 1.945-23.658-13.612-22.2-12.639-23.496-13.774l.81 7.454z" fill="#E1DFEA"/><path d="M113.796 302.905c-2.107-1.134-4.214-2.431-6.158-3.565 1.134 5.185 4.051 10.209 7.616 13.774-.648-3.403-.972-6.806-1.458-10.209z" fill="#C5BFDB"/><path d="M103.587 267.097c.811 6.481 1.459 12.963 2.269 19.445 1.944 1.134 4.051 2.269 5.996 3.565-.649-5.834 0-.972-3.403-25.765-1.459.81-3.079 1.782-4.862 2.755z" fill="#A9A1C5"/><path d="M98.078 218.643c.972 8.751 2.107 17.501 3.079 26.414 1.944 1.134 4.051 2.268 5.996 3.565-1.297-11.019-2.593-21.876-3.889-32.895-1.783.81-3.403 1.944-5.186 2.916zm33.543-19.441c.81 7.292 1.782 14.746 2.593 22.038 1.62-2.431 3.241-4.861 4.699-7.454-.648-5.996-1.458-11.829-2.107-17.825-1.62 1.296-3.403 2.269-5.185 3.241zm9.884 36.944c-.162-.81-1.782-15.07-1.782-15.232-1.621 2.431-3.241 4.861-4.7 7.454l.973 8.426c0 .162.648.487.81.487.972.324 2.755.972 3.727.486.81-.162 1.134-.973.972-1.621z" fill="#C5BFDB"/><path d="M148.798 284.436c-2.593-1.459-5.024-2.917-7.616-4.375 1.782 7.616 6.806 14.259 11.991 17.176 4.375 2.593 8.912 5.186 13.288 7.778-.324-2.268-.649-4.699-.973-6.968-3.241-1.782-6.481-3.727-9.56-5.509a23.964 23.964 0 01-7.13-8.102z" fill="#A9A1C5"/><path d="M177.48 304.69l-5.834-3.403c.486 4.051 1.134 8.102 1.62 12.153 1.459-.81 2.755-1.62 4.214-2.43 16.204 9.398 32.571 18.797 48.775 28.196v-6.482c-14.422-8.265-28.844-16.691-43.266-24.955 1.134-.648 2.107-1.296 3.241-1.945-1.945-1.134-3.727-2.106-5.672-3.241-.972.973-1.944 1.621-3.078 2.107z" fill="#E1DFEA"/><path d="M142.478 244.732c-1.782.973-3.565 2.107-5.347 3.079.81 6.482 1.458 12.964 2.268 19.446 1.945 1.134 4.052 2.268 5.996 3.565-.81-8.751-1.944-17.501-2.917-26.09z" fill="#A9A1C5"/><path d="M170.997 183.646c-2.431 1.297-3.403 1.945-5.185 3.241 1.134 10.209 2.43 20.256 3.565 30.465v.162c.162.486 3.24 1.62 4.537.972.648-.324.972-.972.972-1.62-.162-1.459-1.458-12.316-3.889-33.22z" fill="#C5BFDB"/><path d="M186.553 277.952c6.32 3.565 12.478 7.292 18.797 10.857-4.699 2.754-9.56 5.509-14.26 8.264 1.945 1.134 3.728 2.106 5.672 3.241 4.699-2.755 9.561-5.51 14.26-8.265.81.487 1.62.973 2.431 1.297-.649-2.755-1.135-5.51-1.783-8.264-.162.162-.486.324-.648.324-7.13-4.214-14.422-8.265-21.552-12.478-4.699-2.755-9.074-9.56-9.723-15.394 0-.162-3.727-32.247-3.727-32.247-1.782.972-3.565 2.107-5.347 3.079 3.727 32.085 3.403 29.654 3.403 29.816.81 7.778 6.32 16.043 12.477 19.77z" fill="#A9A1C5"/><path d="M210.051 164.683c9.884 5.672 19.769 11.343 29.492 17.015 2.268-1.297 4.375-2.593 6.643-3.889 0-.486 0-.486 1.135-3.403-9.075-5.186-18.149-10.533-27.224-15.718-3.241 2.106-6.644 4.051-10.046 5.995zm-106.626 38.892l7.778 7.292c1.945-1.135 4.051-2.269 5.996-3.565 30.626-17.663 69.517-40.187 73.244-42.294.162-1.134.81-2.107 1.944-2.755 5.348-3.079 10.695-6.157 16.205-9.398-7.778-2.107-16.367-.811-21.714 2.268 0 0-37.757 21.876-69.517 40.187a184.536 184.536 0 01-13.936 8.265z" fill="#E1DFEA"/><path d="M206.647 204.384c-7.292-1.459-14.908 0-19.769 2.755l-12.316 7.13c.162.81.162 1.782.324 2.592 0 .648-.324 1.297-.972 1.621-1.458.648-4.537-.648-4.537-.973v-.162c-9.399 5.348-18.797 10.857-28.196 16.205.162.81.162 1.782.324 2.593 0 .648-.324 1.296-.972 1.62-.972.486-2.755 0-3.727-.486-.162-.162-.81-.324-.81-.486v-.162c-3.403 1.944-6.644 3.889-10.047 5.833-2.593 4.051-5.347 8.265-7.94 12.316 1.134.648 2.43 1.458 3.565 2.106 71.948-41.483 70.489-40.673 70.651-40.835 2.107-1.134 4.862-1.782 7.292-1.944 1.297-4.214 3.727-7.779 7.13-9.723zm148.757 85.073c-.972.486-3.078.972-4.051.648-.81-.324-1.134-.972-.972-1.62 0 0 .486-2.107.648-2.431-17.177-9.885-34.515-19.931-51.692-29.816v.162c0 .162-.486.486-.81.486-1.297.486-3.565 1.134-4.537 0-.325-.324-.325-.81-.325-1.296.163-.811.162-1.621.325-2.593-17.177-9.885-34.354-19.932-51.531-29.816 0 .324 0 .324-.81.648-1.296.486-3.565 1.134-4.537 0-.324-.324-.324-.81-.324-1.296.162-.811.162-1.621.324-2.431-.162 0-21.876-12.802-24.469-13.936l-3.079 1.783c-2.268 1.134-4.051 3.402-5.185 6.319 1.782.324 3.727.81 5.185 1.783.162.162 62.388 35.974 137.9 79.726 3.403-1.945 6.806-3.889 10.209-5.996-.486-.324-.972-.648-1.62-.972-.162.324-.162.486-.649.648z" fill="#FF73B5"/><path d="M120.278 200.012l-18.149 120.399 45.21 26.089V215.73l-27.061-15.718z" fill="#C07D9D"/><path d="M215.236 145.078l27.223 15.718-95.12 54.934-27.223-15.719 95.12-54.933zm-1.297 29.654l23.983-13.936-22.686-13.125c-30.14 17.501-60.281 34.839-90.583 52.34l22.686 13.126 66.6-38.405z" fill="#FFC6E1"/><path d="M124.815 200.008l22.686 13.126 66.601-38.405c0-1.296 1.296-25.603 1.296-26.899-30.302 17.339-60.443 34.84-90.583 52.178z" fill="#FFC6E1"/><path d="M242.459 160.795l13.612 122.83-108.57 62.711v-130.77l94.958-54.771zM172.132 275.36c1.458-.162 2.917-1.134 4.051-2.106.81-.81 1.459-1.945 2.107-3.241.162 2.917.486 5.996.648 8.912.81-.486 1.782-.972 2.593-1.458-.649-8.426-1.297-16.853-1.783-25.279-.81.486-1.62.972-2.269 1.296 0 .811.163 1.621.163 2.431-.649-.648-1.459-1.134-2.431-.972-1.621 0-3.565 1.458-4.537 2.755-2.593 2.754-3.565 6.805-3.403 10.532-.162 3.565 1.134 7.617 4.861 7.13zm12.477-10.857c2.917 3.727 9.885-.324 12.154-6.967.648-2.107.81-4.214.648-6.32-.162-2.269-.81-5.186-2.755-6.158-2.43-1.134-5.671.81-7.616 2.755-1.782 1.782-3.241 4.537-3.727 7.454-.324 2.269-.162 4.861.162 6.644.324.972.648 1.944 1.134 2.592zm16.367-5.833c.81-.486 1.782-.972 2.593-1.459-.811-12.315-.973-12.153-.811-13.125.162-1.134.487-2.269 1.135-3.079.486-.81 1.296-1.296 2.106-1.783.973-.486 2.269-.648 3.079.163.972.81 1.134 2.754 1.134 3.889.163 3.24.487 6.643.649 9.884.81-.486 1.782-.972 2.592-1.458-.648-8.426-1.296-16.853-1.782-25.279-.81.486-1.783.972-2.593 1.458.162 3.079.486 5.996.648 9.075-1.134-.81-2.592-.81-3.889-.324-.972.324-2.106 1.134-2.917 2.106-1.296 1.297-2.106 2.755-2.43 4.376-.324 1.296-.324 2.916-.162 4.375.162 3.565.486 7.292.648 11.181zm17.825-29.006c0-2.431.972-4.699 2.755-6.32 1.134-.972 2.592-1.944 3.727-2.269.972-.324 1.782-.486 2.592.163.486.486.648.972.811 1.62 0 .972-.162 1.945-.649 2.755-.324.486-.81.972-1.134 1.458-3.727 3.889-9.723 7.292-10.533 13.45-.162 1.134-.162 2.593.324 3.727.486 1.296 1.297 2.106 2.593 2.431 1.62.324 3.403-.163 4.861-.973.973-.486 2.269-1.296 3.241-2.268 1.621-1.297 2.917-2.917 3.889-4.7 1.135-2.106 1.783-4.537 1.621-6.968-.811.487-1.783.811-2.593 1.297 0 2.43-.648 4.213-1.62 5.509-.973 1.459-2.431 2.917-4.214 3.889-.972.487-2.268 1.135-3.403.973-.324 0-.486-.162-.81-.162-.486-.162-.81-.649-1.134-1.297-.324-.81-.162-2.106.324-3.403.324-.81.972-1.782 1.782-2.43 1.945-2.107 5.834-5.024 7.617-7.292 1.134-1.621 2.106-3.241 2.43-5.186.324-1.782.162-3.889-1.134-5.185-1.621-1.783-4.699-.648-6.806.486-5.023 2.917-7.454 7.616-7.292 11.991.972-.486 1.945-.81 2.755-1.296z" fill="#E095B8"/><path d="M174.887 254.782c.972 0 1.782.324 2.431.972 0-.81-.162-1.62-.162-2.43.81-.486 1.62-.973 2.268-1.297.648 8.427 1.296 16.853 1.783 25.279-.811.486-1.783.973-2.593 1.459-.162-2.917-.486-5.996-.648-8.913-.486 1.297-1.297 2.431-2.107 3.241a6.197 6.197 0 01-4.051 2.107c-3.727.486-5.023-3.565-5.185-7.292-.162-3.727.972-7.778 3.403-10.533 1.458-1.134 3.402-2.593 4.861-2.593zm-4.051 16.691c.486.486 1.134.81 1.782.81.648 0 1.297-.162 1.783-.486 1.62-.972 2.755-3.241 3.241-5.186.162-.972.324-2.43.162-4.051-.162-1.944-.486-4.213-2.269-5.023-.648-.324-1.296-.324-2.106 0-1.783.81-3.079 2.917-3.565 4.861-.487 1.459-.487 3.079-.325 4.699.162 1.459.325 3.403 1.297 4.376z" fill="#E095B8"/><path d="M170.025 262.399c-.486 1.459-.486 3.079-.324 4.7.162 1.296.324 3.241 1.296 4.375.487.486 1.135.81 1.783.81.648 0 1.296-.162 1.782-.486 1.621-.972 2.755-3.241 3.241-5.186.162-.972.324-2.43.162-4.051-.162-1.944-.486-4.213-2.268-5.023-.649-.324-1.297-.324-2.107 0-1.944.81-3.079 3.079-3.565 4.861zm17.015-14.586c1.944-1.944 5.185-3.889 7.616-2.754 2.107.972 2.593 3.889 2.755 6.157.162 2.269 0 4.376-.648 6.32-2.107 6.644-9.075 10.695-12.154 6.968-.648-.81-.972-1.783-1.134-2.593-.324-1.782-.648-4.375-.162-6.644.486-2.916 1.944-5.671 3.727-7.454zm.972 14.908c.81.325 1.783.163 2.593-.324.972-.486 1.944-1.458 2.431-2.43 1.134-1.783 1.782-4.051 1.62-7.292-.162-1.459-.324-3.241-1.296-4.213-.811-.811-2.107-1.135-3.727-.162a8.668 8.668 0 00-2.431 2.43c-.972 1.621-1.458 3.403-1.458 5.51 0 1.296.162 3.403.648 4.699.324.81.81 1.458 1.62 1.782z" fill="#E095B8"/><path d="M185.744 256.243c0 1.296.162 3.403.648 4.699.324.81.81 1.459 1.62 1.783.81.324 1.783.162 2.593-.324.972-.487 1.944-1.459 2.431-2.431 1.134-1.783 1.782-4.051 1.62-7.292-.162-1.458-.324-3.241-1.296-4.213-.811-.81-2.107-1.135-3.727-.162a8.668 8.668 0 00-2.431 2.43c-.972 1.783-1.458 3.565-1.458 5.51zm14.584-13.289c-.325 1.297-.325 2.917-.162 4.376.324 3.727.486 7.616.81 11.505.81-.486 1.782-.973 2.592-1.459-.81-12.315-.972-12.153-.81-13.125.162-1.135.486-2.269 1.135-3.079.486-.81 1.296-1.296 2.106-1.783.972-.486 2.269-.648 3.079.162.972.811 1.134 2.755 1.134 3.89.162 3.24.486 6.643.648 9.884.811-.486 1.783-.972 2.593-1.458-.648-8.426-1.296-16.853-1.782-25.279-.811.486-1.783.972-2.593 1.458.162 3.079.486 5.996.648 9.075-1.134-.81-2.593-.81-3.889-.324-.972.324-2.106 1.134-2.917 2.106-1.458.973-2.268 2.431-2.592 4.051z" fill="#E095B8"/><path d="M215.236 147.83c0 1.296-1.296 25.603-1.296 26.899l23.982-13.935-22.686-12.964z" fill="#FFC6E1"/><path d="M223.338 218.969c-5.023 2.916-7.454 7.616-7.292 11.991.972-.486 1.783-.81 2.755-1.296 0-2.431.972-4.7 2.755-6.32 1.134-.972 2.592-1.945 3.727-2.269.972-.324 1.782-.486 2.592.162.487.486.649.972.811 1.621 0 .972-.162 1.944-.648 2.754-.325.487-.811.973-1.135 1.459-3.727 3.889-9.722 7.292-10.533 13.45-.162 1.134-.162 2.592.324 3.727.487 1.296 1.297 2.106 2.593 2.43 1.621.324 3.403-.162 4.861-.972.973-.486 2.269-1.296 3.241-2.269 1.621-1.296 2.917-2.916 3.889-4.699 1.135-2.107 1.783-4.537 1.621-6.968-.81.486-1.783.81-2.593 1.296 0 2.431-.648 4.214-1.62 5.51-.973 1.458-2.431 2.917-4.213 3.889-.973.486-2.269 1.134-3.403.972-.325 0-.487-.162-.811-.162-.486-.162-.81-.648-1.134-1.296-.324-.81-.162-2.107.324-3.403.324-.81.972-1.783 1.783-2.431 1.944-2.106 5.833-5.023 7.616-7.292 1.134-1.62 2.106-3.241 2.43-5.185.324-1.783.162-3.889-1.134-5.186-1.62-1.782-4.699-.81-6.806.487z" fill="#E095B8"/><path d="M111.204 250.889c.972.486 1.782 1.135 2.754 1.621a87.003 87.003 0 003.241-5.024c-1.944 1.135-3.889 2.269-5.995 3.403z" fill="#A9A1C5"/><path d="M192.874 171.004c1.62 1.459 3.565 1.459 5.023.649.324-.162.486-.486.81-.811 1.297-2.268-.81-6.643-3.079-8.102-.972-.486-2.106-.972-2.916-.486-1.621.972-2.269 2.917-1.945 4.699.972-.648 1.296-.81 1.296-.81.324-.162.811 0 1.135.162 1.296.81 1.944 3.079 1.134 3.727-.162.162 0 .162-1.458.972z" fill="#A26582"/><path d="M165.165 181.86c-5.672 3.565-11.668 9.399-14.584 13.936l-37.433 58.012c-.324.324-.324.972.162 1.297.973.81 3.889.486 4.213-.162 4.052-6.158-11.667 18.149 36.785-57.04 2.43-3.727 6.968-8.102 11.343-11.181 3.241-2.269 3.079-1.783 28.357-16.529l.163-.162c.648-.648.162-2.268-.649-3.079-.486-.486-1.134-.972-1.782-.648.162.162-25.441 14.908-26.575 15.556z" fill="#E1DFEA"/><path d="M214.264 349.251c1.945 1.134 3.727 2.107 5.672 3.241 2.106-1.296 4.213-2.431 6.319-3.727v-6.482c-3.889 2.269-7.94 4.537-11.991 6.968z" fill="#A9A1C5"/><path d="M235.653 149.775c3.565-2.107 1.945-8.102-1.782-9.561-1.297-.486-2.755-.324-3.565.324-20.418 11.83-33.057 19.122-37.757 21.714.811-.486 2.107-.162 2.917.486 2.269 1.459 4.375 5.672 3.079 8.103a1.952 1.952 0 01-.81.81c22.524-12.964 16.042-9.237 37.918-21.876z" fill="#C07D9D"/><path d="M232.737 185.588c-1.458.81-2.268 2.593-1.944 4.699.486-.162.81-.486 1.296-.648.973-.648 2.755 1.135 2.755 2.755 0 .486-.162.972-.486 1.134-.486.162-.81.486-1.297.648 1.783 1.459 3.728 1.459 5.024.649.972-.487 1.134-1.945 1.134-3.079-.162-1.945-1.62-4.537-3.241-5.672-.972-.486-2.268-.972-3.241-.486z" fill="#A26582"/><path d="M223.337 235.17l-32.085 18.473 30.789 17.663c10.695-6.158 21.39-12.316 32.247-18.635-10.371-5.672-20.58-11.667-30.951-17.501z" fill="#E0C18F"/><path d="M202.92 294.318v67.573l24.955 14.422V308.74l-5.834-3.403-19.121-11.019z" fill="#FFE2B3"/><path d="M191.252 287.512l11.668 6.806 18.959 11.019v-33.868l-30.627-17.824v33.867z" fill="#FFE2B3"/><path d="M221.879 305.172l5.834 3.403 14.584 8.426v-33.867l-20.418-11.829v33.867z" fill="#1F2024"/><path d="M221.879 271.469l20.418 11.829c10.694-6.157 21.389-12.315 32.246-18.635-6.805-3.889-13.611-7.94-20.417-11.829-10.695 6.158-21.39 12.315-32.247 18.635z" fill="#38393F"/><path d="M223.337 235.169c10.208 5.834 20.417 11.829 30.788 17.825 6.806-3.889 13.612-7.94 20.418-11.829-10.209-5.834-20.418-11.829-30.789-17.663l-20.417 11.667z" fill="#38393F"/><path d="M227.712 376.149l20.418 11.829v-67.573l-5.834-3.402-14.584-8.427v67.573z" fill="#1E1F21"/><path d="M242.459 317.002l5.834 3.403 27.871 16.042v-33.705l-33.705-19.445v33.705z" fill="#FFE2B3"/><path d="M242.459 283.297l33.705 19.446 32.247-18.636c-11.181-6.481-22.362-12.963-33.705-19.445-10.857 6.158-21.552 12.315-32.247 18.635zm1.457-59.955c10.209 5.996 20.418 11.829 30.789 17.663 10.695-6.158 21.39-12.315 32.247-18.635l-30.789-17.825-32.247 18.797z" fill="#E0C18F"/><path d="M248.292 387.977l27.872 16.042v-67.572l-27.872-16.043v67.573z" fill="#FFE2B3"/><path d="M274.543 241.004c-6.806 3.889-13.612 7.94-20.418 11.829 6.806 3.889 13.612 7.94 20.418 11.829 6.805-3.889 13.611-7.94 20.417-11.829-6.644-3.889-13.449-7.94-20.417-11.829z" fill="#38393F"/><path d="M274.543 264.663c11.181 6.482 22.362 12.964 33.705 19.446l20.418-11.83c-11.181-6.481-22.362-12.963-33.705-19.445-6.644 3.889-13.45 7.94-20.418 11.829zm32.247-42.294c-10.695 6.158-21.39 12.316-32.247 18.635 6.806 3.889 13.612 7.94 20.418 11.83 10.695-6.158 21.39-12.316 32.246-18.636l-20.417-11.829z" fill="#38393F"/><path d="M276.002 336.449v67.573l26.413-15.233v-67.572l-26.413 15.232z" fill="#B8A381"/><path d="M276.002 336.448l26.413-15.07 5.834-3.403v-33.868l-32.247 18.636v33.705z" fill="#B8A381"/><path d="M295.123 252.836c11.181 6.482 22.362 12.964 33.705 19.446l32.247-18.635-33.705-19.446c-10.857 6.32-21.552 12.478-32.247 18.635z" fill="#E0C18F"/><path d="M302.415 388.787l20.418-11.83v-67.572l-14.584 8.426-5.834 3.403v67.573z" fill="#1E1F21"/><path d="M308.249 284.109v33.867l14.584-8.426 5.833-3.403v-33.868l-20.417 11.83z" fill="#1F2024"/><path d="M322.832 309.388v67.573l26.413-15.232v-67.573l-20.417 11.829-5.996 3.403z" fill="#B8A381"/><path d="M328.828 272.28v33.867l20.417-11.829 11.667-6.806v-33.867l-32.084 18.635z" fill="#B8A381"/><path d="M231.926 360.107v-27.71c-1.944-1.134-3.727-2.106-5.671-3.241 0 32.895-.162 31.437.162 32.247.81 1.459 2.917.972 4.375 0 .486-.324 1.134-.81 1.134-1.296zm37.595-228.642c.648-1.783.81-3.727-.324-5.186-3.079-3.403-9.723 1.135-9.885 1.135-7.94 4.537-15.881 9.236-23.821 13.773 1.135.973 1.945 2.431 2.269 3.889 0 0-.324.162 23.982-13.935 1.135-.649 2.593-1.297 3.727-1.621-20.417 50.882-19.283 47.803-19.283 48.289 1.945-1.134 4.051-2.268 5.996-3.565 17.501-43.265 17.177-42.779 17.339-42.779z" fill="#E1DFEA"/><path d="M292.531 339.044l4.375 2.43c.162-1.782.486-3.565.648-5.347-1.62.972-3.241 1.945-5.023 2.917z" fill="#C5BFDB"/><path d="M327.209 346.66c-.163.649.972 1.297 1.62 1.621 2.431 1.458 3.889.486 4.051-.972 0 0 2.431-18.311 4.537-34.03-2.106 1.135-4.051 2.431-6.157 3.565-.486 3.241-3.889 28.358-4.051 29.816zm37.918-10.695c-2.106 1.134-4.051 2.431-6.157 3.565-2.431 17.987-3.079 23.01-3.079 23.172-.162 1.135-.486 2.269-1.297 3.079-1.458 1.458-3.889.648-5.671-.324-5.834-3.403-11.505-6.644-17.339-10.047-.324 1.945-.486 4.051-.81 5.996l15.232 8.75c7.292 4.213 14.26.973 15.232-6.806.162 0 .162.324 3.889-27.385zm-9.722-97.39c.162-.162.324-.486.162-.81 0-.162-30.627-65.142-37.919-80.374-3.889-7.941-11.991-10.533-18.473-6.644 0 0-23.658 13.612-23.658 13.774l.162.162c1.134.972 1.782 2.43 2.106 3.727.162 0 24.145-13.936 24.145-13.936 4.699-2.593 9.723.162 11.991 5.347 0 0 37.27 79.078 37.27 79.24.325.648.973 1.134 1.945.972.81-.324 1.944-.972 2.269-1.458zm2.106 63.035a119.655 119.655 0 016.158 3.565c.324-2.593.648-5.024.972-7.616-2.43 1.296-4.861 2.754-7.13 4.051z" fill="#E1DFEA"/><path d="M360.589 327.379a.89.89 0 00.486.81c.649.649 1.945 1.297 2.917 1.459 1.135.162 1.945-.486 2.107-1.621.324-2.43 4.051-29.654 4.537-34.029-2.106 1.134-4.051 2.431-6.158 3.565.163 0-3.889 29.816-3.889 29.816z" fill="#E1DFEA"/><path d="M232.737 185.586c.972-.486 2.268 0 3.241.648 1.62 1.135 3.079 3.565 3.241 5.672.162 1.134-.162 2.593-1.135 3.079.486-.324 7.94-4.538 7.94-4.538.973-.486 24.307-14.097 29.817-17.176 2.916-1.783 2.43-6.158-.162-8.427-1.783-1.62-3.727-1.62-5.186-.81.162-.162-37.594 21.552-37.756 21.552z" fill="#C07D9D"/><path d="M293.666 365.944c-.162.648.972 1.458 1.62 1.782.81.486 1.945.972 2.917.648.648-.162.972-.81 1.134-1.458.162-1.782 4.213-31.761 4.537-34.191-2.106 1.134-4.051 2.43-6.157 3.565-.162 0-4.051 29.654-4.051 29.654zM169.54 328.027c0 .162.162.486.162.648.81 1.621 3.078.811 4.537-.162.486-.324.972-.81.81-1.134 0 0-4.051-29.816-4.051-29.978-2.107-1.134-4.051-2.431-6.158-3.565.162 0 4.538 33.057 4.7 34.191zm-60.929-63.686c4.375 32.895 4.051 31.112 4.375 31.598.81 1.621 3.079.81 4.537-.162.324-.324.811-.648.811-1.134l-4.052-29.978c-2.106-1.135-4.051-2.431-6.157-3.565.324 1.62.486 3.078.486 3.241zm126.232-71.948c0-1.62-1.783-3.403-2.755-2.754 0 0-25.279 14.584-25.441 14.746-6.644 3.889-9.399 13.449-7.616 21.389 0 0 4.699 21.876 18.311 86.37.162.972.486 1.945.648 2.917.162.648.81 1.134 1.782 1.296 1.135.162 2.755-.486 2.917-.81.162-.162.972 4.375-19.283-91.231 0-.162-1.296-4.699.81-10.047 1.134-2.917 3.079-5.185 5.186-6.319.162-.163 24.954-14.422 25.116-14.422.163-.162.325-.649.325-1.135z" fill="#E1DFEA"/><path d="M119.954 306.473c.162.162.324.162.486.324l-.486-.324z" fill="#C5BED1"/><path d="M113.797 302.908c.972 6.806 3.727 27.386 3.727 27.386.81 6.806 6.481 10.371 12.801 7.94l-6.482-3.727-.648-3.889c0-.324-.162-.648-.162-.972l-.324-2.431v-.324l-.162-1.783c0-.324 0-.648-.162-.972l-.81-6.482-.973-7.292-.486-3.889c-2.268-1.134-4.375-2.268-6.319-3.565zm263.484 10.048c.648.324 1.296.81 1.783 1.458.324.486.324.486.324.649 0 .324-.487.81-.811 1.134-.648.648 0 .162-11.667 6.968-.162 1.62-.486 3.241-.648 5.023-.162 1.134-.81 1.783-2.107 1.621-.972-.162-2.268-.811-2.916-1.459-.324-.324-.487-.486-.487-.81l.162-.81c-5.347 3.079-9.56 5.509-27.223 15.718-.162 1.62-.486 3.403-.648 5.023-.162 1.459-1.459 2.431-4.051.973-.486-.324-1.783-.973-1.621-1.621 0-.324 0-.486.162-.81-9.074 5.348-18.311 10.533-27.385 15.88-.162 1.621-.486 3.403-.648 5.024-.162.648-.487 1.296-1.135 1.458-.81.324-2.106-.162-2.917-.648-.486-.324-1.782-1.134-1.62-1.783 0-.162 0-.486.162-.648 0 0-17.015 9.885-17.177 9.885-2.43 1.458-5.995 2.107-9.56 1.945-2.917-.162-5.672-.811-7.616-1.945-.324-.162-27.386-15.88-27.548-15.88v.81c0 .486-.648.972-1.134 1.296-1.459.973-3.565 1.459-4.375 0-.325-.648-.162-.648-.162-5.347-10.533-5.996 12.153 6.968-51.207-29.654 0 .324 0 .486.162.81 0 .486-.486.81-.81 1.134-1.458 1.135-3.727 1.783-4.537.162-.162-.486-.162-.324-.81-5.671-8.913-5.186-38.081-22.038-50.72-29.33l.162.81c0 .486-.486.81-.81 1.134-1.459 1.134-3.727 1.783-4.538.162-.162-.486-.162-.324-.81-5.671h-.162a2782.001 2782.001 0 00-20.58-11.83s-1.134-.648-1.782-1.458c-.324-.486-.324-.486-.324-.648v-.162c.162-.648 1.458-1.621 2.106-1.945 17.825-10.371 17.177-9.885 17.177-9.885a148.691 148.691 0 00-.486-3.24c-2.431-1.459-4.699-2.755-7.13-4.214 0 0-14.584 8.427-14.746 8.427-9.56 5.509-9.56 16.366 0 21.876.162 0 167.878 96.902 167.878 96.902.162 0 2.593 1.783 7.292 2.755 6.806 1.459 14.746.486 20.256-2.755 0 0 100.467-58.174 100.629-58.174 9.561-5.509 9.561-16.366 0-21.876 0 0 .162.162-11.991-6.967-.486 3.727-.972 7.291-1.458 11.019 2.43 1.944 5.185 3.565 8.102 5.185z" fill="#E1DFEA"/><path d="M226.255 392.842c0 7.13 6.158 10.857 13.936 6.32 0 0 1.134-.648 11.181-6.482 28.196 16.367 27.709 16.043 27.871 16.043 7.292 4.375 14.26.972 15.233-6.806 0 0 0 .648 3.727-27.386-2.107 1.135-4.051 2.431-6.158 3.565 0 .162-3.079 23.011-3.079 23.173-.162 1.134-.486 2.268-1.296 3.078-1.459 1.459-3.889.649-5.672-.324l-2.755-1.62-3.078 1.782-49.748-28.681c-.162 6.967-.162 17.014-.162 17.338zm5.509.162v-11.667c4.7 2.755 9.237 5.348 13.936 8.102-2.755 1.621-5.671 3.241-8.426 4.862-1.134.648-2.755 1.296-4.051 1.296-.486 0-.648-.162-.81-.324-.487-.486-.649-1.458-.649-2.269z" fill="#E1DFEA"/><path d="M331.746 355.246c-2.107 1.134-4.051 2.431-6.158 3.565-2.43 17.987-3.079 23.01-3.079 23.172-.162 1.135-.486 2.269-1.296 3.079-1.458 1.459-3.889.648-5.672-.324 0 0 .163.162-17.338-10.047 0 0-.162 0-.162.162-.324 1.945-.486 3.89-.811 5.834l15.395 8.913c7.292 4.213 14.26.972 15.232-6.806 0-.162.648-3.403 3.889-27.548zM75.067 241.817c.162 0 179.059 103.546 179.221 103.546 7.616 4.538 19.932 4.376 27.548 0l111.811-64.655c9.56-5.51 9.56-16.367 0-21.876 0 0 .486.324-8.427-4.862-4.051-2.268-9.884-5.671-18.635-10.695v11.829c3.889 2.269 7.13 4.052 9.885 5.672 14.098 8.264 14.098 8.426 14.098 9.075v.162c-.162.324-.486.81-.81 1.134-1.135.972-112.783 65.142-113.108 65.466-4.375 2.593-12.639 2.755-17.176 0l-36.947-21.39c0 .324.163.324 0 .486-.162.324-1.782.81-2.916.81-.973-.162-1.459-.648-1.783-1.296-.162-.972-.486-1.944-.648-2.917 0 0-99.171-57.364-99.333-57.364-.162.163-.162.325-.324.487-.324.648-3.241.972-4.214.162-.486-.487-.486-.973-.162-1.297.325-.486.649-.972.811-1.296-.324-.162-33.706-19.445-33.868-19.607-.648-.325-1.296-.811-1.782-1.459-.324-.486-.324-.486-.324-.648v-.162c.162-.648 1.458-1.621 2.106-1.945 1.62-.972 14.584-8.426 31.113-17.987l-7.778-7.292a7289.224 7289.224 0 01-28.358 16.367c-9.56 5.185-9.56 16.042 0 21.552z" fill="#E1DFEA"/><path d="M226.417 329.158l-1.297-.648c.81.486 1.134.972 1.297 1.782v-1.134zm-23.497-13.449c9.885 5.672 18.96 11.019 21.552 12.477l-21.552-12.477zm-89.448-12.961l.324.324v-.162l-.324-.162zm117.482-112.46c1.458-.324 2.755-.324 3.241 1.296.486 1.135.162 2.107-.972 2.593.162.486.486.648.81.972.486.324.81.324 1.296.486a2.748 2.748 0 001.621 0l1.944-1.134 6.806-3.889.162 1.945c.486-2.269.81-2.431 3.403-3.727.648-.324 1.296-.324 1.945 0 .162 0 43.103 24.954 45.372 26.089.972.486 1.458 1.134 1.296 2.268l5.51 3.079c0-.486.162-.972.162-1.458 3.889 2.268-4.861-2.755 54.285 31.274 1.296.811 1.458.811 1.134 2.107l1.945 1.134v12.154c1.134-2.593 1.944-5.186 2.592-8.103.324-1.134.487-2.106.811-3.402.486.162.81.324 1.134.486 26.899 15.556 21.066 12.153 24.955 14.746 1.134-1.135 1.296-2.431.324-3.727a6.885 6.885 0 00-1.945-1.783c-27.061-15.718-35.974-20.579-38.728-22.524.648-1.134 1.944-1.134 3.079-1.783-.162-.486-.163-.81-.487-1.296-36.136-76.971-29.816-63.197-33.219-70.651-1.296-2.755-2.43-5.672-3.727-8.427-1.62-3.403-4.051-5.833-7.94-6.643-1.458-.325-2.755 0-3.889.972h2.755c1.944 0 3.403.972 4.699 2.268.972.973 1.945 2.107 2.431 3.403.486 1.135 35.163 74.541 36.136 76.81-2.755.486-4.213.648-4.862 1.134-.81.648-1.458.486-2.268 0-15.232-8.913-85.884-49.586-88.801-51.368 20.904-11.992 20.742-11.83 22.687-13.45-.649-.162-1.135.162-1.621.486-2.269 1.297-20.904 11.991-34.677 20.094-1.459.81-2.269.648-3.403-.486-1.297-1.459-2.107-3.403-5.348-5.348-.81 1.296-.972 2.269-.648 3.403zM347.14 295.455c.648 0 1.134-.324 2.268-1.134.163-.162.487-.325.811-.649l-3.079 1.783zm-81.832-165.934c-.972 3.241 1.134-2.106-10.209 25.927-10.209 24.631-8.912 22.524-8.912 22.524l5.995-3.565s16.853-41.807 17.177-42.941c.324-1.783-.648-2.755-2.269-2.593-.648.162-1.296.486-1.782.648zm114.079 185.053c1.62-1.62.324-4.375-1.621-5.347l-4.375-2.431c-.972-.648-1.944-1.134-3.079-1.782a7.778 7.778 0 00-1.134-.487c-.648 1.135-.648 2.269-.648 3.565a936.37 936.37 0 0010.857 6.482z" fill="#C5BED1"/><path d="M196.763 358.814c-5.672-3.403-11.505-6.644-17.339-10.047-.324-.162-.81-.324-1.296-.486-.325 1.297 0 2.107 1.134 2.755 5.023 2.917 9.885 5.672 14.908 8.588 1.296.649 1.458.649 2.593-.81z" fill="#C5BFDB"/><path d="M247.322 388.143c-1.297-1.134-13.774-8.264-15.071-8.75-.486 1.458-.486 1.782.811 2.43 3.889 2.269 7.94 4.537 11.829 6.806.972.81 1.296.648 2.431-.486z" fill="#C5BED1"/><path d="M333.691 342.125c.81-.486 1.782-.972 2.592-1.458.649-.325.648-1.297.162-2.269-.324-.648-.648-1.296-1.458-1.296-.648 0-1.134.324-1.296.972-.324 1.296-.324 2.43-.487 3.727.325.162.325.162.487.324z" fill="#E1DFEA"/><path d="M234.032 195.152c.486.324.811.324 1.297.486a2.76 2.76 0 001.62 0l1.945-1.134-4.862.648zm-22.847 88.635l-2.107-10.371c.648 3.079 1.297 6.482 2.107 10.047v.324z" fill="#C5BED1"/><path d="M207.782 267.424c.324 1.296.486 2.431.811 3.727l-.811-3.727z" fill="#E1DFEA"/><path d="M198.059 171.978c.811-.486 1.621-.972 2.593-1.458l-2.593 1.458zm-32.571 124.124c.162 1.62.324 2.754.487 3.403l-.487-3.403z" fill="#C5BED1"/><path d="M160.102 238.449l31.225-1.703-3.974 46.554-27.251-5.109v-39.742zm44.283-14.762l34.632-9.083-17.6 19.87-14.761 5.11-2.271-15.897z" fill="#E094B8"/></svg>